<svg width="319" height="200" viewBox="0 0 319 200" fill="none" xmlns="http://www.w3.org/2000/svg">
<rect width="319" height="199.62" rx="10" fill="#150B00"/>
<mask id="path-2-outside-1_32_297" maskUnits="userSpaceOnUse" x="113.528" y="133.754" width="90" height="17" fill="black">
<rect fill="white" x="113.528" y="133.754" width="90" height="17"/>
<path d="M124.56 146.59H117.872L116.64 150H114.528L120.072 134.754H122.382L127.904 150H125.792L124.56 146.59ZM123.988 144.962L121.216 137.218L118.444 144.962H123.988Z"/>
<path d="M144.818 137.724C145.757 137.724 146.593 137.922 147.326 138.318C148.059 138.699 148.639 139.279 149.064 140.056C149.489 140.833 149.702 141.779 149.702 142.894V150H147.722V143.18C147.722 141.977 147.421 141.061 146.82 140.43C146.233 139.785 145.434 139.462 144.422 139.462C143.381 139.462 142.552 139.799 141.936 140.474C141.32 141.134 141.012 142.095 141.012 143.356V150H139.032V143.18C139.032 141.977 138.731 141.061 138.13 140.43C137.543 139.785 136.744 139.462 135.732 139.462C134.691 139.462 133.862 139.799 133.246 140.474C132.63 141.134 132.322 142.095 132.322 143.356V150H130.32V137.944H132.322V139.682C132.718 139.051 133.246 138.567 133.906 138.23C134.581 137.893 135.321 137.724 136.128 137.724C137.14 137.724 138.035 137.951 138.812 138.406C139.589 138.861 140.169 139.528 140.55 140.408C140.887 139.557 141.445 138.897 142.222 138.428C142.999 137.959 143.865 137.724 144.818 137.724Z"/>
<path d="M152.238 143.928C152.238 142.696 152.487 141.618 152.986 140.694C153.485 139.755 154.167 139.029 155.032 138.516C155.912 138.003 156.887 137.746 157.958 137.746C159.014 137.746 159.931 137.973 160.708 138.428C161.485 138.883 162.065 139.455 162.446 140.144V137.944H164.47V150H162.446V147.756C162.05 148.46 161.456 149.047 160.664 149.516C159.887 149.971 158.977 150.198 157.936 150.198C156.865 150.198 155.897 149.934 155.032 149.406C154.167 148.878 153.485 148.137 152.986 147.184C152.487 146.231 152.238 145.145 152.238 143.928ZM162.446 143.95C162.446 143.041 162.263 142.249 161.896 141.574C161.529 140.899 161.031 140.386 160.4 140.034C159.784 139.667 159.102 139.484 158.354 139.484C157.606 139.484 156.924 139.66 156.308 140.012C155.692 140.364 155.201 140.877 154.834 141.552C154.467 142.227 154.284 143.019 154.284 143.928C154.284 144.852 154.467 145.659 154.834 146.348C155.201 147.023 155.692 147.543 156.308 147.91C156.924 148.262 157.606 148.438 158.354 148.438C159.102 148.438 159.784 148.262 160.4 147.91C161.031 147.543 161.529 147.023 161.896 146.348C162.263 145.659 162.446 144.859 162.446 143.95Z"/>
<path d="M169.349 148.35H175.267V150H167.061V148.35L172.913 139.572H167.105V137.944H175.223V139.572L169.349 148.35Z"/>
<path d="M183.123 150.198C181.994 150.198 180.967 149.941 180.043 149.428C179.134 148.915 178.415 148.189 177.887 147.25C177.374 146.297 177.117 145.197 177.117 143.95C177.117 142.718 177.381 141.633 177.909 140.694C178.452 139.741 179.185 139.015 180.109 138.516C181.033 138.003 182.067 137.746 183.211 137.746C184.355 137.746 185.389 138.003 186.313 138.516C187.237 139.015 187.963 139.733 188.491 140.672C189.034 141.611 189.305 142.703 189.305 143.95C189.305 145.197 189.026 146.297 188.469 147.25C187.926 148.189 187.186 148.915 186.247 149.428C185.308 149.941 184.267 150.198 183.123 150.198ZM183.123 148.438C183.842 148.438 184.516 148.269 185.147 147.932C185.778 147.595 186.284 147.089 186.665 146.414C187.061 145.739 187.259 144.918 187.259 143.95C187.259 142.982 187.068 142.161 186.687 141.486C186.306 140.811 185.807 140.313 185.191 139.99C184.575 139.653 183.908 139.484 183.189 139.484C182.456 139.484 181.781 139.653 181.165 139.99C180.564 140.313 180.08 140.811 179.713 141.486C179.346 142.161 179.163 142.982 179.163 143.95C179.163 144.933 179.339 145.761 179.691 146.436C180.058 147.111 180.542 147.617 181.143 147.954C181.744 148.277 182.404 148.438 183.123 148.438Z"/>
<path d="M197.811 137.724C199.278 137.724 200.466 138.171 201.375 139.066C202.285 139.946 202.739 141.222 202.739 142.894V150H200.759V143.18C200.759 141.977 200.459 141.061 199.857 140.43C199.256 139.785 198.435 139.462 197.393 139.462C196.337 139.462 195.494 139.792 194.863 140.452C194.247 141.112 193.939 142.073 193.939 143.334V150H191.937V137.944H193.939V139.66C194.335 139.044 194.871 138.567 195.545 138.23C196.235 137.893 196.99 137.724 197.811 137.724Z"/>
</mask>
<path d="M124.56 146.59H117.872L116.64 150H114.528L120.072 134.754H122.382L127.904 150H125.792L124.56 146.59ZM123.988 144.962L121.216 137.218L118.444 144.962H123.988Z" fill="#FEFAF6"/>
<path d="M144.818 137.724C145.757 137.724 146.593 137.922 147.326 138.318C148.059 138.699 148.639 139.279 149.064 140.056C149.489 140.833 149.702 141.779 149.702 142.894V150H147.722V143.18C147.722 141.977 147.421 141.061 146.82 140.43C146.233 139.785 145.434 139.462 144.422 139.462C143.381 139.462 142.552 139.799 141.936 140.474C141.32 141.134 141.012 142.095 141.012 143.356V150H139.032V143.18C139.032 141.977 138.731 141.061 138.13 140.43C137.543 139.785 136.744 139.462 135.732 139.462C134.691 139.462 133.862 139.799 133.246 140.474C132.63 141.134 132.322 142.095 132.322 143.356V150H130.32V137.944H132.322V139.682C132.718 139.051 133.246 138.567 133.906 138.23C134.581 137.893 135.321 137.724 136.128 137.724C137.14 137.724 138.035 137.951 138.812 138.406C139.589 138.861 140.169 139.528 140.55 140.408C140.887 139.557 141.445 138.897 142.222 138.428C142.999 137.959 143.865 137.724 144.818 137.724Z" fill="#FEFAF6"/>
<path d="M152.238 143.928C152.238 142.696 152.487 141.618 152.986 140.694C153.485 139.755 154.167 139.029 155.032 138.516C155.912 138.003 156.887 137.746 157.958 137.746C159.014 137.746 159.931 137.973 160.708 138.428C161.485 138.883 162.065 139.455 162.446 140.144V137.944H164.47V150H162.446V147.756C162.05 148.46 161.456 149.047 160.664 149.516C159.887 149.971 158.977 150.198 157.936 150.198C156.865 150.198 155.897 149.934 155.032 149.406C154.167 148.878 153.485 148.137 152.986 147.184C152.487 146.231 152.238 145.145 152.238 143.928ZM162.446 143.95C162.446 143.041 162.263 142.249 161.896 141.574C161.529 140.899 161.031 140.386 160.4 140.034C159.784 139.667 159.102 139.484 158.354 139.484C157.606 139.484 156.924 139.66 156.308 140.012C155.692 140.364 155.201 140.877 154.834 141.552C154.467 142.227 154.284 143.019 154.284 143.928C154.284 144.852 154.467 145.659 154.834 146.348C155.201 147.023 155.692 147.543 156.308 147.91C156.924 148.262 157.606 148.438 158.354 148.438C159.102 148.438 159.784 148.262 160.4 147.91C161.031 147.543 161.529 147.023 161.896 146.348C162.263 145.659 162.446 144.859 162.446 143.95Z" fill="#FEFAF6"/>
<path d="M169.349 148.35H175.267V150H167.061V148.35L172.913 139.572H167.105V137.944H175.223V139.572L169.349 148.35Z" fill="#FEFAF6"/>
<path d="M183.123 150.198C181.994 150.198 180.967 149.941 180.043 149.428C179.134 148.915 178.415 148.189 177.887 147.25C177.374 146.297 177.117 145.197 177.117 143.95C177.117 142.718 177.381 141.633 177.909 140.694C178.452 139.741 179.185 139.015 180.109 138.516C181.033 138.003 182.067 137.746 183.211 137.746C184.355 137.746 185.389 138.003 186.313 138.516C187.237 139.015 187.963 139.733 188.491 140.672C189.034 141.611 189.305 142.703 189.305 143.95C189.305 145.197 189.026 146.297 188.469 147.25C187.926 148.189 187.186 148.915 186.247 149.428C185.308 149.941 184.267 150.198 183.123 150.198ZM183.123 148.438C183.842 148.438 184.516 148.269 185.147 147.932C185.778 147.595 186.284 147.089 186.665 146.414C187.061 145.739 187.259 144.918 187.259 143.95C187.259 142.982 187.068 142.161 186.687 141.486C186.306 140.811 185.807 140.313 185.191 139.99C184.575 139.653 183.908 139.484 183.189 139.484C182.456 139.484 181.781 139.653 181.165 139.99C180.564 140.313 180.08 140.811 179.713 141.486C179.346 142.161 179.163 142.982 179.163 143.95C179.163 144.933 179.339 145.761 179.691 146.436C180.058 147.111 180.542 147.617 181.143 147.954C181.744 148.277 182.404 148.438 183.123 148.438Z" fill="#FEFAF6"/>
<path d="M197.811 137.724C199.278 137.724 200.466 138.171 201.375 139.066C202.285 139.946 202.739 141.222 202.739 142.894V150H200.759V143.18C200.759 141.977 200.459 141.061 199.857 140.43C199.256 139.785 198.435 139.462 197.393 139.462C196.337 139.462 195.494 139.792 194.863 140.452C194.247 141.112 193.939 142.073 193.939 143.334V150H191.937V137.944H193.939V139.66C194.335 139.044 194.871 138.567 195.545 138.23C196.235 137.893 196.99 137.724 197.811 137.724Z" fill="#FEFAF6"/>
<path d="M124.56 146.59H117.872L116.64 150H114.528L120.072 134.754H122.382L127.904 150H125.792L124.56 146.59ZM123.988 144.962L121.216 137.218L118.444 144.962H123.988Z" stroke="white" stroke-width="0.4" mask="url(#path-2-outside-1_32_297)"/>
<path d="M144.818 137.724C145.757 137.724 146.593 137.922 147.326 138.318C148.059 138.699 148.639 139.279 149.064 140.056C149.489 140.833 149.702 141.779 149.702 142.894V150H147.722V143.18C147.722 141.977 147.421 141.061 146.82 140.43C146.233 139.785 145.434 139.462 144.422 139.462C143.381 139.462 142.552 139.799 141.936 140.474C141.32 141.134 141.012 142.095 141.012 143.356V150H139.032V143.18C139.032 141.977 138.731 141.061 138.13 140.43C137.543 139.785 136.744 139.462 135.732 139.462C134.691 139.462 133.862 139.799 133.246 140.474C132.63 141.134 132.322 142.095 132.322 143.356V150H130.32V137.944H132.322V139.682C132.718 139.051 133.246 138.567 133.906 138.23C134.581 137.893 135.321 137.724 136.128 137.724C137.14 137.724 138.035 137.951 138.812 138.406C139.589 138.861 140.169 139.528 140.55 140.408C140.887 139.557 141.445 138.897 142.222 138.428C142.999 137.959 143.865 137.724 144.818 137.724Z" stroke="white" stroke-width="0.4" mask="url(#path-2-outside-1_32_297)"/>
<path d="M152.238 143.928C152.238 142.696 152.487 141.618 152.986 140.694C153.485 139.755 154.167 139.029 155.032 138.516C155.912 138.003 156.887 137.746 157.958 137.746C159.014 137.746 159.931 137.973 160.708 138.428C161.485 138.883 162.065 139.455 162.446 140.144V137.944H164.47V150H162.446V147.756C162.05 148.46 161.456 149.047 160.664 149.516C159.887 149.971 158.977 150.198 157.936 150.198C156.865 150.198 155.897 149.934 155.032 149.406C154.167 148.878 153.485 148.137 152.986 147.184C152.487 146.231 152.238 145.145 152.238 143.928ZM162.446 143.95C162.446 143.041 162.263 142.249 161.896 141.574C161.529 140.899 161.031 140.386 160.4 140.034C159.784 139.667 159.102 139.484 158.354 139.484C157.606 139.484 156.924 139.66 156.308 140.012C155.692 140.364 155.201 140.877 154.834 141.552C154.467 142.227 154.284 143.019 154.284 143.928C154.284 144.852 154.467 145.659 154.834 146.348C155.201 147.023 155.692 147.543 156.308 147.91C156.924 148.262 157.606 148.438 158.354 148.438C159.102 148.438 159.784 148.262 160.4 147.91C161.031 147.543 161.529 147.023 161.896 146.348C162.263 145.659 162.446 144.859 162.446 143.95Z" stroke="white" stroke-width="0.4" mask="url(#path-2-outside-1_32_297)"/>
<path d="M169.349 148.35H175.267V150H167.061V148.35L172.913 139.572H167.105V137.944H175.223V139.572L169.349 148.35Z" stroke="white" stroke-width="0.4" mask="url(#path-2-outside-1_32_297)"/>
<path d="M183.123 150.198C181.994 150.198 180.967 149.941 180.043 149.428C179.134 148.915 178.415 148.189 177.887 147.25C177.374 146.297 177.117 145.197 177.117 143.95C177.117 142.718 177.381 141.633 177.909 140.694C178.452 139.741 179.185 139.015 180.109 138.516C181.033 138.003 182.067 137.746 183.211 137.746C184.355 137.746 185.389 138.003 186.313 138.516C187.237 139.015 187.963 139.733 188.491 140.672C189.034 141.611 189.305 142.703 189.305 143.95C189.305 145.197 189.026 146.297 188.469 147.25C187.926 148.189 187.186 148.915 186.247 149.428C185.308 149.941 184.267 150.198 183.123 150.198ZM183.123 148.438C183.842 148.438 184.516 148.269 185.147 147.932C185.778 147.595 186.284 147.089 186.665 146.414C187.061 145.739 187.259 144.918 187.259 143.95C187.259 142.982 187.068 142.161 186.687 141.486C186.306 140.811 185.807 140.313 185.191 139.99C184.575 139.653 183.908 139.484 183.189 139.484C182.456 139.484 181.781 139.653 181.165 139.99C180.564 140.313 180.08 140.811 179.713 141.486C179.346 142.161 179.163 142.982 179.163 143.95C179.163 144.933 179.339 145.761 179.691 146.436C180.058 147.111 180.542 147.617 181.143 147.954C181.744 148.277 182.404 148.438 183.123 148.438Z" stroke="white" stroke-width="0.4" mask="url(#path-2-outside-1_32_297)"/>
<path d="M197.811 137.724C199.278 137.724 200.466 138.171 201.375 139.066C202.285 139.946 202.739 141.222 202.739 142.894V150H200.759V143.18C200.759 141.977 200.459 141.061 199.857 140.43C199.256 139.785 198.435 139.462 197.393 139.462C196.337 139.462 195.494 139.792 194.863 140.452C194.247 141.112 193.939 142.073 193.939 143.334V150H191.937V137.944H193.939V139.66C194.335 139.044 194.871 138.567 195.545 138.23C196.235 137.893 196.99 137.724 197.811 137.724Z" stroke="white" stroke-width="0.4" mask="url(#path-2-outside-1_32_297)"/>
<path d="M184.99 106.839C184.439 106.155 179.688 105.567 176.789 107.601C176.347 107.913 176.42 108.345 176.918 108.287C178.547 108.095 182.183 107.659 182.828 108.485C183.474 109.314 182.107 112.735 181.493 114.259C181.305 114.722 181.706 114.908 182.123 114.561C184.848 112.293 185.546 107.529 184.99 106.839Z" fill="#FF8000"/>
<path d="M179.997 109.705C174.32 112.115 168.146 113.276 162.527 113.276C154.208 113.276 146.145 110.998 139.632 107.205C139.064 106.871 138.641 107.455 139.114 107.883C145.152 113.338 153.132 116.619 161.996 116.619C168.321 116.619 175.661 114.629 180.73 110.895C181.567 110.275 180.854 109.345 179.997 109.705Z" fill="#FF8000"/>
<path d="M182.004 96.7907C180.3 94.4244 178.497 92.5142 178.497 88.1594V73.648C178.497 67.5114 178.932 61.8665 174.406 57.6328C170.828 54.2045 164.912 53 160.372 53C151.52 53 141.641 56.3 139.553 67.2477C139.339 68.4165 140.195 69.0295 140.936 69.2006L149.988 70.1699C150.814 70.1342 151.434 69.3075 151.598 68.4664C152.361 64.696 155.54 62.8786 159.089 62.8786C160.999 62.8786 163.166 63.5842 164.307 65.3019C165.604 67.212 165.426 69.8349 165.426 72.0444V73.2418C160.037 73.869 152.981 74.261 147.921 76.4847C142.105 78.9865 137.992 84.1324 137.992 91.6875C137.992 101.359 144.093 106.199 151.926 106.199C158.555 106.199 162.175 104.638 167.279 99.4278C168.968 101.88 169.524 103.077 172.617 105.643C173.316 106.014 174.199 105.971 174.819 105.429L174.848 105.443C176.701 103.804 180.072 100.846 181.982 99.2639C182.738 98.6224 182.61 97.6246 182.004 96.7907ZM165.426 82.7141C165.426 86.3419 165.525 89.3639 163.686 92.5855C162.211 95.2084 159.866 96.8121 157.243 96.8121C153.672 96.8121 151.598 94.0965 151.598 90.0696C151.598 82.1368 158.704 80.697 165.426 80.697V82.7141Z" fill="#FFFBF7"/>
<path d="M286.001 17.4727C285.732 17.1003 285.292 16.9343 284.891 16.9343C284.325 16.9343 283.798 17.2244 283.565 17.8465C283.296 17.2252 282.92 16.9343 282.32 16.9343C281.729 16.9343 281.29 17.2244 281.056 17.8465H281.04V17.2031C281.034 17.1143 280.959 17.0423 280.866 17.0386H279.971C279.869 17.0386 279.786 17.1172 279.786 17.2156V22.1393C279.793 22.2274 279.866 22.2957 279.958 22.3016H280.918C281.02 22.3016 281.102 22.2215 281.102 22.1238V19.5129C281.102 18.9437 281.074 18.1557 281.763 18.1557C282.445 18.1557 282.356 18.9636 282.356 19.5129V22.1231C282.356 22.2178 282.432 22.2935 282.529 22.3008H283.487C283.591 22.3008 283.672 22.2208 283.672 22.1231V19.5129C283.672 19.2331 283.663 18.8174 283.761 18.5692C283.859 18.3209 284.102 18.166 284.334 18.166C284.613 18.166 284.827 18.2592 284.899 18.5897C284.944 18.7873 284.926 19.3051 284.926 19.5129V22.1231C284.926 22.2178 285.003 22.2935 285.098 22.3008H286.057C286.159 22.3008 286.241 22.2208 286.241 22.1231L286.243 19.0164C286.243 18.4884 286.304 17.8869 286.001 17.4727Z" fill="#FFFBF7"/>
<path d="M298.642 16.9348C297.254 16.9348 296.484 18.1268 296.484 19.6588C296.484 21.182 297.244 22.4041 298.642 22.4041C299.984 22.4041 300.835 21.2129 300.835 19.711C300.839 18.1569 300.066 16.9348 298.642 16.9348ZM298.642 21.3892C297.89 21.3892 297.898 20.1046 297.898 19.5031C297.898 18.9031 297.943 17.9395 298.649 17.9395C298.953 17.9395 299.17 18.0732 299.276 18.4162C299.403 18.8098 299.42 19.3063 299.42 19.722C299.423 20.3536 299.387 21.3892 298.642 21.3892Z" fill="#FFFBF7"/>
<path d="M291.613 21.4013C291.438 21.1575 291.253 20.9606 291.253 20.5119V19.0166C291.253 18.3842 291.296 17.8026 290.83 17.3663C290.462 17.013 289.851 16.8889 289.385 16.8889C288.473 16.8889 287.453 17.229 287.24 18.3571C287.217 18.4775 287.304 18.5407 287.382 18.5583L288.312 18.6582C288.399 18.6545 288.463 18.5693 288.479 18.4826C288.558 18.0941 288.885 17.9068 289.251 17.9068C289.448 17.9068 289.672 17.9796 289.787 18.1566C289.923 18.3534 289.905 18.6237 289.905 18.8513L289.904 18.9732C289.348 19.0371 288.621 19.0775 288.1 19.3067C287.499 19.5659 287.078 20.0962 287.078 20.8747C287.078 21.8713 287.705 22.37 288.512 22.37C289.194 22.37 289.569 22.2092 290.094 21.6723C290.268 21.9249 290.326 22.0483 290.645 22.3127C290.717 22.3509 290.809 22.3465 290.872 22.2907L290.874 22.2922C291.065 22.1232 291.413 21.8184 291.608 21.6554C291.685 21.5915 291.674 21.4872 291.613 21.4013ZM289.904 19.9508C289.904 20.3246 289.915 20.636 289.724 20.968C289.573 21.2382 289.33 21.4035 289.063 21.4035C288.693 21.4035 288.477 21.1237 288.477 20.7087C288.477 19.8913 289.21 19.7429 289.904 19.7429V19.9508Z" fill="#FFFBF7"/>
<path d="M305.249 17.5143C304.979 17.0898 304.557 16.9341 304.127 16.9333C303.465 16.9333 303.087 17.2543 302.82 17.9278H302.804V17.175C302.786 17.0979 302.716 17.0406 302.633 17.0369H301.743C301.646 17.0369 301.567 17.1074 301.558 17.1977L301.56 22.1229C301.56 22.2176 301.635 22.2947 301.733 22.3021H302.687C302.79 22.3021 302.873 22.222 302.875 22.1229V19.473C302.875 19.1403 302.892 18.8414 303.028 18.5403C303.135 18.3031 303.349 18.1466 303.584 18.1466C304.245 18.1466 304.182 18.9347 304.182 19.473V22.1471C304.189 22.2301 304.264 22.2947 304.35 22.3028H305.313C305.409 22.3028 305.487 22.233 305.5 22.1471V19.0478C305.5 18.5711 305.5 17.9094 305.249 17.5143Z" fill="#FFFBF7"/>
<path d="M295.861 20.9683C295.31 20.6584 294.67 20.5673 294.062 20.5827L295.699 18.2502C295.849 18.0401 295.935 17.9087 295.935 17.8073V17.2043C295.935 17.0986 295.855 17.0259 295.753 17.0259H292.6C292.502 17.0259 292.422 17.0971 292.422 17.2043V17.9087C292.422 18.0137 292.502 18.0857 292.605 18.0857H294.253L292.359 20.8001C292.245 20.9742 292.243 21.1696 292.243 21.2841V21.9987C292.243 22.1016 292.36 22.2198 292.469 22.1596C293.542 21.5904 294.828 21.6469 295.798 22.1552C295.918 22.2169 296.03 22.0964 296.03 21.9936V21.2415C296.019 21.1409 295.986 21.0374 295.861 20.9683Z" fill="#FFFBF7"/>
<path d="M295.251 22.7512C295.055 22.5081 293.365 22.2988 292.335 23.0222C292.178 23.1331 292.203 23.2866 292.38 23.2661C292.96 23.1978 294.253 23.0428 294.482 23.3366C294.712 23.6311 294.225 24.8473 294.007 25.3893C293.94 25.5538 294.083 25.6199 294.231 25.4966C295.2 24.6901 295.448 22.9965 295.251 22.7512Z" fill="#FF8000"/>
<path d="M293.476 23.7706C291.458 24.6277 289.263 25.0405 287.265 25.0405C284.308 25.0405 281.441 24.2304 279.126 22.8819C278.924 22.763 278.773 22.9708 278.941 23.1228C281.088 25.0625 283.925 26.2288 287.077 26.2288C289.325 26.2288 291.935 25.5215 293.737 24.1936C294.035 23.9733 293.781 23.6428 293.476 23.7706Z" fill="#FF8000"/>
<path d="M279.035 21.401C278.86 21.1572 278.674 20.9604 278.674 20.5116V19.0163C278.674 18.384 278.719 17.8023 278.252 17.3661C277.884 17.0128 277.274 16.8887 276.806 16.8887C275.894 16.8887 274.876 17.2287 274.661 18.3568C274.639 18.4773 274.727 18.5404 274.803 18.558L275.736 18.6579C275.821 18.6543 275.885 18.5691 275.902 18.4824C275.981 18.0939 276.308 17.9066 276.674 17.9066C276.871 17.9066 277.094 17.9793 277.212 18.1563C277.345 18.3531 277.327 18.6234 277.327 18.8511V18.9745C276.772 19.0391 276.045 19.0795 275.523 19.3086C274.924 19.5664 274.5 20.0967 274.5 20.8752C274.5 21.8718 275.129 22.3705 275.936 22.3705C276.619 22.3705 276.992 22.2097 277.518 21.6728C277.692 21.9254 277.749 22.0488 278.068 22.3132C278.14 22.3514 278.231 22.347 278.295 22.2912L278.298 22.2926C278.489 22.1237 278.836 21.8189 279.033 21.6559C279.111 21.5898 279.098 21.487 279.035 21.401ZM277.327 19.9505C277.327 20.3244 277.337 20.6358 277.148 20.9677C276.996 21.238 276.754 21.4032 276.484 21.4032C276.116 21.4032 275.902 21.1234 275.902 20.7085C275.902 19.891 276.634 19.7427 277.327 19.7427V19.9505Z" fill="#FFFBF7"/>
</svg>
