<svg width="319" height="200" viewBox="0 0 319 200" fill="none" xmlns="http://www.w3.org/2000/svg">
<rect width="319" height="199.62" rx="10" fill="url(#paint0_linear_32_337)"/>
<g clip-path="url(#clip0_32_337)">
<path d="M133.349 75.3646C127.431 85.4872 131.193 100.849 137.738 110.163C141.004 114.82 144.311 119 148.841 119C148.927 119 149.012 118.998 149.1 118.995C151.228 118.911 152.766 118.265 154.253 117.641C155.922 116.94 157.649 116.215 160.357 116.215C162.934 116.215 164.578 116.916 166.168 117.595C167.735 118.263 169.349 118.954 171.734 118.91C176.837 118.816 179.969 114.306 182.733 110.327C185.618 106.172 187.064 102.138 187.553 100.597L187.572 100.535C187.665 100.261 187.534 99.9623 187.267 99.8417C187.26 99.8383 187.233 99.8272 187.225 99.824C186.327 99.4618 178.445 96.0152 178.362 86.6213C178.285 78.9892 184.275 74.9476 185.476 74.2151L185.532 74.1807C185.663 74.0981 185.753 73.9671 185.784 73.8174C185.815 73.6678 185.783 73.5122 185.695 73.3864C181.561 67.4225 175.224 66.5237 172.673 66.4156C172.303 66.3792 171.921 66.3608 171.537 66.3608C168.541 66.3608 165.67 67.4764 163.364 68.3727C161.772 68.9914 160.397 69.5258 159.449 69.5258C158.383 69.5258 157 68.9849 155.399 68.3587C153.258 67.5209 150.831 66.5717 148.261 66.5717C148.2 66.5717 148.14 66.5724 148.08 66.5735C142.106 66.6601 136.461 70.0292 133.349 75.3646Z" fill="#FEFAF6"/>
<path d="M172.676 50.0004C169.058 50.1457 164.719 52.3408 162.125 55.3356C159.92 57.8529 157.767 62.0499 158.334 66.2804C158.37 66.545 158.588 66.7493 158.858 66.7699C159.103 66.7887 159.352 66.7982 159.6 66.7984C163.138 66.7984 166.954 64.8694 169.56 61.7632C172.303 58.4834 173.689 54.2741 173.27 50.5038C173.237 50.2083 172.973 49.9889 172.676 50.0004Z" fill="#FEFAF6"/>
</g>
<g clip-path="url(#clip1_32_337)">
<path d="M290.897 19.4217C289.46 21.9157 290.374 25.7004 291.963 27.9952C292.756 29.1426 293.559 30.1724 294.659 30.1724C294.68 30.1724 294.701 30.172 294.722 30.1712C295.239 30.1506 295.613 29.9914 295.974 29.8377C296.379 29.6649 296.799 29.4862 297.456 29.4862C298.082 29.4862 298.481 29.6591 298.867 29.8262C299.248 29.9908 299.64 30.1612 300.219 30.1503C301.458 30.1272 302.219 29.0159 302.89 28.0355C303.591 27.0119 303.942 26.0181 304.061 25.6383L304.066 25.6232C304.088 25.5557 304.056 25.482 303.992 25.4523C303.99 25.4514 303.983 25.4487 303.981 25.4479C303.763 25.3587 301.849 24.5095 301.829 22.1951C301.81 20.3147 303.265 19.3189 303.557 19.1385L303.57 19.13C303.602 19.1097 303.624 19.0774 303.631 19.0405C303.639 19.0036 303.631 18.9653 303.61 18.9343C302.606 17.4649 301.067 17.2435 300.447 17.2169C300.357 17.2079 300.265 17.2034 300.171 17.2034C299.444 17.2034 298.746 17.4782 298.186 17.699C297.8 17.8515 297.466 17.9831 297.236 17.9831C296.977 17.9831 296.641 17.8499 296.252 17.6956C295.732 17.4892 295.143 17.2553 294.519 17.2553C294.504 17.2553 294.489 17.2555 294.475 17.2558C293.024 17.2771 291.653 18.1072 290.897 19.4217Z" fill="#FEFAF6"/>
<path d="M300.448 13.1725C299.569 13.2083 298.515 13.7491 297.885 14.4869C297.35 15.1071 296.827 16.1412 296.965 17.1835C296.973 17.2487 297.026 17.299 297.092 17.3041C297.151 17.3087 297.212 17.3111 297.272 17.3111C298.131 17.3111 299.058 16.8358 299.691 16.0706C300.357 15.2625 300.694 14.2254 300.592 13.2965C300.584 13.2237 300.52 13.1696 300.448 13.1725Z" fill="#FEFAF6"/>
</g>
<mask id="path-6-outside-1_32_337" maskUnits="userSpaceOnUse" x="79.561" y="134.063" width="159" height="19" fill="black">
<rect fill="white" x="79.561" y="134.063" width="159" height="19"/>
<path d="M88.313 145.365H83.145L82.193 148H80.561L84.845 136.219H86.63L90.897 148H89.265L88.313 145.365ZM87.871 144.107L85.729 138.123L83.587 144.107H87.871Z"/>
<path d="M94.3111 140.401C94.6171 139.868 95.0704 139.426 95.6711 139.075C96.2831 138.712 96.9914 138.531 97.7961 138.531C98.6234 138.531 99.3714 138.729 100.04 139.126C100.72 139.523 101.253 140.084 101.638 140.809C102.023 141.523 102.216 142.356 102.216 143.308C102.216 144.249 102.023 145.087 101.638 145.824C101.253 146.561 100.72 147.133 100.04 147.541C99.3714 147.949 98.6234 148.153 97.7961 148.153C97.0028 148.153 96.3001 147.977 95.6881 147.626C95.0874 147.263 94.6284 146.816 94.3111 146.283V152.42H92.7641V138.684H94.3111V140.401ZM100.635 143.308C100.635 142.605 100.493 141.993 100.21 141.472C99.9268 140.951 99.5414 140.554 99.0541 140.282C98.5781 140.01 98.0511 139.874 97.4731 139.874C96.9064 139.874 96.3794 140.016 95.8921 140.299C95.4161 140.571 95.0308 140.973 94.7361 141.506C94.4528 142.027 94.3111 142.634 94.3111 143.325C94.3111 144.028 94.4528 144.645 94.7361 145.178C95.0308 145.699 95.4161 146.102 95.8921 146.385C96.3794 146.657 96.9064 146.793 97.4731 146.793C98.0511 146.793 98.5781 146.657 99.0541 146.385C99.5414 146.102 99.9268 145.699 100.21 145.178C100.493 144.645 100.635 144.022 100.635 143.308Z"/>
<path d="M105.799 140.401C106.105 139.868 106.559 139.426 107.159 139.075C107.771 138.712 108.48 138.531 109.284 138.531C110.112 138.531 110.86 138.729 111.528 139.126C112.208 139.523 112.741 140.084 113.126 140.809C113.512 141.523 113.704 142.356 113.704 143.308C113.704 144.249 113.512 145.087 113.126 145.824C112.741 146.561 112.208 147.133 111.528 147.541C110.86 147.949 110.112 148.153 109.284 148.153C108.491 148.153 107.788 147.977 107.176 147.626C106.576 147.263 106.117 146.816 105.799 146.283V152.42H104.252V138.684H105.799V140.401ZM112.123 143.308C112.123 142.605 111.982 141.993 111.698 141.472C111.415 140.951 111.03 140.554 110.542 140.282C110.066 140.01 109.539 139.874 108.961 139.874C108.395 139.874 107.868 140.016 107.38 140.299C106.904 140.571 106.519 140.973 106.224 141.506C105.941 142.027 105.799 142.634 105.799 143.325C105.799 144.028 105.941 144.645 106.224 145.178C106.519 145.699 106.904 146.102 107.38 146.385C107.868 146.657 108.395 146.793 108.961 146.793C109.539 146.793 110.066 146.657 110.542 146.385C111.03 146.102 111.415 145.699 111.698 145.178C111.982 144.645 112.123 144.022 112.123 143.308Z"/>
<path d="M124.03 148.119C123.248 148.119 122.545 147.983 121.922 147.711C121.31 147.428 120.828 147.042 120.477 146.555C120.126 146.056 119.944 145.484 119.933 144.838H121.582C121.639 145.393 121.865 145.864 122.262 146.249C122.67 146.623 123.259 146.81 124.03 146.81C124.767 146.81 125.345 146.629 125.764 146.266C126.195 145.892 126.41 145.416 126.41 144.838C126.41 144.385 126.285 144.016 126.036 143.733C125.787 143.45 125.475 143.234 125.101 143.087C124.727 142.94 124.223 142.781 123.588 142.611C122.806 142.407 122.177 142.203 121.701 141.999C121.236 141.795 120.834 141.478 120.494 141.047C120.165 140.605 120.001 140.016 120.001 139.279C120.001 138.633 120.165 138.061 120.494 137.562C120.823 137.063 121.282 136.678 121.871 136.406C122.472 136.134 123.157 135.998 123.928 135.998C125.039 135.998 125.945 136.276 126.648 136.831C127.362 137.386 127.764 138.123 127.855 139.041H126.155C126.098 138.588 125.86 138.191 125.441 137.851C125.022 137.5 124.466 137.324 123.775 137.324C123.129 137.324 122.602 137.494 122.194 137.834C121.786 138.163 121.582 138.627 121.582 139.228C121.582 139.659 121.701 140.01 121.939 140.282C122.188 140.554 122.489 140.764 122.84 140.911C123.203 141.047 123.707 141.206 124.353 141.387C125.135 141.602 125.764 141.818 126.24 142.033C126.716 142.237 127.124 142.56 127.464 143.002C127.804 143.433 127.974 144.022 127.974 144.77C127.974 145.348 127.821 145.892 127.515 146.402C127.209 146.912 126.756 147.326 126.155 147.643C125.554 147.96 124.846 148.119 124.03 148.119Z"/>
<path d="M132.137 139.959V145.45C132.137 145.903 132.234 146.226 132.426 146.419C132.619 146.6 132.953 146.691 133.429 146.691H134.568V148H133.174C132.313 148 131.667 147.802 131.236 147.405C130.806 147.008 130.59 146.357 130.59 145.45V139.959H129.383V138.684H130.59V136.338H132.137V138.684H134.568V139.959H132.137Z"/>
<path d="M140.506 148.153C139.633 148.153 138.84 147.955 138.126 147.558C137.423 147.161 136.868 146.6 136.46 145.875C136.063 145.138 135.865 144.288 135.865 143.325C135.865 142.373 136.069 141.534 136.477 140.809C136.896 140.072 137.463 139.511 138.177 139.126C138.891 138.729 139.69 138.531 140.574 138.531C141.458 138.531 142.257 138.729 142.971 139.126C143.685 139.511 144.246 140.067 144.654 140.792C145.073 141.517 145.283 142.362 145.283 143.325C145.283 144.288 145.067 145.138 144.637 145.875C144.217 146.6 143.645 147.161 142.92 147.558C142.194 147.955 141.39 148.153 140.506 148.153ZM140.506 146.793C141.061 146.793 141.582 146.663 142.07 146.402C142.557 146.141 142.948 145.75 143.243 145.229C143.549 144.708 143.702 144.073 143.702 143.325C143.702 142.577 143.554 141.942 143.26 141.421C142.965 140.9 142.58 140.514 142.104 140.265C141.628 140.004 141.112 139.874 140.557 139.874C139.99 139.874 139.469 140.004 138.993 140.265C138.528 140.514 138.154 140.9 137.871 141.421C137.587 141.942 137.446 142.577 137.446 143.325C137.446 144.084 137.582 144.725 137.854 145.246C138.137 145.767 138.511 146.158 138.976 146.419C139.44 146.668 139.95 146.793 140.506 146.793Z"/>
<path d="M148.864 140.197C149.136 139.664 149.521 139.251 150.02 138.956C150.53 138.661 151.148 138.514 151.873 138.514V140.112H151.465C149.731 140.112 148.864 141.053 148.864 142.934V148H147.317V138.684H148.864V140.197Z"/>
<path d="M162.159 142.985C162.159 143.28 162.142 143.591 162.108 143.92H154.662C154.718 144.838 155.03 145.558 155.597 146.079C156.175 146.589 156.872 146.844 157.688 146.844C158.356 146.844 158.912 146.691 159.354 146.385C159.807 146.068 160.124 145.648 160.306 145.127H161.972C161.722 146.022 161.224 146.753 160.476 147.32C159.728 147.875 158.798 148.153 157.688 148.153C156.804 148.153 156.01 147.955 155.308 147.558C154.616 147.161 154.072 146.6 153.676 145.875C153.279 145.138 153.081 144.288 153.081 143.325C153.081 142.362 153.273 141.517 153.659 140.792C154.044 140.067 154.582 139.511 155.274 139.126C155.976 138.729 156.781 138.531 157.688 138.531C158.572 138.531 159.354 138.724 160.034 139.109C160.714 139.494 161.235 140.027 161.598 140.707C161.972 141.376 162.159 142.135 162.159 142.985ZM160.561 142.662C160.561 142.073 160.43 141.568 160.17 141.149C159.909 140.718 159.552 140.395 159.099 140.18C158.657 139.953 158.164 139.84 157.62 139.84C156.838 139.84 156.169 140.089 155.614 140.588C155.07 141.087 154.758 141.778 154.679 142.662H160.561Z"/>
<path d="M177.828 148L176.281 146.436C175.703 147.037 175.085 147.484 174.428 147.779C173.771 148.062 173.028 148.204 172.201 148.204C171.385 148.204 170.66 148.057 170.025 147.762C169.402 147.467 168.914 147.048 168.563 146.504C168.223 145.96 168.053 145.325 168.053 144.6C168.053 143.773 168.285 143.047 168.75 142.424C169.226 141.789 169.923 141.291 170.841 140.928C170.478 140.497 170.218 140.101 170.059 139.738C169.9 139.375 169.821 138.979 169.821 138.548C169.821 138.049 169.946 137.602 170.195 137.205C170.456 136.797 170.824 136.48 171.3 136.253C171.776 136.026 172.326 135.913 172.949 135.913C173.561 135.913 174.094 136.032 174.547 136.27C175 136.508 175.34 136.842 175.567 137.273C175.794 137.692 175.896 138.163 175.873 138.684H174.326C174.337 138.219 174.207 137.857 173.935 137.596C173.663 137.324 173.312 137.188 172.881 137.188C172.428 137.188 172.059 137.318 171.776 137.579C171.504 137.828 171.368 138.151 171.368 138.548C171.368 138.888 171.459 139.217 171.64 139.534C171.833 139.851 172.15 140.242 172.592 140.707L176.128 144.26L176.434 143.784L177.59 141.846H179.256L177.862 144.26C177.669 144.6 177.443 144.957 177.182 145.331L179.851 148H177.828ZM172.201 146.878C172.813 146.878 173.363 146.759 173.85 146.521C174.349 146.283 174.819 145.915 175.261 145.416L171.776 141.914C170.325 142.469 169.6 143.348 169.6 144.549C169.6 145.218 169.838 145.773 170.314 146.215C170.801 146.657 171.43 146.878 172.201 146.878Z"/>
<path d="M186.631 137.171C186.337 137.171 186.087 137.069 185.883 136.865C185.679 136.661 185.577 136.412 185.577 136.117C185.577 135.822 185.679 135.573 185.883 135.369C186.087 135.165 186.337 135.063 186.631 135.063C186.915 135.063 187.153 135.165 187.345 135.369C187.549 135.573 187.651 135.822 187.651 136.117C187.651 136.412 187.549 136.661 187.345 136.865C187.153 137.069 186.915 137.171 186.631 137.171ZM187.379 138.684V148H185.832V138.684H187.379Z"/>
<path d="M197.309 136.151V137.409H194.079V148H192.532V137.409H189.285V136.151H197.309Z"/>
<path d="M207.475 138.684V148H205.928V146.623C205.634 147.099 205.22 147.473 204.687 147.745C204.166 148.006 203.588 148.136 202.953 148.136C202.228 148.136 201.576 147.989 200.998 147.694C200.42 147.388 199.961 146.935 199.621 146.334C199.293 145.733 199.128 145.002 199.128 144.141V138.684H200.658V143.937C200.658 144.855 200.891 145.563 201.355 146.062C201.82 146.549 202.455 146.793 203.259 146.793C204.087 146.793 204.738 146.538 205.214 146.028C205.69 145.518 205.928 144.776 205.928 143.801V138.684H207.475Z"/>
<path d="M214.626 138.514C215.76 138.514 216.678 138.86 217.38 139.551C218.083 140.231 218.434 141.217 218.434 142.509V148H216.904V142.73C216.904 141.801 216.672 141.092 216.207 140.605C215.743 140.106 215.108 139.857 214.303 139.857C213.487 139.857 212.836 140.112 212.348 140.622C211.872 141.132 211.634 141.874 211.634 142.849V148H210.087V138.684H211.634V140.01C211.94 139.534 212.354 139.166 212.875 138.905C213.408 138.644 213.992 138.514 214.626 138.514Z"/>
<path d="M229.461 142.985C229.461 143.28 229.444 143.591 229.41 143.92H221.964C222.021 144.838 222.333 145.558 222.899 146.079C223.477 146.589 224.174 146.844 224.99 146.844C225.659 146.844 226.214 146.691 226.656 146.385C227.11 146.068 227.427 145.648 227.608 145.127H229.274C229.025 146.022 228.526 146.753 227.778 147.32C227.03 147.875 226.101 148.153 224.99 148.153C224.106 148.153 223.313 147.955 222.61 147.558C221.919 147.161 221.375 146.6 220.978 145.875C220.582 145.138 220.383 144.288 220.383 143.325C220.383 142.362 220.576 141.517 220.961 140.792C221.347 140.067 221.885 139.511 222.576 139.126C223.279 138.729 224.084 138.531 224.99 138.531C225.874 138.531 226.656 138.724 227.336 139.109C228.016 139.494 228.538 140.027 228.9 140.707C229.274 141.376 229.461 142.135 229.461 142.985ZM227.863 142.662C227.863 142.073 227.733 141.568 227.472 141.149C227.212 140.718 226.855 140.395 226.401 140.18C225.959 139.953 225.466 139.84 224.922 139.84C224.14 139.84 223.472 140.089 222.916 140.588C222.372 141.087 222.061 141.778 221.981 142.662H227.863Z"/>
<path d="M234.801 148.153C234.087 148.153 233.447 148.034 232.88 147.796C232.314 147.547 231.866 147.207 231.537 146.776C231.209 146.334 231.027 145.83 230.993 145.263H232.591C232.637 145.728 232.852 146.107 233.237 146.402C233.634 146.697 234.15 146.844 234.784 146.844C235.374 146.844 235.838 146.714 236.178 146.453C236.518 146.192 236.688 145.864 236.688 145.467C236.688 145.059 236.507 144.759 236.144 144.566C235.782 144.362 235.221 144.164 234.461 143.971C233.77 143.79 233.203 143.608 232.761 143.427C232.331 143.234 231.957 142.957 231.639 142.594C231.333 142.22 231.18 141.733 231.18 141.132C231.18 140.656 231.322 140.22 231.605 139.823C231.889 139.426 232.291 139.115 232.812 138.888C233.334 138.65 233.929 138.531 234.597 138.531C235.629 138.531 236.462 138.792 237.096 139.313C237.731 139.834 238.071 140.548 238.116 141.455H236.569C236.535 140.968 236.337 140.577 235.974 140.282C235.623 139.987 235.147 139.84 234.546 139.84C233.991 139.84 233.549 139.959 233.22 140.197C232.892 140.435 232.727 140.747 232.727 141.132C232.727 141.438 232.824 141.693 233.016 141.897C233.22 142.09 233.47 142.248 233.764 142.373C234.07 142.486 234.49 142.617 235.022 142.764C235.691 142.945 236.235 143.127 236.654 143.308C237.074 143.478 237.431 143.739 237.725 144.09C238.031 144.441 238.19 144.9 238.201 145.467C238.201 145.977 238.06 146.436 237.776 146.844C237.493 147.252 237.091 147.575 236.569 147.813C236.059 148.04 235.47 148.153 234.801 148.153Z"/>
</mask>
<path d="M88.313 145.365H83.145L82.193 148H80.561L84.845 136.219H86.63L90.897 148H89.265L88.313 145.365ZM87.871 144.107L85.729 138.123L83.587 144.107H87.871Z" fill="#FEFAF6"/>
<path d="M94.3111 140.401C94.6171 139.868 95.0704 139.426 95.6711 139.075C96.2831 138.712 96.9914 138.531 97.7961 138.531C98.6234 138.531 99.3714 138.729 100.04 139.126C100.72 139.523 101.253 140.084 101.638 140.809C102.023 141.523 102.216 142.356 102.216 143.308C102.216 144.249 102.023 145.087 101.638 145.824C101.253 146.561 100.72 147.133 100.04 147.541C99.3714 147.949 98.6234 148.153 97.7961 148.153C97.0028 148.153 96.3001 147.977 95.6881 147.626C95.0874 147.263 94.6284 146.816 94.3111 146.283V152.42H92.7641V138.684H94.3111V140.401ZM100.635 143.308C100.635 142.605 100.493 141.993 100.21 141.472C99.9268 140.951 99.5414 140.554 99.0541 140.282C98.5781 140.01 98.0511 139.874 97.4731 139.874C96.9064 139.874 96.3794 140.016 95.8921 140.299C95.4161 140.571 95.0308 140.973 94.7361 141.506C94.4528 142.027 94.3111 142.634 94.3111 143.325C94.3111 144.028 94.4528 144.645 94.7361 145.178C95.0308 145.699 95.4161 146.102 95.8921 146.385C96.3794 146.657 96.9064 146.793 97.4731 146.793C98.0511 146.793 98.5781 146.657 99.0541 146.385C99.5414 146.102 99.9268 145.699 100.21 145.178C100.493 144.645 100.635 144.022 100.635 143.308Z" fill="#FEFAF6"/>
<path d="M105.799 140.401C106.105 139.868 106.559 139.426 107.159 139.075C107.771 138.712 108.48 138.531 109.284 138.531C110.112 138.531 110.86 138.729 111.528 139.126C112.208 139.523 112.741 140.084 113.126 140.809C113.512 141.523 113.704 142.356 113.704 143.308C113.704 144.249 113.512 145.087 113.126 145.824C112.741 146.561 112.208 147.133 111.528 147.541C110.86 147.949 110.112 148.153 109.284 148.153C108.491 148.153 107.788 147.977 107.176 147.626C106.576 147.263 106.117 146.816 105.799 146.283V152.42H104.252V138.684H105.799V140.401ZM112.123 143.308C112.123 142.605 111.982 141.993 111.698 141.472C111.415 140.951 111.03 140.554 110.542 140.282C110.066 140.01 109.539 139.874 108.961 139.874C108.395 139.874 107.868 140.016 107.38 140.299C106.904 140.571 106.519 140.973 106.224 141.506C105.941 142.027 105.799 142.634 105.799 143.325C105.799 144.028 105.941 144.645 106.224 145.178C106.519 145.699 106.904 146.102 107.38 146.385C107.868 146.657 108.395 146.793 108.961 146.793C109.539 146.793 110.066 146.657 110.542 146.385C111.03 146.102 111.415 145.699 111.698 145.178C111.982 144.645 112.123 144.022 112.123 143.308Z" fill="#FEFAF6"/>
<path d="M124.03 148.119C123.248 148.119 122.545 147.983 121.922 147.711C121.31 147.428 120.828 147.042 120.477 146.555C120.126 146.056 119.944 145.484 119.933 144.838H121.582C121.639 145.393 121.865 145.864 122.262 146.249C122.67 146.623 123.259 146.81 124.03 146.81C124.767 146.81 125.345 146.629 125.764 146.266C126.195 145.892 126.41 145.416 126.41 144.838C126.41 144.385 126.285 144.016 126.036 143.733C125.787 143.45 125.475 143.234 125.101 143.087C124.727 142.94 124.223 142.781 123.588 142.611C122.806 142.407 122.177 142.203 121.701 141.999C121.236 141.795 120.834 141.478 120.494 141.047C120.165 140.605 120.001 140.016 120.001 139.279C120.001 138.633 120.165 138.061 120.494 137.562C120.823 137.063 121.282 136.678 121.871 136.406C122.472 136.134 123.157 135.998 123.928 135.998C125.039 135.998 125.945 136.276 126.648 136.831C127.362 137.386 127.764 138.123 127.855 139.041H126.155C126.098 138.588 125.86 138.191 125.441 137.851C125.022 137.5 124.466 137.324 123.775 137.324C123.129 137.324 122.602 137.494 122.194 137.834C121.786 138.163 121.582 138.627 121.582 139.228C121.582 139.659 121.701 140.01 121.939 140.282C122.188 140.554 122.489 140.764 122.84 140.911C123.203 141.047 123.707 141.206 124.353 141.387C125.135 141.602 125.764 141.818 126.24 142.033C126.716 142.237 127.124 142.56 127.464 143.002C127.804 143.433 127.974 144.022 127.974 144.77C127.974 145.348 127.821 145.892 127.515 146.402C127.209 146.912 126.756 147.326 126.155 147.643C125.554 147.96 124.846 148.119 124.03 148.119Z" fill="#FEFAF6"/>
<path d="M132.137 139.959V145.45C132.137 145.903 132.234 146.226 132.426 146.419C132.619 146.6 132.953 146.691 133.429 146.691H134.568V148H133.174C132.313 148 131.667 147.802 131.236 147.405C130.806 147.008 130.59 146.357 130.59 145.45V139.959H129.383V138.684H130.59V136.338H132.137V138.684H134.568V139.959H132.137Z" fill="#FEFAF6"/>
<path d="M140.506 148.153C139.633 148.153 138.84 147.955 138.126 147.558C137.423 147.161 136.868 146.6 136.46 145.875C136.063 145.138 135.865 144.288 135.865 143.325C135.865 142.373 136.069 141.534 136.477 140.809C136.896 140.072 137.463 139.511 138.177 139.126C138.891 138.729 139.69 138.531 140.574 138.531C141.458 138.531 142.257 138.729 142.971 139.126C143.685 139.511 144.246 140.067 144.654 140.792C145.073 141.517 145.283 142.362 145.283 143.325C145.283 144.288 145.067 145.138 144.637 145.875C144.217 146.6 143.645 147.161 142.92 147.558C142.194 147.955 141.39 148.153 140.506 148.153ZM140.506 146.793C141.061 146.793 141.582 146.663 142.07 146.402C142.557 146.141 142.948 145.75 143.243 145.229C143.549 144.708 143.702 144.073 143.702 143.325C143.702 142.577 143.554 141.942 143.26 141.421C142.965 140.9 142.58 140.514 142.104 140.265C141.628 140.004 141.112 139.874 140.557 139.874C139.99 139.874 139.469 140.004 138.993 140.265C138.528 140.514 138.154 140.9 137.871 141.421C137.587 141.942 137.446 142.577 137.446 143.325C137.446 144.084 137.582 144.725 137.854 145.246C138.137 145.767 138.511 146.158 138.976 146.419C139.44 146.668 139.95 146.793 140.506 146.793Z" fill="#FEFAF6"/>
<path d="M148.864 140.197C149.136 139.664 149.521 139.251 150.02 138.956C150.53 138.661 151.148 138.514 151.873 138.514V140.112H151.465C149.731 140.112 148.864 141.053 148.864 142.934V148H147.317V138.684H148.864V140.197Z" fill="#FEFAF6"/>
<path d="M162.159 142.985C162.159 143.28 162.142 143.591 162.108 143.92H154.662C154.718 144.838 155.03 145.558 155.597 146.079C156.175 146.589 156.872 146.844 157.688 146.844C158.356 146.844 158.912 146.691 159.354 146.385C159.807 146.068 160.124 145.648 160.306 145.127H161.972C161.722 146.022 161.224 146.753 160.476 147.32C159.728 147.875 158.798 148.153 157.688 148.153C156.804 148.153 156.01 147.955 155.308 147.558C154.616 147.161 154.072 146.6 153.676 145.875C153.279 145.138 153.081 144.288 153.081 143.325C153.081 142.362 153.273 141.517 153.659 140.792C154.044 140.067 154.582 139.511 155.274 139.126C155.976 138.729 156.781 138.531 157.688 138.531C158.572 138.531 159.354 138.724 160.034 139.109C160.714 139.494 161.235 140.027 161.598 140.707C161.972 141.376 162.159 142.135 162.159 142.985ZM160.561 142.662C160.561 142.073 160.43 141.568 160.17 141.149C159.909 140.718 159.552 140.395 159.099 140.18C158.657 139.953 158.164 139.84 157.62 139.84C156.838 139.84 156.169 140.089 155.614 140.588C155.07 141.087 154.758 141.778 154.679 142.662H160.561Z" fill="#FEFAF6"/>
<path d="M177.828 148L176.281 146.436C175.703 147.037 175.085 147.484 174.428 147.779C173.771 148.062 173.028 148.204 172.201 148.204C171.385 148.204 170.66 148.057 170.025 147.762C169.402 147.467 168.914 147.048 168.563 146.504C168.223 145.96 168.053 145.325 168.053 144.6C168.053 143.773 168.285 143.047 168.75 142.424C169.226 141.789 169.923 141.291 170.841 140.928C170.478 140.497 170.218 140.101 170.059 139.738C169.9 139.375 169.821 138.979 169.821 138.548C169.821 138.049 169.946 137.602 170.195 137.205C170.456 136.797 170.824 136.48 171.3 136.253C171.776 136.026 172.326 135.913 172.949 135.913C173.561 135.913 174.094 136.032 174.547 136.27C175 136.508 175.34 136.842 175.567 137.273C175.794 137.692 175.896 138.163 175.873 138.684H174.326C174.337 138.219 174.207 137.857 173.935 137.596C173.663 137.324 173.312 137.188 172.881 137.188C172.428 137.188 172.059 137.318 171.776 137.579C171.504 137.828 171.368 138.151 171.368 138.548C171.368 138.888 171.459 139.217 171.64 139.534C171.833 139.851 172.15 140.242 172.592 140.707L176.128 144.26L176.434 143.784L177.59 141.846H179.256L177.862 144.26C177.669 144.6 177.443 144.957 177.182 145.331L179.851 148H177.828ZM172.201 146.878C172.813 146.878 173.363 146.759 173.85 146.521C174.349 146.283 174.819 145.915 175.261 145.416L171.776 141.914C170.325 142.469 169.6 143.348 169.6 144.549C169.6 145.218 169.838 145.773 170.314 146.215C170.801 146.657 171.43 146.878 172.201 146.878Z" fill="#FEFAF6"/>
<path d="M186.631 137.171C186.337 137.171 186.087 137.069 185.883 136.865C185.679 136.661 185.577 136.412 185.577 136.117C185.577 135.822 185.679 135.573 185.883 135.369C186.087 135.165 186.337 135.063 186.631 135.063C186.915 135.063 187.153 135.165 187.345 135.369C187.549 135.573 187.651 135.822 187.651 136.117C187.651 136.412 187.549 136.661 187.345 136.865C187.153 137.069 186.915 137.171 186.631 137.171ZM187.379 138.684V148H185.832V138.684H187.379Z" fill="#FEFAF6"/>
<path d="M197.309 136.151V137.409H194.079V148H192.532V137.409H189.285V136.151H197.309Z" fill="#FEFAF6"/>
<path d="M207.475 138.684V148H205.928V146.623C205.634 147.099 205.22 147.473 204.687 147.745C204.166 148.006 203.588 148.136 202.953 148.136C202.228 148.136 201.576 147.989 200.998 147.694C200.42 147.388 199.961 146.935 199.621 146.334C199.293 145.733 199.128 145.002 199.128 144.141V138.684H200.658V143.937C200.658 144.855 200.891 145.563 201.355 146.062C201.82 146.549 202.455 146.793 203.259 146.793C204.087 146.793 204.738 146.538 205.214 146.028C205.69 145.518 205.928 144.776 205.928 143.801V138.684H207.475Z" fill="#FEFAF6"/>
<path d="M214.626 138.514C215.76 138.514 216.678 138.86 217.38 139.551C218.083 140.231 218.434 141.217 218.434 142.509V148H216.904V142.73C216.904 141.801 216.672 141.092 216.207 140.605C215.743 140.106 215.108 139.857 214.303 139.857C213.487 139.857 212.836 140.112 212.348 140.622C211.872 141.132 211.634 141.874 211.634 142.849V148H210.087V138.684H211.634V140.01C211.94 139.534 212.354 139.166 212.875 138.905C213.408 138.644 213.992 138.514 214.626 138.514Z" fill="#FEFAF6"/>
<path d="M229.461 142.985C229.461 143.28 229.444 143.591 229.41 143.92H221.964C222.021 144.838 222.333 145.558 222.899 146.079C223.477 146.589 224.174 146.844 224.99 146.844C225.659 146.844 226.214 146.691 226.656 146.385C227.11 146.068 227.427 145.648 227.608 145.127H229.274C229.025 146.022 228.526 146.753 227.778 147.32C227.03 147.875 226.101 148.153 224.99 148.153C224.106 148.153 223.313 147.955 222.61 147.558C221.919 147.161 221.375 146.6 220.978 145.875C220.582 145.138 220.383 144.288 220.383 143.325C220.383 142.362 220.576 141.517 220.961 140.792C221.347 140.067 221.885 139.511 222.576 139.126C223.279 138.729 224.084 138.531 224.99 138.531C225.874 138.531 226.656 138.724 227.336 139.109C228.016 139.494 228.538 140.027 228.9 140.707C229.274 141.376 229.461 142.135 229.461 142.985ZM227.863 142.662C227.863 142.073 227.733 141.568 227.472 141.149C227.212 140.718 226.855 140.395 226.401 140.18C225.959 139.953 225.466 139.84 224.922 139.84C224.14 139.84 223.472 140.089 222.916 140.588C222.372 141.087 222.061 141.778 221.981 142.662H227.863Z" fill="#FEFAF6"/>
<path d="M234.801 148.153C234.087 148.153 233.447 148.034 232.88 147.796C232.314 147.547 231.866 147.207 231.537 146.776C231.209 146.334 231.027 145.83 230.993 145.263H232.591C232.637 145.728 232.852 146.107 233.237 146.402C233.634 146.697 234.15 146.844 234.784 146.844C235.374 146.844 235.838 146.714 236.178 146.453C236.518 146.192 236.688 145.864 236.688 145.467C236.688 145.059 236.507 144.759 236.144 144.566C235.782 144.362 235.221 144.164 234.461 143.971C233.77 143.79 233.203 143.608 232.761 143.427C232.331 143.234 231.957 142.957 231.639 142.594C231.333 142.22 231.18 141.733 231.18 141.132C231.18 140.656 231.322 140.22 231.605 139.823C231.889 139.426 232.291 139.115 232.812 138.888C233.334 138.65 233.929 138.531 234.597 138.531C235.629 138.531 236.462 138.792 237.096 139.313C237.731 139.834 238.071 140.548 238.116 141.455H236.569C236.535 140.968 236.337 140.577 235.974 140.282C235.623 139.987 235.147 139.84 234.546 139.84C233.991 139.84 233.549 139.959 233.22 140.197C232.892 140.435 232.727 140.747 232.727 141.132C232.727 141.438 232.824 141.693 233.016 141.897C233.22 142.09 233.47 142.248 233.764 142.373C234.07 142.486 234.49 142.617 235.022 142.764C235.691 142.945 236.235 143.127 236.654 143.308C237.074 143.478 237.431 143.739 237.725 144.09C238.031 144.441 238.19 144.9 238.201 145.467C238.201 145.977 238.06 146.436 237.776 146.844C237.493 147.252 237.091 147.575 236.569 147.813C236.059 148.04 235.47 148.153 234.801 148.153Z" fill="#FEFAF6"/>
<path d="M88.313 145.365H83.145L82.193 148H80.561L84.845 136.219H86.63L90.897 148H89.265L88.313 145.365ZM87.871 144.107L85.729 138.123L83.587 144.107H87.871Z" stroke="white" stroke-width="0.4" mask="url(#path-6-outside-1_32_337)"/>
<path d="M94.3111 140.401C94.6171 139.868 95.0704 139.426 95.6711 139.075C96.2831 138.712 96.9914 138.531 97.7961 138.531C98.6234 138.531 99.3714 138.729 100.04 139.126C100.72 139.523 101.253 140.084 101.638 140.809C102.023 141.523 102.216 142.356 102.216 143.308C102.216 144.249 102.023 145.087 101.638 145.824C101.253 146.561 100.72 147.133 100.04 147.541C99.3714 147.949 98.6234 148.153 97.7961 148.153C97.0028 148.153 96.3001 147.977 95.6881 147.626C95.0874 147.263 94.6284 146.816 94.3111 146.283V152.42H92.7641V138.684H94.3111V140.401ZM100.635 143.308C100.635 142.605 100.493 141.993 100.21 141.472C99.9268 140.951 99.5414 140.554 99.0541 140.282C98.5781 140.01 98.0511 139.874 97.4731 139.874C96.9064 139.874 96.3794 140.016 95.8921 140.299C95.4161 140.571 95.0308 140.973 94.7361 141.506C94.4528 142.027 94.3111 142.634 94.3111 143.325C94.3111 144.028 94.4528 144.645 94.7361 145.178C95.0308 145.699 95.4161 146.102 95.8921 146.385C96.3794 146.657 96.9064 146.793 97.4731 146.793C98.0511 146.793 98.5781 146.657 99.0541 146.385C99.5414 146.102 99.9268 145.699 100.21 145.178C100.493 144.645 100.635 144.022 100.635 143.308Z" stroke="white" stroke-width="0.4" mask="url(#path-6-outside-1_32_337)"/>
<path d="M105.799 140.401C106.105 139.868 106.559 139.426 107.159 139.075C107.771 138.712 108.48 138.531 109.284 138.531C110.112 138.531 110.86 138.729 111.528 139.126C112.208 139.523 112.741 140.084 113.126 140.809C113.512 141.523 113.704 142.356 113.704 143.308C113.704 144.249 113.512 145.087 113.126 145.824C112.741 146.561 112.208 147.133 111.528 147.541C110.86 147.949 110.112 148.153 109.284 148.153C108.491 148.153 107.788 147.977 107.176 147.626C106.576 147.263 106.117 146.816 105.799 146.283V152.42H104.252V138.684H105.799V140.401ZM112.123 143.308C112.123 142.605 111.982 141.993 111.698 141.472C111.415 140.951 111.03 140.554 110.542 140.282C110.066 140.01 109.539 139.874 108.961 139.874C108.395 139.874 107.868 140.016 107.38 140.299C106.904 140.571 106.519 140.973 106.224 141.506C105.941 142.027 105.799 142.634 105.799 143.325C105.799 144.028 105.941 144.645 106.224 145.178C106.519 145.699 106.904 146.102 107.38 146.385C107.868 146.657 108.395 146.793 108.961 146.793C109.539 146.793 110.066 146.657 110.542 146.385C111.03 146.102 111.415 145.699 111.698 145.178C111.982 144.645 112.123 144.022 112.123 143.308Z" stroke="white" stroke-width="0.4" mask="url(#path-6-outside-1_32_337)"/>
<path d="M124.03 148.119C123.248 148.119 122.545 147.983 121.922 147.711C121.31 147.428 120.828 147.042 120.477 146.555C120.126 146.056 119.944 145.484 119.933 144.838H121.582C121.639 145.393 121.865 145.864 122.262 146.249C122.67 146.623 123.259 146.81 124.03 146.81C124.767 146.81 125.345 146.629 125.764 146.266C126.195 145.892 126.41 145.416 126.41 144.838C126.41 144.385 126.285 144.016 126.036 143.733C125.787 143.45 125.475 143.234 125.101 143.087C124.727 142.94 124.223 142.781 123.588 142.611C122.806 142.407 122.177 142.203 121.701 141.999C121.236 141.795 120.834 141.478 120.494 141.047C120.165 140.605 120.001 140.016 120.001 139.279C120.001 138.633 120.165 138.061 120.494 137.562C120.823 137.063 121.282 136.678 121.871 136.406C122.472 136.134 123.157 135.998 123.928 135.998C125.039 135.998 125.945 136.276 126.648 136.831C127.362 137.386 127.764 138.123 127.855 139.041H126.155C126.098 138.588 125.86 138.191 125.441 137.851C125.022 137.5 124.466 137.324 123.775 137.324C123.129 137.324 122.602 137.494 122.194 137.834C121.786 138.163 121.582 138.627 121.582 139.228C121.582 139.659 121.701 140.01 121.939 140.282C122.188 140.554 122.489 140.764 122.84 140.911C123.203 141.047 123.707 141.206 124.353 141.387C125.135 141.602 125.764 141.818 126.24 142.033C126.716 142.237 127.124 142.56 127.464 143.002C127.804 143.433 127.974 144.022 127.974 144.77C127.974 145.348 127.821 145.892 127.515 146.402C127.209 146.912 126.756 147.326 126.155 147.643C125.554 147.96 124.846 148.119 124.03 148.119Z" stroke="white" stroke-width="0.4" mask="url(#path-6-outside-1_32_337)"/>
<path d="M132.137 139.959V145.45C132.137 145.903 132.234 146.226 132.426 146.419C132.619 146.6 132.953 146.691 133.429 146.691H134.568V148H133.174C132.313 148 131.667 147.802 131.236 147.405C130.806 147.008 130.59 146.357 130.59 145.45V139.959H129.383V138.684H130.59V136.338H132.137V138.684H134.568V139.959H132.137Z" stroke="white" stroke-width="0.4" mask="url(#path-6-outside-1_32_337)"/>
<path d="M140.506 148.153C139.633 148.153 138.84 147.955 138.126 147.558C137.423 147.161 136.868 146.6 136.46 145.875C136.063 145.138 135.865 144.288 135.865 143.325C135.865 142.373 136.069 141.534 136.477 140.809C136.896 140.072 137.463 139.511 138.177 139.126C138.891 138.729 139.69 138.531 140.574 138.531C141.458 138.531 142.257 138.729 142.971 139.126C143.685 139.511 144.246 140.067 144.654 140.792C145.073 141.517 145.283 142.362 145.283 143.325C145.283 144.288 145.067 145.138 144.637 145.875C144.217 146.6 143.645 147.161 142.92 147.558C142.194 147.955 141.39 148.153 140.506 148.153ZM140.506 146.793C141.061 146.793 141.582 146.663 142.07 146.402C142.557 146.141 142.948 145.75 143.243 145.229C143.549 144.708 143.702 144.073 143.702 143.325C143.702 142.577 143.554 141.942 143.26 141.421C142.965 140.9 142.58 140.514 142.104 140.265C141.628 140.004 141.112 139.874 140.557 139.874C139.99 139.874 139.469 140.004 138.993 140.265C138.528 140.514 138.154 140.9 137.871 141.421C137.587 141.942 137.446 142.577 137.446 143.325C137.446 144.084 137.582 144.725 137.854 145.246C138.137 145.767 138.511 146.158 138.976 146.419C139.44 146.668 139.95 146.793 140.506 146.793Z" stroke="white" stroke-width="0.4" mask="url(#path-6-outside-1_32_337)"/>
<path d="M148.864 140.197C149.136 139.664 149.521 139.251 150.02 138.956C150.53 138.661 151.148 138.514 151.873 138.514V140.112H151.465C149.731 140.112 148.864 141.053 148.864 142.934V148H147.317V138.684H148.864V140.197Z" stroke="white" stroke-width="0.4" mask="url(#path-6-outside-1_32_337)"/>
<path d="M162.159 142.985C162.159 143.28 162.142 143.591 162.108 143.92H154.662C154.718 144.838 155.03 145.558 155.597 146.079C156.175 146.589 156.872 146.844 157.688 146.844C158.356 146.844 158.912 146.691 159.354 146.385C159.807 146.068 160.124 145.648 160.306 145.127H161.972C161.722 146.022 161.224 146.753 160.476 147.32C159.728 147.875 158.798 148.153 157.688 148.153C156.804 148.153 156.01 147.955 155.308 147.558C154.616 147.161 154.072 146.6 153.676 145.875C153.279 145.138 153.081 144.288 153.081 143.325C153.081 142.362 153.273 141.517 153.659 140.792C154.044 140.067 154.582 139.511 155.274 139.126C155.976 138.729 156.781 138.531 157.688 138.531C158.572 138.531 159.354 138.724 160.034 139.109C160.714 139.494 161.235 140.027 161.598 140.707C161.972 141.376 162.159 142.135 162.159 142.985ZM160.561 142.662C160.561 142.073 160.43 141.568 160.17 141.149C159.909 140.718 159.552 140.395 159.099 140.18C158.657 139.953 158.164 139.84 157.62 139.84C156.838 139.84 156.169 140.089 155.614 140.588C155.07 141.087 154.758 141.778 154.679 142.662H160.561Z" stroke="white" stroke-width="0.4" mask="url(#path-6-outside-1_32_337)"/>
<path d="M177.828 148L176.281 146.436C175.703 147.037 175.085 147.484 174.428 147.779C173.771 148.062 173.028 148.204 172.201 148.204C171.385 148.204 170.66 148.057 170.025 147.762C169.402 147.467 168.914 147.048 168.563 146.504C168.223 145.96 168.053 145.325 168.053 144.6C168.053 143.773 168.285 143.047 168.75 142.424C169.226 141.789 169.923 141.291 170.841 140.928C170.478 140.497 170.218 140.101 170.059 139.738C169.9 139.375 169.821 138.979 169.821 138.548C169.821 138.049 169.946 137.602 170.195 137.205C170.456 136.797 170.824 136.48 171.3 136.253C171.776 136.026 172.326 135.913 172.949 135.913C173.561 135.913 174.094 136.032 174.547 136.27C175 136.508 175.34 136.842 175.567 137.273C175.794 137.692 175.896 138.163 175.873 138.684H174.326C174.337 138.219 174.207 137.857 173.935 137.596C173.663 137.324 173.312 137.188 172.881 137.188C172.428 137.188 172.059 137.318 171.776 137.579C171.504 137.828 171.368 138.151 171.368 138.548C171.368 138.888 171.459 139.217 171.64 139.534C171.833 139.851 172.15 140.242 172.592 140.707L176.128 144.26L176.434 143.784L177.59 141.846H179.256L177.862 144.26C177.669 144.6 177.443 144.957 177.182 145.331L179.851 148H177.828ZM172.201 146.878C172.813 146.878 173.363 146.759 173.85 146.521C174.349 146.283 174.819 145.915 175.261 145.416L171.776 141.914C170.325 142.469 169.6 143.348 169.6 144.549C169.6 145.218 169.838 145.773 170.314 146.215C170.801 146.657 171.43 146.878 172.201 146.878Z" stroke="white" stroke-width="0.4" mask="url(#path-6-outside-1_32_337)"/>
<path d="M186.631 137.171C186.337 137.171 186.087 137.069 185.883 136.865C185.679 136.661 185.577 136.412 185.577 136.117C185.577 135.822 185.679 135.573 185.883 135.369C186.087 135.165 186.337 135.063 186.631 135.063C186.915 135.063 187.153 135.165 187.345 135.369C187.549 135.573 187.651 135.822 187.651 136.117C187.651 136.412 187.549 136.661 187.345 136.865C187.153 137.069 186.915 137.171 186.631 137.171ZM187.379 138.684V148H185.832V138.684H187.379Z" stroke="white" stroke-width="0.4" mask="url(#path-6-outside-1_32_337)"/>
<path d="M197.309 136.151V137.409H194.079V148H192.532V137.409H189.285V136.151H197.309Z" stroke="white" stroke-width="0.4" mask="url(#path-6-outside-1_32_337)"/>
<path d="M207.475 138.684V148H205.928V146.623C205.634 147.099 205.22 147.473 204.687 147.745C204.166 148.006 203.588 148.136 202.953 148.136C202.228 148.136 201.576 147.989 200.998 147.694C200.42 147.388 199.961 146.935 199.621 146.334C199.293 145.733 199.128 145.002 199.128 144.141V138.684H200.658V143.937C200.658 144.855 200.891 145.563 201.355 146.062C201.82 146.549 202.455 146.793 203.259 146.793C204.087 146.793 204.738 146.538 205.214 146.028C205.69 145.518 205.928 144.776 205.928 143.801V138.684H207.475Z" stroke="white" stroke-width="0.4" mask="url(#path-6-outside-1_32_337)"/>
<path d="M214.626 138.514C215.76 138.514 216.678 138.86 217.38 139.551C218.083 140.231 218.434 141.217 218.434 142.509V148H216.904V142.73C216.904 141.801 216.672 141.092 216.207 140.605C215.743 140.106 215.108 139.857 214.303 139.857C213.487 139.857 212.836 140.112 212.348 140.622C211.872 141.132 211.634 141.874 211.634 142.849V148H210.087V138.684H211.634V140.01C211.94 139.534 212.354 139.166 212.875 138.905C213.408 138.644 213.992 138.514 214.626 138.514Z" stroke="white" stroke-width="0.4" mask="url(#path-6-outside-1_32_337)"/>
<path d="M229.461 142.985C229.461 143.28 229.444 143.591 229.41 143.92H221.964C222.021 144.838 222.333 145.558 222.899 146.079C223.477 146.589 224.174 146.844 224.99 146.844C225.659 146.844 226.214 146.691 226.656 146.385C227.11 146.068 227.427 145.648 227.608 145.127H229.274C229.025 146.022 228.526 146.753 227.778 147.32C227.03 147.875 226.101 148.153 224.99 148.153C224.106 148.153 223.313 147.955 222.61 147.558C221.919 147.161 221.375 146.6 220.978 145.875C220.582 145.138 220.383 144.288 220.383 143.325C220.383 142.362 220.576 141.517 220.961 140.792C221.347 140.067 221.885 139.511 222.576 139.126C223.279 138.729 224.084 138.531 224.99 138.531C225.874 138.531 226.656 138.724 227.336 139.109C228.016 139.494 228.538 140.027 228.9 140.707C229.274 141.376 229.461 142.135 229.461 142.985ZM227.863 142.662C227.863 142.073 227.733 141.568 227.472 141.149C227.212 140.718 226.855 140.395 226.401 140.18C225.959 139.953 225.466 139.84 224.922 139.84C224.14 139.84 223.472 140.089 222.916 140.588C222.372 141.087 222.061 141.778 221.981 142.662H227.863Z" stroke="white" stroke-width="0.4" mask="url(#path-6-outside-1_32_337)"/>
<path d="M234.801 148.153C234.087 148.153 233.447 148.034 232.88 147.796C232.314 147.547 231.866 147.207 231.537 146.776C231.209 146.334 231.027 145.83 230.993 145.263H232.591C232.637 145.728 232.852 146.107 233.237 146.402C233.634 146.697 234.15 146.844 234.784 146.844C235.374 146.844 235.838 146.714 236.178 146.453C236.518 146.192 236.688 145.864 236.688 145.467C236.688 145.059 236.507 144.759 236.144 144.566C235.782 144.362 235.221 144.164 234.461 143.971C233.77 143.79 233.203 143.608 232.761 143.427C232.331 143.234 231.957 142.957 231.639 142.594C231.333 142.22 231.18 141.733 231.18 141.132C231.18 140.656 231.322 140.22 231.605 139.823C231.889 139.426 232.291 139.115 232.812 138.888C233.334 138.65 233.929 138.531 234.597 138.531C235.629 138.531 236.462 138.792 237.096 139.313C237.731 139.834 238.071 140.548 238.116 141.455H236.569C236.535 140.968 236.337 140.577 235.974 140.282C235.623 139.987 235.147 139.84 234.546 139.84C233.991 139.84 233.549 139.959 233.22 140.197C232.892 140.435 232.727 140.747 232.727 141.132C232.727 141.438 232.824 141.693 233.016 141.897C233.22 142.09 233.47 142.248 233.764 142.373C234.07 142.486 234.49 142.617 235.022 142.764C235.691 142.945 236.235 143.127 236.654 143.308C237.074 143.478 237.431 143.739 237.725 144.09C238.031 144.441 238.19 144.9 238.201 145.467C238.201 145.977 238.06 146.436 237.776 146.844C237.493 147.252 237.091 147.575 236.569 147.813C236.059 148.04 235.47 148.153 234.801 148.153Z" stroke="white" stroke-width="0.4" mask="url(#path-6-outside-1_32_337)"/>
<defs>
<linearGradient id="paint0_linear_32_337" x1="189.037" y1="-48.3926" x2="307.954" y2="229.523" gradientUnits="userSpaceOnUse">
<stop stop-color="#00E0FF"/>
<stop offset="1" stop-color="#0047FF"/>
</linearGradient>
<clipPath id="clip0_32_337">
<rect width="70" height="69" fill="white" transform="translate(124 50)"/>
</clipPath>
<clipPath id="clip1_32_337">
<rect width="17" height="17" fill="white" transform="translate(288.625 13.1724)"/>
</clipPath>
</defs>
</svg>
