<svg width="319" height="200" viewBox="0 0 319 200" fill="none" xmlns="http://www.w3.org/2000/svg">
<path d="M0 10C0 4.47715 4.47715 0 10 0H309C314.523 0 319 4.47715 319 10V189.62C319 195.142 314.523 199.62 309 199.62H10C4.47716 199.62 0 195.142 0 189.62V10Z" fill="url(#paint0_radial_32_279)"/>
<path d="M111.71 102.686C111.898 103.12 111.935 103.614 111.835 104.173C111.71 104.836 111.419 105.352 110.966 105.764C110.506 106.165 110.002 106.39 109.449 106.441C108.893 106.493 108.212 106.441 107.41 106.298L106.032 106.033C105.572 105.955 105.3 105.867 105.197 105.804C105.104 105.738 105.046 105.639 105.023 105.502C105.012 105.41 105.057 105.05 105.149 104.483L105.911 100.399L108.36 100.852C109.435 101.054 110.208 101.294 110.694 101.588C111.18 101.876 111.519 102.247 111.71 102.686ZM111.839 94.0731C111.405 93.8448 110.58 93.6054 109.365 93.3808L107.295 92.9942L106.434 97.5969L108.507 97.9872C109.586 98.186 110.41 98.2376 110.963 98.1529C111.515 98.0793 111.95 97.8767 112.285 97.5601C112.609 97.2508 112.822 96.8531 112.911 96.3671C113.006 95.87 112.962 95.4244 112.774 95.0304C112.598 94.6364 112.288 94.3271 111.839 94.0731ZM130.191 99.8099C130.191 111.898 120.389 121.7 108.297 121.7C96.2084 121.7 86.4102 111.898 86.4102 99.8099C86.4102 87.7177 96.2084 77.9194 108.297 77.9194C120.389 77.9158 130.191 87.714 130.191 99.8099ZM117.307 94.0252C116.932 93.2151 116.309 92.5376 115.451 91.9669C115.12 91.7386 114.704 91.5545 114.247 91.374L114.873 88.0491L111.677 87.4525L111.095 90.564L109.037 90.1773L109.622 87.0733L106.423 86.4694L105.837 89.5882L100.955 88.6603L100.469 91.2709L101.216 91.4219C101.713 91.4992 102.045 91.6171 102.199 91.7459C102.361 91.8601 102.457 92.0037 102.501 92.1731C102.545 92.3424 102.516 92.7107 102.413 93.263L100.443 103.798C100.343 104.343 100.24 104.689 100.137 104.832C100.034 104.976 99.8905 105.075 99.6954 105.127C99.5002 105.193 99.1615 105.164 98.6681 105.068L97.9169 104.932L97.4309 107.542L102.306 108.456L101.732 111.571L104.928 112.167L105.506 109.059L107.325 109.398C107.406 109.413 107.479 109.413 107.56 109.435L106.982 112.55L110.175 113.147L110.812 109.774C111.36 109.766 111.858 109.722 112.296 109.645C113.478 109.417 114.457 108.927 115.219 108.187C115.978 107.469 116.457 106.603 116.644 105.598C116.803 104.755 116.744 103.96 116.475 103.212C116.206 102.45 115.764 101.824 115.16 101.312C114.744 100.951 114.111 100.579 113.272 100.189C114.144 100.06 114.877 99.8283 115.459 99.4969C116.04 99.1655 116.523 98.7347 116.891 98.2302C117.263 97.7074 117.51 97.1403 117.624 96.5217C117.778 95.6785 117.683 94.8353 117.307 94.0252ZM136.683 82.5995L133.383 99.0919C133.185 100.057 133.019 101.054 133.019 102.056C133.019 104.954 134.952 106.622 138.815 106.622C146.142 106.622 149.607 100.561 149.607 95.2661C149.607 92.3609 148.079 89.5919 144.677 89.5919C142.681 89.5919 140.851 90.4609 139.65 91.8932H139.581L141.51 82.6105L136.683 82.5995ZM138.446 98.0498C139.013 95.2109 140.711 93.4545 142.445 93.4545C143.907 93.4545 144.57 94.6843 144.57 96.2566C144.57 99.1139 142.578 102.977 139.813 102.977C138.708 102.977 138.012 102.343 137.979 101.183C137.946 100.487 138.078 99.924 138.148 99.3938L138.446 98.0498ZM155.712 106.246L158.809 89.9564H154.015L150.914 106.246H155.712ZM157.008 87.9239C158.544 87.9239 159.84 86.926 159.84 85.2322C159.84 83.7962 158.842 82.8683 157.45 82.8683C155.981 82.8683 154.714 83.9655 154.681 85.5931C154.677 87.0254 155.679 87.9239 157.008 87.9239ZM164.074 86.532L163.404 89.9638H161.313L160.646 93.5944H162.716L161.442 100.097C161.213 101.327 161.11 102.218 161.11 103.116C161.11 105.16 162.48 106.618 165.337 106.618C166.365 106.618 167.561 106.482 168.176 106.243L168.74 102.483C168.305 102.557 167.837 102.557 167.414 102.557C166.376 102.557 166.041 101.997 166.041 101.191C166.041 100.635 166.177 99.7951 166.306 99.1213L167.414 93.5981H170.868L171.56 89.9675H168.106L168.968 85.4089L164.074 86.532ZM183.17 102.089C182.338 102.421 181.344 102.752 179.937 102.752C178.144 102.752 176.748 101.621 176.748 99.3938C176.748 96.3229 178.836 93.4324 182.279 93.4324C183.247 93.4324 183.899 93.5981 184.477 93.8264L185.637 90.1663C184.945 89.8644 183.733 89.5919 182.338 89.5919C176.13 89.5919 171.707 94.1283 171.707 99.9351C171.707 104.155 174.543 106.596 178.56 106.596C180.493 106.596 182.165 106.257 183.192 105.768L183.17 102.089ZM195.63 89.5882C189.835 89.5882 185.898 94.2204 185.898 99.8872C185.898 103.93 188.66 106.618 192.795 106.618C198.462 106.618 202.52 102.244 202.52 96.2897C202.531 92.5965 199.997 89.5882 195.63 89.5882ZM195.001 93.2225C196.93 93.2225 197.563 94.8279 197.563 96.3229C197.563 99.1213 196.105 102.954 193.476 102.954C191.808 102.954 190.873 101.688 190.873 99.7988C190.84 97.2545 192.239 93.2225 195.001 93.2225ZM208.768 106.246L211.872 89.9564H207.063L203.97 106.246H208.768ZM210.064 87.9239C211.596 87.9239 212.9 86.926 212.9 85.2322C212.9 83.7962 211.902 82.8683 210.503 82.8683C209.044 82.8683 207.778 83.9655 207.741 85.5931C207.737 87.0254 208.735 87.9239 210.064 87.9239ZM217.594 106.246L218.961 99.0182C219.631 95.4244 221.472 93.4545 223.026 93.4545C224.226 93.4545 224.631 94.2572 224.631 95.3839C224.631 95.9804 224.557 96.6469 224.465 97.2176L222.768 106.235H227.566L229.363 96.7831C229.492 95.9804 229.628 94.7432 229.628 94.0215C229.628 91.212 228.125 89.5845 225.456 89.5845C223.291 89.5845 221.258 90.5198 219.726 92.6481H219.656L219.992 89.9564H215.728C215.521 91.4035 215.26 93.193 214.862 95.2587L212.793 106.235L217.594 106.246ZM133.019 116.858C133.457 116.91 134.105 116.965 135.018 116.965C136.543 116.965 137.791 116.641 138.612 115.967C139.363 115.326 139.908 114.299 139.908 112.819C139.908 111.445 139.4 110.473 138.594 109.877C137.843 109.317 136.882 109.041 135.405 109.041C134.518 109.041 133.671 109.1 133.026 109.199V116.858H133.019ZM134.783 110.466C134.934 110.429 135.188 110.392 135.582 110.392C137.095 110.392 138.045 111.247 138.03 112.867C138.03 114.723 136.992 115.606 135.398 115.592C135.173 115.592 134.934 115.592 134.783 115.555V110.466ZM141.064 109.1V116.888H142.832V109.1H141.064ZM150.866 112.429H147.965V113.802H149.169V115.433C149.029 115.5 148.705 115.547 148.3 115.547C146.856 115.547 145.851 114.59 145.851 112.996C145.851 111.306 146.96 110.47 148.429 110.47C149.279 110.47 149.813 110.621 150.24 110.808L150.612 109.398C150.229 109.21 149.46 109.012 148.451 109.012C145.899 109.012 144.014 110.492 144.003 113.08C143.992 114.218 144.386 115.238 145.1 115.908C145.814 116.604 146.845 116.958 148.267 116.958C149.294 116.958 150.321 116.707 150.866 116.52V112.429ZM152.247 109.1V116.888H154.011V109.1H152.247ZM157.041 116.888H158.809V110.58H160.937V109.1H154.95V110.58H157.038L157.041 116.888ZM165.091 114.888L165.694 116.888H167.598L165.183 109.1H162.867L160.488 116.888H162.318L162.863 114.888H165.091ZM163.11 113.574L163.57 111.92C163.699 111.468 163.813 110.886 163.938 110.418H163.96C164.074 110.886 164.211 111.46 164.347 111.92L164.836 113.574H163.11ZM168.629 116.888H173.493V115.407H170.393V109.1H168.629V116.888ZM182.334 115.293C181.981 115.437 181.391 115.551 180.861 115.551C179.293 115.551 178.372 114.557 178.372 113.007C178.372 111.272 179.458 110.433 180.854 110.433C181.48 110.433 181.981 110.569 182.334 110.72L182.695 109.325C182.378 109.159 181.693 108.971 180.777 108.971C178.409 108.971 176.527 110.451 176.527 113.106C176.527 115.33 177.915 117.006 180.603 117.006C181.553 117.006 182.271 116.832 182.603 116.667L182.334 115.293ZM183.744 109.1V113.445C183.744 115.934 184.901 117.02 186.871 117.02C188.907 117.02 190.122 115.875 190.122 113.467V109.1H188.358V113.589C188.358 114.962 187.854 115.61 186.926 115.61C186.027 115.61 185.515 114.925 185.515 113.589V109.1H183.744ZM191.643 116.888H193.395V113.824H193.929C194.647 113.839 194.979 114.097 195.196 115.076C195.424 116.041 195.605 116.674 195.733 116.888H197.53C197.379 116.586 197.144 115.581 196.893 114.693C196.698 113.975 196.396 113.456 195.855 113.235V113.198C196.532 112.97 197.236 112.278 197.236 111.283C197.236 110.565 196.982 110.017 196.518 109.652C195.965 109.214 195.159 109.041 193.999 109.041C193.053 109.041 192.217 109.115 191.643 109.199V116.888ZM193.388 110.411C193.509 110.389 193.767 110.345 194.187 110.345C195.004 110.359 195.487 110.72 195.487 111.438C195.487 112.116 194.964 112.561 194.091 112.561H193.399L193.388 110.411ZM198.499 116.888H200.244V113.824H200.782C201.5 113.839 201.838 114.097 202.045 115.076C202.277 116.041 202.457 116.674 202.586 116.888H204.387C204.236 116.586 203.996 115.581 203.746 114.693C203.547 113.975 203.245 113.456 202.711 113.235V113.198C203.385 112.97 204.085 112.278 204.085 111.283C204.085 110.565 203.838 110.017 203.37 109.652C202.825 109.214 202.012 109.041 200.848 109.041C199.913 109.041 199.077 109.115 198.499 109.199V116.888ZM200.24 110.411C200.369 110.389 200.616 110.345 201.039 110.345C201.853 110.359 202.336 110.72 202.336 111.438C202.336 112.116 201.816 112.561 200.94 112.561H200.248L200.24 110.411ZM209.991 112.164H207.126V110.547H210.164V109.1H205.351V116.888H210.326V115.433H207.126V113.585H209.991V112.164ZM213.143 116.888V114.542C213.143 113.268 213.121 112.167 213.069 111.14L213.113 111.133C213.496 112.046 213.997 113.051 214.457 113.887L216.118 116.884H217.974V109.096H216.357V111.376C216.357 112.532 216.394 113.592 216.508 114.62H216.471C216.118 113.743 215.658 112.771 215.197 111.943L213.581 109.096H211.523V116.884H213.143V116.888ZM224.959 115.293C224.613 115.437 224.023 115.551 223.501 115.551C221.925 115.551 221.004 114.557 221.004 113.007C221.004 111.272 222.09 110.433 223.486 110.433C224.112 110.433 224.613 110.569 224.959 110.72L225.327 109.325C225.01 109.159 224.325 108.971 223.409 108.971C221.041 108.971 219.159 110.451 219.159 113.106C219.159 115.33 220.548 117.006 223.236 117.006C224.186 117.006 224.911 116.832 225.235 116.667L224.959 115.293ZM230.029 116.888V113.644L232.588 109.1H230.618L229.83 110.97C229.602 111.523 229.422 111.976 229.241 112.458H229.219C229.02 111.946 228.854 111.538 228.623 110.97L227.823 109.1H225.806L228.265 113.695V116.888H230.029Z" fill="#FFFBF7"/>
<path d="M296.747 24.4301C296.832 24.6269 296.849 24.8504 296.804 25.1038C296.747 25.404 296.615 25.6375 296.41 25.8242C296.202 26.006 295.973 26.1077 295.723 26.1311C295.471 26.1544 295.163 26.1311 294.799 26.066L294.176 25.946C293.967 25.911 293.844 25.8709 293.797 25.8426C293.755 25.8126 293.729 25.7676 293.719 25.7058C293.714 25.6642 293.734 25.5007 293.775 25.2439L294.121 23.3946L295.23 23.5997C295.717 23.6914 296.067 23.7998 296.287 23.9332C296.507 24.0633 296.66 24.2317 296.747 24.4301ZM296.805 20.5296C296.609 20.4262 296.235 20.3178 295.685 20.2161L294.748 20.041L294.357 22.1255L295.296 22.3023C295.785 22.3923 296.158 22.4157 296.409 22.3773C296.659 22.344 296.856 22.2523 297.007 22.1088C297.154 21.9688 297.251 21.7887 297.291 21.5685C297.334 21.3434 297.314 21.1416 297.229 20.9632C297.149 20.7848 297.009 20.6447 296.805 20.5296ZM305.117 23.1277C305.117 28.6025 300.678 33.0416 295.201 33.0416C289.727 33.0416 285.289 28.6025 285.289 23.1277C285.289 17.6513 289.727 13.2139 295.201 13.2139C300.678 13.2122 305.117 17.6497 305.117 23.1277ZM299.282 20.5079C299.112 20.1411 298.83 19.8342 298.441 19.5758C298.291 19.4724 298.103 19.389 297.896 19.3073L298.18 17.8014L296.732 17.5313L296.469 18.9404L295.536 18.7653L295.802 17.3595L294.352 17.086L294.087 18.4985L291.876 18.0783L291.656 19.2606L291.994 19.329C292.22 19.364 292.37 19.4173 292.44 19.4757C292.513 19.5274 292.556 19.5924 292.576 19.6691C292.596 19.7458 292.583 19.9126 292.536 20.1628L291.644 24.9338C291.599 25.1806 291.553 25.3373 291.506 25.4023C291.459 25.4674 291.394 25.5124 291.306 25.5358C291.217 25.5658 291.064 25.5524 290.84 25.5091L290.5 25.4474L290.28 26.6297L292.488 27.0433L292.228 28.4541L293.675 28.7242L293.937 27.3167L294.761 27.4702C294.798 27.4768 294.831 27.4768 294.868 27.4868L294.606 28.8976L296.052 29.1678L296.34 27.6403C296.589 27.6369 296.814 27.6169 297.012 27.5819C297.548 27.4785 297.991 27.2567 298.336 26.9215C298.68 26.5963 298.897 26.2045 298.982 25.7492C299.053 25.3673 299.027 25.0071 298.905 24.6686C298.783 24.3234 298.583 24.0399 298.31 23.8081C298.121 23.6447 297.834 23.4763 297.454 23.2995C297.849 23.2411 298.181 23.1361 298.445 22.986C298.708 22.8359 298.927 22.6408 299.093 22.4123C299.262 22.1755 299.374 21.9187 299.425 21.6386C299.495 21.2567 299.452 20.8748 299.282 20.5079Z" fill="#FFFBF7"/>
<defs>
<radialGradient id="paint0_radial_32_279" cx="0" cy="0" r="1" gradientUnits="userSpaceOnUse" gradientTransform="translate(149.486) rotate(90) scale(199.62 319)">
<stop stop-color="#FF8000"/>
<stop offset="1" stop-color="#E34141"/>
</radialGradient>
</defs>
</svg>
