<svg width="319" height="200" viewBox="0 0 319 200" fill="none" xmlns="http://www.w3.org/2000/svg">
<rect width="319" height="200" rx="10" fill="url(#paint0_linear_32_284)"/>
<path d="M160.173 94.9464L148 89.1555L160.173 110.429L172.346 89.1555L160.173 94.9464Z" fill="white"/>
<path d="M171.021 84.8403L160.173 66L149.313 84.862L160.173 79.7105L171.021 84.8403Z" fill="white"/>
<path d="M150.255 87.3066L160.173 92.0046L170.108 87.2988L160.173 82.6011L150.255 87.3066Z" fill="white"/>
<path d="M294.597 30.3097L289 27.647L294.597 37.4285L300.195 27.647L294.597 30.3097Z" fill="white"/>
<path d="M299.585 25.6629L294.597 17L289.604 25.6729L294.597 23.3042L299.585 25.6629Z" fill="white"/>
<path d="M290.036 26.7967L294.597 28.9569L299.165 26.7931L294.597 24.6331L290.036 26.7967Z" fill="white"/>
<path d="M112.528 128.131V133.024H117.862V134.599H112.528V139.639H118.492V141.214H110.617V126.556H118.492V128.131H112.528Z" fill="white"/>
<path d="M123.715 131.281V138.064C123.715 138.624 123.834 139.023 124.072 139.261C124.31 139.485 124.723 139.597 125.311 139.597H126.718V141.214H124.996C123.932 141.214 123.134 140.969 122.602 140.479C122.07 139.989 121.804 139.184 121.804 138.064V131.281H120.313V129.706H121.804V126.808H123.715V129.706H126.718V131.281H123.715Z" fill="white"/>
<path d="M134.745 129.496C135.613 129.496 136.397 129.685 137.097 130.063C137.797 130.427 138.343 130.98 138.735 131.722C139.141 132.464 139.344 133.367 139.344 134.431V141.214H137.454V134.704C137.454 133.556 137.167 132.681 136.593 132.079C136.019 131.463 135.235 131.155 134.241 131.155C133.233 131.155 132.428 131.47 131.826 132.1C131.238 132.73 130.944 133.647 130.944 134.851V141.214H129.033V125.674H130.944V131.344C131.322 130.756 131.84 130.301 132.498 129.979C133.17 129.657 133.919 129.496 134.745 129.496Z" fill="white"/>
<path d="M152.966 135.019C152.966 135.383 152.945 135.768 152.903 136.174H143.705C143.775 137.308 144.16 138.197 144.86 138.841C145.574 139.471 146.435 139.786 147.443 139.786C148.269 139.786 148.955 139.597 149.501 139.219C150.061 138.827 150.453 138.309 150.677 137.665H152.735C152.427 138.771 151.811 139.674 150.887 140.374C149.963 141.06 148.815 141.403 147.443 141.403C146.351 141.403 145.371 141.158 144.503 140.668C143.649 140.178 142.977 139.485 142.487 138.589C141.997 137.679 141.752 136.629 141.752 135.439C141.752 134.249 141.99 133.206 142.466 132.31C142.942 131.414 143.607 130.728 144.461 130.252C145.329 129.762 146.323 129.517 147.443 129.517C148.535 129.517 149.501 129.755 150.341 130.231C151.181 130.707 151.825 131.365 152.273 132.205C152.735 133.031 152.966 133.969 152.966 135.019ZM150.992 134.62C150.992 133.892 150.831 133.269 150.509 132.751C150.187 132.219 149.746 131.82 149.186 131.554C148.64 131.274 148.031 131.134 147.359 131.134C146.393 131.134 145.567 131.442 144.881 132.058C144.209 132.674 143.824 133.528 143.726 134.62H150.992Z" fill="white"/>
<path d="M157.399 131.575C157.735 130.917 158.211 130.406 158.827 130.042C159.457 129.678 160.22 129.496 161.116 129.496V131.47H160.612C158.47 131.47 157.399 132.632 157.399 134.956V141.214H155.488V129.706H157.399V131.575Z" fill="white"/>
<path d="M173.822 135.019C173.822 135.383 173.801 135.768 173.759 136.174H164.561C164.631 137.308 165.016 138.197 165.716 138.841C166.43 139.471 167.291 139.786 168.299 139.786C169.125 139.786 169.811 139.597 170.357 139.219C170.917 138.827 171.309 138.309 171.533 137.665H173.591C173.283 138.771 172.667 139.674 171.743 140.374C170.819 141.06 169.671 141.403 168.299 141.403C167.207 141.403 166.227 141.158 165.359 140.668C164.505 140.178 163.833 139.485 163.343 138.589C162.853 137.679 162.608 136.629 162.608 135.439C162.608 134.249 162.846 133.206 163.322 132.31C163.798 131.414 164.463 130.728 165.317 130.252C166.185 129.762 167.179 129.517 168.299 129.517C169.391 129.517 170.357 129.755 171.197 130.231C172.037 130.707 172.681 131.365 173.129 132.205C173.591 133.031 173.822 133.969 173.822 135.019ZM171.848 134.62C171.848 133.892 171.687 133.269 171.365 132.751C171.043 132.219 170.602 131.82 170.042 131.554C169.496 131.274 168.887 131.134 168.215 131.134C167.249 131.134 166.423 131.442 165.737 132.058C165.065 132.674 164.68 133.528 164.582 134.62H171.848Z" fill="white"/>
<path d="M186.551 129.706V141.214H184.64V139.513C184.276 140.101 183.765 140.563 183.107 140.899C182.463 141.221 181.749 141.382 180.965 141.382C180.069 141.382 179.264 141.2 178.55 140.836C177.836 140.458 177.269 139.898 176.849 139.156C176.443 138.414 176.24 137.511 176.24 136.447V129.706H178.13V136.195C178.13 137.329 178.417 138.204 178.991 138.82C179.565 139.422 180.349 139.723 181.343 139.723C182.365 139.723 183.17 139.408 183.758 138.778C184.346 138.148 184.64 137.231 184.64 136.027V129.706H186.551Z" fill="white"/>
<path d="M203.616 129.496C204.512 129.496 205.31 129.685 206.01 130.063C206.71 130.427 207.263 130.98 207.669 131.722C208.075 132.464 208.278 133.367 208.278 134.431V141.214H206.388V134.704C206.388 133.556 206.101 132.681 205.527 132.079C204.967 131.463 204.204 131.155 203.238 131.155C202.244 131.155 201.453 131.477 200.865 132.121C200.277 132.751 199.983 133.668 199.983 134.872V141.214H198.093V134.704C198.093 133.556 197.806 132.681 197.232 132.079C196.672 131.463 195.909 131.155 194.943 131.155C193.949 131.155 193.158 131.477 192.57 132.121C191.982 132.751 191.688 133.668 191.688 134.872V141.214H189.777V129.706H191.688V131.365C192.066 130.763 192.57 130.301 193.2 129.979C193.844 129.657 194.551 129.496 195.321 129.496C196.287 129.496 197.141 129.713 197.883 130.147C198.625 130.581 199.178 131.218 199.542 132.058C199.864 131.246 200.396 130.616 201.138 130.168C201.88 129.72 202.706 129.496 203.616 129.496Z" fill="white"/>
<defs>
<linearGradient id="paint0_linear_32_284" x1="189.037" y1="-48.4848" x2="308.337" y2="229.796" gradientUnits="userSpaceOnUse">
<stop stop-color="#00E0FF"/>
<stop offset="1" stop-color="#0047FF"/>
</linearGradient>
</defs>
</svg>
