<svg width="319" height="200" viewBox="0 0 319 200" fill="none" xmlns="http://www.w3.org/2000/svg">
<rect width="319" height="199.62" rx="10" fill="url(#paint0_linear_32_360)"/>
<path d="M174.558 75.9516L165.413 70.6699L152.883 80.0318L165.413 89.3936L174.589 84.0938C176.02 83.2246 176.874 81.7056 176.874 80.032C176.874 78.3583 176.02 76.8395 174.558 75.9516Z" fill="#FF9100"/>
<path d="M156.052 80.032C156.038 80.0496 144.973 94.2755 144.964 94.287L130.551 105.638C129.664 104.751 129.125 103.548 129.125 102.217V57.7685C129.125 56.4381 129.664 55.2343 130.551 54.3474L144.964 65.777C144.973 65.7885 156.038 80.0144 156.052 80.032Z" fill="#25D9F8"/>
<path d="M156.051 80.0321L152.883 84.1184V75.9456L156.051 80.0321Z" fill="#00C0F1"/>
<path d="M165.43 70.6552L156.053 80.0319L130.552 54.3475C130.869 54.0622 131.186 53.8405 131.534 53.6188C133.055 52.7636 134.86 52.7951 136.349 53.7139L152.885 63.4328L165.43 70.6552Z" fill="#7FE881"/>
<path d="M165.428 70.6553L156.051 80.032L152.883 76.8643V63.4329L165.428 70.6553Z" fill="#5BC980"/>
<path d="M165.43 89.4083L152.885 96.6309L136.318 106.303C135.557 106.747 134.734 107 133.878 107C133.086 107 132.295 106.778 131.534 106.366C131.186 106.145 130.869 105.923 130.552 105.638L156.053 80.0317L165.43 89.4083Z" fill="#FF637B"/>
<path d="M165.428 89.4083L152.883 96.6309V83.1995L156.051 80.0317L165.428 89.4083Z" fill="#E63950"/>
<g clip-path="url(#clip0_32_360)">
<path d="M303.203 21.7817L299.985 19.9233L295.576 23.2173L299.985 26.5113L303.213 24.6466C303.717 24.3407 304.017 23.8063 304.017 23.2174C304.017 22.6285 303.717 22.0941 303.203 21.7817Z" fill="#FF9100"/>
<path d="M296.69 23.2173C296.685 23.2235 292.792 28.2289 292.789 28.233L287.717 32.2269C287.405 31.9148 287.216 31.4914 287.216 31.0231V15.3839C287.216 14.9158 287.405 14.4922 287.717 14.1802L292.789 18.2017C292.792 18.2057 296.685 23.2111 296.69 23.2173Z" fill="#25D9F8"/>
<path d="M296.691 23.2176L295.576 24.6554V21.7798L296.691 23.2176Z" fill="#00C0F1"/>
<path d="M299.989 19.9182L296.69 23.2174L287.717 14.1803C287.829 14.08 287.94 14.0019 288.063 13.9239C288.598 13.623 289.233 13.6341 289.757 13.9574L295.575 17.377L299.989 19.9182Z" fill="#7FE881"/>
<path d="M299.99 19.9182L296.691 23.2174L295.576 22.1028V17.377L299.99 19.9182Z" fill="#5BC980"/>
<path d="M299.989 26.5164L295.575 29.0577L289.746 32.4609C289.478 32.617 289.189 32.7061 288.888 32.7061C288.609 32.7061 288.33 32.6281 288.063 32.4832C287.94 32.4052 287.829 32.3272 287.717 32.2269L296.69 23.2173L299.989 26.5164Z" fill="#FF637B"/>
<path d="M299.99 26.5164L295.576 29.0577V24.3319L296.691 23.2173L299.99 26.5164Z" fill="#E63950"/>
</g>
<path d="M105.562 138.818H111.901C111.901 138.928 111.905 139.082 111.912 139.281C111.934 139.802 111.945 140.155 111.945 140.339C111.945 142.609 111.3 144.373 110.01 145.629C108.721 146.886 106.903 147.514 104.557 147.514C103.246 147.514 102.076 147.319 101.049 146.93C100.022 146.54 99.1219 145.953 98.3496 145.166C97.5919 144.387 97.0091 143.473 96.6011 142.422C96.2004 141.371 96 140.247 96 139.049C96 137.829 96.204 136.705 96.612 135.676C97.0273 134.648 97.6393 133.74 98.448 132.954C99.2275 132.182 100.142 131.595 101.191 131.19C102.24 130.786 103.362 130.584 104.557 130.584C105.817 130.584 106.943 130.816 107.934 131.279C108.932 131.741 109.821 132.451 110.6 133.406L108.699 134.85C108.16 134.218 107.551 133.747 106.874 133.439C106.196 133.13 105.439 132.976 104.601 132.976C102.867 132.976 101.45 133.538 100.35 134.662C99.2567 135.779 98.7103 137.234 98.7103 139.027C98.7103 140.849 99.2567 142.33 100.35 143.469C101.45 144.601 102.874 145.166 104.623 145.166C106.109 145.166 107.278 144.817 108.131 144.119C108.983 143.421 109.409 142.47 109.409 141.265V141.033H105.562V138.818Z" fill="#FFFBF7"/>
<path d="M122.633 141.893C122.633 140.923 122.323 140.104 121.704 139.435C121.084 138.759 120.327 138.421 119.431 138.421C118.542 138.421 117.784 138.759 117.158 139.435C116.538 140.104 116.229 140.923 116.229 141.893C116.229 142.863 116.538 143.686 117.158 144.362C117.784 145.03 118.542 145.365 119.431 145.365C120.32 145.365 121.074 145.03 121.693 144.362C122.319 143.686 122.633 142.863 122.633 141.893ZM113.726 141.871C113.726 141.107 113.868 140.386 114.152 139.71C114.444 139.027 114.859 138.421 115.398 137.892C115.93 137.37 116.542 136.97 117.234 136.69C117.926 136.411 118.651 136.272 119.409 136.272C120.188 136.272 120.921 136.411 121.605 136.69C122.298 136.97 122.917 137.381 123.463 137.925C124.01 138.461 124.425 139.067 124.709 139.743C124.993 140.42 125.135 141.129 125.135 141.871C125.135 142.642 124.993 143.366 124.709 144.042C124.432 144.718 124.024 145.317 123.485 145.839C122.917 146.39 122.287 146.805 121.594 147.084C120.902 147.371 120.174 147.514 119.409 147.514C118.658 147.514 117.937 147.371 117.245 147.084C116.553 146.805 115.937 146.397 115.398 145.861C114.852 145.317 114.436 144.707 114.152 144.031C113.868 143.355 113.726 142.635 113.726 141.871Z" fill="#FFFBF7"/>
<path d="M135.791 141.893C135.791 140.923 135.481 140.104 134.862 139.435C134.242 138.759 133.485 138.421 132.589 138.421C131.7 138.421 130.942 138.759 130.315 139.435C129.696 140.104 129.386 140.923 129.386 141.893C129.386 142.863 129.696 143.686 130.315 144.362C130.942 145.03 131.7 145.365 132.589 145.365C133.477 145.365 134.231 145.03 134.851 144.362C135.477 143.686 135.791 142.863 135.791 141.893ZM126.884 141.871C126.884 141.107 127.026 140.386 127.31 139.71C127.602 139.027 128.017 138.421 128.556 137.892C129.088 137.37 129.7 136.97 130.392 136.69C131.084 136.411 131.809 136.272 132.567 136.272C133.346 136.272 134.078 136.411 134.763 136.69C135.455 136.97 136.075 137.381 136.621 137.925C137.168 138.461 137.583 139.067 137.867 139.743C138.151 140.42 138.293 141.129 138.293 141.871C138.293 142.642 138.151 143.366 137.867 144.042C137.59 144.718 137.182 145.317 136.643 145.839C136.075 146.39 135.445 146.805 134.752 147.084C134.06 147.371 133.332 147.514 132.567 147.514C131.816 147.514 131.095 147.371 130.403 147.084C129.711 146.805 129.095 146.397 128.556 145.861C128.01 145.317 127.594 144.707 127.31 144.031C127.026 143.355 126.884 142.635 126.884 141.871Z" fill="#FFFBF7"/>
<path d="M148.249 141.827C148.249 140.746 147.998 139.905 147.495 139.303C147 138.7 146.304 138.399 145.408 138.399C144.512 138.399 143.805 138.711 143.288 139.336C142.778 139.953 142.523 140.813 142.523 141.915C142.523 143.024 142.77 143.88 143.266 144.483C143.761 145.086 144.461 145.387 145.364 145.387C146.216 145.387 146.908 145.06 147.44 144.406C147.979 143.752 148.249 142.892 148.249 141.827ZM150.555 146.434C150.555 148.477 150.151 149.913 149.342 150.743C148.533 151.581 147.171 152 145.255 152C143.827 152 142.686 151.695 141.834 151.085C140.982 150.483 140.548 149.678 140.534 148.671L143.08 148.66C143.116 149.109 143.324 149.45 143.703 149.685C144.082 149.921 144.614 150.038 145.298 150.038C146.311 150.038 147.04 149.814 147.484 149.366C147.928 148.918 148.154 148.168 148.162 147.117L148.183 145.728C147.761 146.331 147.265 146.779 146.697 147.073C146.136 147.367 145.491 147.514 144.763 147.514C143.298 147.514 142.144 147.011 141.299 146.004C140.461 144.99 140.042 143.605 140.042 141.849C140.042 140.181 140.472 138.836 141.331 137.815C142.191 136.786 143.313 136.272 144.697 136.272C145.542 136.272 146.264 136.452 146.861 136.812C147.466 137.164 147.907 137.675 148.183 138.344V136.635H150.555V146.434Z" fill="#FFFBF7"/>
<path d="M153.943 147.084V130H156.314V147.084H153.943Z" fill="#FFFBF7"/>
<path d="M169.691 142.212H161.407C161.465 143.19 161.753 143.954 162.27 144.505C162.788 145.049 163.476 145.321 164.336 145.321C165.101 145.321 165.738 145.159 166.248 144.836C166.758 144.512 167.203 143.991 167.582 143.271L169.581 144.395C168.999 145.446 168.277 146.228 167.418 146.742C166.558 147.257 165.549 147.514 164.39 147.514C162.729 147.514 161.407 147.003 160.423 145.982C159.44 144.961 158.948 143.598 158.948 141.893C158.948 140.254 159.454 138.909 160.467 137.859C161.487 136.801 162.795 136.272 164.39 136.272C166.059 136.272 167.359 136.753 168.292 137.715C169.224 138.678 169.691 140.026 169.691 141.761V142.212ZM167.232 140.603C167.137 139.854 166.853 139.284 166.379 138.895C165.906 138.498 165.257 138.3 164.434 138.3C163.655 138.3 163.028 138.491 162.554 138.873C162.081 139.255 161.749 139.832 161.56 140.603H167.232Z" fill="#FFFBF7"/>
<path d="M181.723 137.693H182.39C183.832 137.693 184.794 137.535 185.275 137.219C185.756 136.903 185.996 136.345 185.996 135.544C185.996 134.684 185.737 134.078 185.22 133.725C184.71 133.373 183.767 133.196 182.39 133.196H181.723V137.693ZM181.559 139.843V147.084H179.122V130.948H183.056C184.222 130.948 185.078 131.014 185.624 131.146C186.178 131.271 186.659 131.481 187.067 131.775C187.57 132.149 187.963 132.656 188.247 133.296C188.531 133.928 188.673 134.626 188.673 135.39C188.673 136.154 188.531 136.859 188.247 137.506C187.963 138.153 187.57 138.66 187.067 139.027C186.659 139.321 186.178 139.53 185.624 139.655C185.078 139.78 184.222 139.843 183.056 139.843H181.559Z" fill="#FFFBF7"/>
<path d="M190.947 147.084V130H193.318V147.084H190.947Z" fill="#FFFBF7"/>
<path d="M206.465 147.084H204.094V145.728C203.671 146.331 203.176 146.779 202.607 147.073C202.046 147.367 201.402 147.514 200.673 147.514C199.209 147.514 198.054 147.011 197.209 146.004C196.371 144.99 195.952 143.605 195.952 141.849C195.952 140.181 196.382 138.836 197.241 137.815C198.101 136.786 199.223 136.272 200.607 136.272C201.453 136.272 202.174 136.452 202.771 136.812C203.376 137.164 203.817 137.675 204.094 138.344V136.635H206.465V147.084ZM204.159 141.827C204.159 140.746 203.908 139.905 203.405 139.303C202.91 138.7 202.214 138.399 201.318 138.399C200.422 138.399 199.715 138.711 199.198 139.336C198.688 139.953 198.433 140.813 198.433 141.915C198.433 143.024 198.68 143.88 199.176 144.483C199.671 145.086 200.371 145.387 201.274 145.387C202.126 145.387 202.819 145.06 203.35 144.406C203.89 143.752 204.159 142.892 204.159 141.827Z" fill="#FFFBF7"/>
<path d="M211.525 152H209.088L211.929 146.18L208.126 136.635H210.749L212.651 142.047C212.76 142.378 212.855 142.716 212.935 143.061C213.022 143.399 213.091 143.744 213.142 144.097C213.237 143.73 213.463 143.146 213.82 142.345L213.875 142.212L216.432 136.635H219L211.525 152Z" fill="#FFFBF7"/>
<defs>
<linearGradient id="paint0_linear_32_360" x1="189.037" y1="-48.3926" x2="307.954" y2="229.523" gradientUnits="userSpaceOnUse">
<stop offset="0.104167" stop-color="#99FDD9"/>
<stop offset="1" stop-color="#1E62A2"/>
</linearGradient>
<clipPath id="clip0_32_360">
<rect width="19" height="19" fill="white" transform="translate(286.117 13.7061)"/>
</clipPath>
</defs>
</svg>
