<svg width="319" height="200" viewBox="0 0 319 200" fill="none" xmlns="http://www.w3.org/2000/svg">
<rect width="319" height="199.62" rx="10" fill="url(#paint0_linear_32_171)"/>
<path d="M123.702 153.792C122.15 153.792 120.734 153.432 119.454 152.712C118.174 151.976 117.158 150.96 116.406 149.664C115.67 148.352 115.302 146.88 115.302 145.248C115.302 143.616 115.67 142.152 116.406 140.856C117.158 139.544 118.174 138.528 119.454 137.808C120.734 137.072 122.15 136.704 123.702 136.704C125.27 136.704 126.694 137.072 127.974 137.808C129.254 138.528 130.262 139.536 130.998 140.832C131.734 142.128 132.102 143.6 132.102 145.248C132.102 146.896 131.734 148.368 130.998 149.664C130.262 150.96 129.254 151.976 127.974 152.712C126.694 153.432 125.27 153.792 123.702 153.792ZM123.702 151.896C124.87 151.896 125.918 151.624 126.846 151.08C127.79 150.536 128.526 149.76 129.054 148.752C129.598 147.744 129.87 146.576 129.87 145.248C129.87 143.904 129.598 142.736 129.054 141.744C128.526 140.736 127.798 139.96 126.87 139.416C125.942 138.872 124.886 138.6 123.702 138.6C122.518 138.6 121.462 138.872 120.534 139.416C119.606 139.96 118.87 140.736 118.326 141.744C117.798 142.736 117.534 143.904 117.534 145.248C117.534 146.576 117.798 147.744 118.326 148.752C118.87 149.76 119.606 150.536 120.534 151.08C121.478 151.624 122.534 151.896 123.702 151.896Z" fill="white"/>
<path d="M145.281 136.896V138.672H140.721V153.624H138.537V138.672H133.953V136.896H145.281Z" fill="white"/>
<path d="M160.857 136.896V153.624H158.673V146.04H150.153V153.624H147.969V136.896H150.153V144.24H158.673V136.896H160.857Z" fill="white"/>
<path d="M166.771 138.672V144.264H172.867V146.064H166.771V151.824H173.587V153.624H164.587V136.872H173.587V138.672H166.771Z" fill="white"/>
<path d="M185.699 153.624L181.715 146.784H179.075V153.624H176.891V136.896H182.291C183.555 136.896 184.619 137.112 185.483 137.544C186.363 137.976 187.019 138.56 187.451 139.296C187.883 140.032 188.099 140.872 188.099 141.816C188.099 142.968 187.763 143.984 187.091 144.864C186.435 145.744 185.443 146.328 184.115 146.616L188.315 153.624H185.699ZM179.075 145.032H182.291C183.475 145.032 184.363 144.744 184.955 144.168C185.547 143.576 185.843 142.792 185.843 141.816C185.843 140.824 185.547 140.056 184.955 139.512C184.379 138.968 183.491 138.696 182.291 138.696H179.075V145.032Z" fill="white"/>
<path d="M196.797 153.792C195.693 153.792 194.701 153.6 193.821 153.216C192.957 152.816 192.277 152.272 191.781 151.584C191.285 150.88 191.029 150.072 191.013 149.16H193.341C193.421 149.944 193.741 150.608 194.301 151.152C194.877 151.68 195.709 151.944 196.797 151.944C197.837 151.944 198.653 151.688 199.245 151.176C199.853 150.648 200.157 149.976 200.157 149.16C200.157 148.52 199.981 148 199.629 147.6C199.277 147.2 198.837 146.896 198.309 146.688C197.781 146.48 197.069 146.256 196.173 146.016C195.069 145.728 194.181 145.44 193.509 145.152C192.853 144.864 192.285 144.416 191.805 143.808C191.341 143.184 191.109 142.352 191.109 141.312C191.109 140.4 191.341 139.592 191.805 138.888C192.269 138.184 192.917 137.64 193.749 137.256C194.597 136.872 195.565 136.68 196.653 136.68C198.221 136.68 199.501 137.072 200.493 137.856C201.501 138.64 202.069 139.68 202.197 140.976H199.797C199.717 140.336 199.381 139.776 198.789 139.296C198.197 138.8 197.413 138.552 196.437 138.552C195.525 138.552 194.781 138.792 194.205 139.272C193.629 139.736 193.341 140.392 193.341 141.24C193.341 141.848 193.509 142.344 193.845 142.728C194.197 143.112 194.621 143.408 195.117 143.616C195.629 143.808 196.341 144.032 197.253 144.288C198.357 144.592 199.245 144.896 199.917 145.2C200.589 145.488 201.165 145.944 201.645 146.568C202.125 147.176 202.365 148.008 202.365 149.064C202.365 149.88 202.149 150.648 201.717 151.368C201.285 152.088 200.645 152.672 199.797 153.12C198.949 153.568 197.949 153.792 196.797 153.792Z" fill="white"/>
<path d="M194.119 78.3402C194.975 78.3402 195.668 77.6473 195.668 76.7919L195.669 69.5701C195.669 68.1036 194.48 66.9145 193.013 66.9145L124.99 66.9094C123.523 66.9094 122.335 68.0986 122.334 69.565V76.7863C122.334 77.6417 123.027 78.3351 123.882 78.3357C124.738 78.3357 125.431 79.0291 125.431 79.8845L125.43 94.1165C125.43 94.9718 124.737 95.6652 123.881 95.6652C123.026 95.6652 122.333 96.3587 122.333 97.214L122.332 104.436C122.332 105.902 123.521 107.091 124.988 107.091L193.011 107.096C194.477 107.096 195.666 105.907 195.666 104.441L195.667 97.2191C195.667 96.3637 194.974 95.6703 194.118 95.6703C193.263 95.6703 192.569 94.9768 192.569 94.1209L192.571 79.8889C192.571 79.0336 193.264 78.3402 194.119 78.3402Z" fill="url(#paint1_linear_32_171)"/>
<path d="M122.333 97.719L122.332 104.436C122.332 105.903 123.521 107.091 124.987 107.092L193.01 107.096C194.477 107.096 195.666 105.908 195.666 104.441L195.666 97.7196H122.333V97.719Z" fill="url(#paint2_linear_32_171)"/>
<path d="M125.316 87.4531L130.192 92.3291V87.4531H125.316Z" fill="url(#paint3_linear_32_171)"/>
<path d="M145.129 67.0575L150.408 72.3368H145.129V67.0575Z" fill="url(#paint4_linear_32_171)"/>
<path d="M188.202 102.183H130.461C129.499 102.183 128.72 101.404 128.72 100.442V73.5647C128.72 72.6023 129.499 71.8226 130.461 71.8226H188.202C189.164 71.8226 189.944 72.6023 189.944 73.5647V100.442C189.944 101.404 189.164 102.183 188.202 102.183Z" fill="url(#paint5_linear_32_171)"/>
<path d="M152.801 76.495C151.806 75.3787 150.152 74.9474 148.678 75.6061C147.235 76.2514 145.849 77.0944 144.581 77.799C143.814 78.2253 143.185 78.6555 142.625 79.084C142.018 78.8033 141.342 78.6459 140.631 78.6459C139.883 78.6459 139.176 78.8185 138.547 79.1254C137.993 78.7126 137.372 78.2992 136.62 77.8903C135.345 77.1974 133.951 76.3673 132.503 75.736C130.48 74.8544 128.14 76.0088 127.615 78.1519C127.239 79.6895 128.948 81.2114 128.932 82.7406C128.932 82.7406 127.22 86.1977 127.661 87.928C127.843 88.6433 128.229 89.2449 128.735 89.6964L143.102 104.063C143.194 104.168 143.293 104.265 143.395 104.357C143.682 104.68 144.024 104.946 144.401 105.145C144.458 105.176 144.516 105.204 144.575 105.231C144.577 105.232 144.58 105.233 144.582 105.234C144.638 105.26 144.695 105.285 144.754 105.308C144.758 105.31 144.763 105.311 144.767 105.313C144.823 105.335 144.879 105.356 144.935 105.375C144.943 105.377 144.949 105.379 144.957 105.381C145.01 105.399 145.065 105.416 145.12 105.431C145.13 105.433 145.139 105.436 145.149 105.438C145.201 105.453 145.255 105.466 145.308 105.478C145.319 105.48 145.331 105.483 145.343 105.486C145.395 105.496 145.446 105.506 145.498 105.514C145.512 105.516 145.526 105.519 145.54 105.521C145.589 105.529 145.639 105.535 145.69 105.54C145.705 105.542 145.722 105.544 145.738 105.545C145.786 105.551 145.834 105.553 145.883 105.556C145.901 105.557 145.919 105.558 145.937 105.559C145.984 105.561 146.03 105.562 146.077 105.562C146.097 105.562 146.117 105.562 146.137 105.561C146.182 105.561 146.227 105.558 146.272 105.556C146.294 105.554 146.316 105.554 146.338 105.552C146.382 105.549 146.425 105.544 146.468 105.539C146.492 105.536 146.515 105.534 146.538 105.531C146.58 105.526 146.623 105.519 146.665 105.511C146.69 105.507 146.714 105.504 146.738 105.499C146.779 105.491 146.821 105.482 146.863 105.472C146.887 105.466 146.912 105.461 146.937 105.455C146.979 105.445 147.02 105.432 147.062 105.42C147.086 105.413 147.11 105.407 147.134 105.399C147.179 105.385 147.223 105.369 147.267 105.353C147.288 105.346 147.31 105.339 147.33 105.331C147.395 105.307 147.46 105.28 147.525 105.251C148.426 104.849 149.305 104.368 150.148 103.892C150.316 103.797 150.484 103.702 150.649 103.608C150.98 103.42 151.305 103.235 151.622 103.058C152.067 102.81 152.467 102.561 152.834 102.312C152.852 102.299 152.869 102.287 152.887 102.275C153.653 102.804 154.582 103.114 155.584 103.114C156.617 103.114 157.572 102.783 158.352 102.224C158.724 102.473 159.13 102.721 159.582 102.967C159.742 103.054 159.903 103.143 160.067 103.234C161.044 103.775 162.084 104.37 163.159 104.876C163.338 104.961 163.518 105.043 163.699 105.121C163.764 105.15 163.829 105.176 163.894 105.2C163.915 105.208 163.936 105.214 163.956 105.221C163.958 105.222 163.96 105.222 163.961 105.223C163.982 105.23 164.002 105.237 164.023 105.244C164.046 105.251 164.068 105.259 164.091 105.266C164.115 105.273 164.139 105.279 164.163 105.286C164.203 105.297 164.244 105.309 164.285 105.319C164.289 105.32 164.291 105.321 164.295 105.322C164.318 105.327 164.34 105.331 164.362 105.336C164.404 105.345 164.447 105.354 164.489 105.362C164.511 105.367 164.534 105.37 164.557 105.373C164.576 105.376 164.594 105.38 164.613 105.382C164.639 105.386 164.664 105.39 164.688 105.393C164.711 105.395 164.734 105.398 164.757 105.4C164.798 105.404 164.838 105.408 164.878 105.411C164.885 105.412 164.891 105.412 164.897 105.412C164.916 105.413 164.935 105.414 164.954 105.414C164.999 105.417 165.044 105.418 165.09 105.419C165.11 105.419 165.129 105.419 165.149 105.418H165.156C165.171 105.418 165.186 105.418 165.202 105.418C165.231 105.417 165.26 105.416 165.29 105.415C165.307 105.414 165.326 105.413 165.344 105.412C165.385 105.409 165.426 105.406 165.468 105.402C165.477 105.401 165.486 105.4 165.495 105.399C165.509 105.398 165.523 105.396 165.537 105.394C165.587 105.388 165.637 105.381 165.687 105.373C165.701 105.371 165.714 105.368 165.728 105.366C165.736 105.365 165.744 105.363 165.752 105.362C165.761 105.361 165.77 105.359 165.778 105.357C165.813 105.351 165.848 105.343 165.883 105.335C165.894 105.333 165.906 105.33 165.917 105.328C165.959 105.318 166.001 105.308 166.043 105.297C166.053 105.294 166.063 105.291 166.073 105.288C166.074 105.288 166.076 105.287 166.077 105.287C166.087 105.284 166.096 105.282 166.105 105.279C166.16 105.264 166.215 105.246 166.269 105.228C166.276 105.226 166.283 105.223 166.289 105.221C166.345 105.202 166.401 105.18 166.457 105.158C166.462 105.156 166.466 105.154 166.471 105.152C166.512 105.135 166.553 105.118 166.594 105.1C166.6 105.096 166.607 105.093 166.614 105.091C166.623 105.086 166.632 105.082 166.642 105.077C166.644 105.076 166.646 105.076 166.648 105.074C166.807 104.999 166.959 104.913 167.105 104.816C167.109 104.813 167.112 104.811 167.116 104.809C167.275 104.702 167.425 104.583 167.566 104.452C167.567 104.45 167.568 104.449 167.569 104.448C168.052 103.996 168.416 103.404 168.586 102.706C169.011 100.972 167.267 97.531 167.267 97.531C167.237 96.0018 168.932 94.4642 168.541 92.9306C168.358 92.2119 167.97 91.6081 167.461 91.1555L152.801 76.495Z" fill="url(#paint6_linear_32_171)"/>
<path d="M122.289 86.0199V79.8847C122.289 79.0933 122.93 78.4519 123.722 78.4519H194.274C195.066 78.4519 195.707 79.0933 195.707 79.8847V86.0199C195.707 86.8114 195.066 87.4533 194.274 87.4533H123.722C122.93 87.4533 122.289 86.8114 122.289 86.0199V86.0199Z" fill="url(#paint7_linear_32_171)"/>
<path d="M148.173 87.4533H162.576L153.574 78.4519H148.173V87.4533Z" fill="url(#paint8_linear_32_171)"/>
<path d="M143.698 108.382H137.563C136.772 108.382 136.13 107.74 136.13 106.949V67.0574C136.13 66.2659 136.772 65.624 137.563 65.624H143.698C144.49 65.624 145.132 66.2654 145.132 67.0574V106.949C145.132 107.74 144.49 108.382 143.698 108.382Z" fill="url(#paint9_linear_32_171)"/>
<path d="M136.13 88.3638L145.132 97.3658V84.4524H136.13V88.3638Z" fill="url(#paint10_linear_32_171)"/>
<path d="M139.471 79.855C138.682 79.203 137.815 78.5404 136.62 77.8906C135.345 77.1972 133.951 76.367 132.502 75.7358C130.48 74.8547 128.14 76.0091 127.615 78.1522C127.239 79.6898 128.948 81.2117 128.932 82.7409C128.932 82.7409 127.22 86.198 127.661 87.9277C128.206 90.0658 130.556 91.1984 132.571 90.2982C134.013 89.6535 135.399 88.8105 136.668 88.1053C137.857 87.4438 138.717 86.7733 139.5 86.114C141.445 84.4762 141.431 81.4744 139.471 79.855Z" fill="url(#paint11_linear_32_171)"/>
<path d="M152.315 82.5776C152.284 81.0484 153.979 79.5102 153.588 77.9766C153.044 75.8385 150.693 74.7059 148.679 75.6061C147.236 76.2508 145.85 77.0938 144.582 77.799C143.393 78.4605 142.532 79.131 141.75 79.7898C139.804 81.4282 139.819 84.4299 141.779 86.0493C142.568 86.7007 143.434 87.3634 144.63 88.0137C145.905 88.7072 147.298 89.5367 148.747 90.168C150.77 91.0497 153.11 89.8952 153.634 87.7521C154.059 86.0185 152.315 82.5776 152.315 82.5776Z" fill="url(#paint12_linear_32_171)"/>
<path d="M139.499 86.1143C140.119 85.5923 140.538 84.9319 140.761 84.2222C137.163 84.5616 131.547 85.8074 129.446 90.1916C130.376 90.6834 131.518 90.7679 132.57 90.298C134.012 89.6533 135.398 88.8103 136.667 88.1056C137.856 87.4441 138.716 86.773 139.499 86.1143Z" fill="url(#paint13_linear_32_171)"/>
<path d="M130.419 82.7431C130.426 84.1826 130.616 88.1422 134.586 89.2776C135.306 88.881 136.002 88.4744 136.666 88.1053C137.856 87.4443 138.716 86.7732 139.499 86.1145C140.589 85.1965 141.063 83.8499 140.925 82.5582C140.925 82.5582 138.841 81.4452 137.915 81.0027C132.916 78.6098 130.41 80.7176 130.419 82.7431Z" fill="url(#paint14_linear_32_171)"/>
<path d="M141.777 86.0502C141.152 85.5337 140.727 84.8778 140.498 84.1698C144.098 84.4756 149.726 85.6687 151.868 90.0333C150.942 90.5335 149.801 90.6287 148.745 90.1689C147.297 89.5376 145.902 88.7075 144.628 88.0146C143.432 87.3643 142.566 86.7016 141.777 86.0502Z" fill="url(#paint15_linear_32_171)"/>
<path d="M150.826 82.5932C150.832 84.0328 150.681 87.9941 146.721 89.1665C145.997 88.7766 145.297 88.3767 144.63 88.0137C143.434 87.3639 142.568 86.7013 141.779 86.0493C140.68 85.1419 140.193 83.7998 140.319 82.5064C140.319 82.5064 142.393 81.3744 143.314 80.9229C148.291 78.4835 150.816 80.5683 150.826 82.5932Z" fill="url(#paint16_linear_32_171)"/>
<path d="M153.011 89.059L144.108 80.1568C143.69 79.7098 143.187 79.3446 142.625 79.0841C142.316 79.3205 142.028 79.5563 141.749 79.7904C139.805 81.4283 139.819 84.4301 141.779 86.05C142.568 86.7014 143.434 87.3641 144.63 88.0144C145.905 88.7073 147.299 89.5374 148.747 90.1687C150.305 90.8476 152.05 90.3177 153.011 89.059Z" fill="url(#paint17_linear_32_171)"/>
<path d="M145.385 83.4035C145.385 86.0305 143.254 88.1607 140.627 88.1607C138 88.1607 135.87 86.0305 135.87 83.4035C135.87 80.7759 138 78.6462 140.627 78.6462C143.254 78.6462 145.385 80.7759 145.385 83.4035Z" fill="url(#paint18_linear_32_171)"/>
<path d="M146.743 92.2932C146.743 92.1644 146.819 92.0535 146.969 91.9599C147.12 91.8669 147.281 91.8204 147.453 91.8204C147.668 91.8204 147.8 91.8994 147.851 92.0568L149.624 98.183L151.387 92.0568C151.436 91.8994 151.564 91.8204 151.771 91.8204C151.942 91.8204 152.104 91.8669 152.257 91.9599C152.41 92.0523 152.487 92.1632 152.487 92.2915C152.487 92.3128 152.48 92.3453 152.466 92.3879L150.339 99.3532C150.303 99.4753 150.217 99.5711 150.082 99.6394C149.947 99.7077 149.794 99.7419 149.624 99.7419C149.23 99.7419 148.99 99.6125 148.904 99.3549L146.754 92.3901C146.747 92.3682 146.743 92.3363 146.743 92.2932Z" fill="url(#paint19_linear_32_171)"/>
<path d="M153.27 97.3451V94.2173C153.27 93.3933 153.488 92.7878 153.925 92.4007C154.362 92.0137 154.946 91.8204 155.677 91.8204C156.408 91.8204 156.993 92.0137 157.434 92.4007C157.875 92.7878 158.095 93.3933 158.095 94.2173V97.3451C158.095 98.169 157.875 98.7745 157.434 99.161C156.993 99.5481 156.408 99.7419 155.677 99.7419C154.946 99.7419 154.362 99.5481 153.925 99.161C153.487 98.7745 153.27 98.169 153.27 97.3451ZM154.408 97.3451C154.408 98.2693 154.831 98.7314 155.677 98.7314C156.085 98.7314 156.401 98.6166 156.623 98.3875C156.844 98.1584 156.956 97.8106 156.956 97.3451V94.2173C156.956 93.7512 156.845 93.4039 156.623 93.1748C156.401 92.9452 156.085 92.8309 155.677 92.8309C154.831 92.8309 154.408 93.293 154.408 94.2173V97.3451Z" fill="url(#paint20_linear_32_171)"/>
<path d="M159.396 97.3451V92.1857C159.396 92.0642 159.452 91.9723 159.563 91.9118C159.674 91.8508 159.808 91.8205 159.966 91.8205C160.124 91.8205 160.258 91.8508 160.369 91.9118C160.48 91.9723 160.536 92.0642 160.536 92.1857V97.3451C160.536 97.8106 160.65 98.1585 160.88 98.3876C161.109 98.6167 161.431 98.7315 161.847 98.7315C162.728 98.7315 163.169 98.2694 163.169 97.3446V92.1857C163.169 92.0636 163.224 91.9723 163.336 91.9112C163.447 91.8508 163.581 91.8199 163.739 91.8199C163.896 91.8199 164.031 91.8508 164.142 91.9112C164.253 91.9723 164.308 92.0636 164.308 92.1857V97.3446C164.308 98.1691 164.084 98.7741 163.637 99.1611C163.189 99.5482 162.592 99.7414 161.847 99.7414C161.109 99.7414 160.516 99.5482 160.068 99.1611C159.62 98.7746 159.396 98.1691 159.396 97.3451Z" fill="url(#paint21_linear_32_171)"/>
<path d="M165.619 97.3451V94.2173C165.619 93.3933 165.839 92.7878 166.28 92.4007C166.72 92.0137 167.295 91.8204 168.005 91.8204C168.736 91.8204 169.325 92.0014 169.773 92.3626C170.221 92.7251 170.444 93.1922 170.444 93.7652C170.444 93.9949 170.402 94.1506 170.315 94.2329C170.23 94.3153 170.082 94.3567 169.875 94.3567C169.502 94.3567 169.312 94.2313 169.305 93.9803C169.262 93.2141 168.843 92.8304 168.047 92.8304C167.188 92.8304 166.758 93.2925 166.758 94.2173V97.3451C166.758 98.2693 167.195 98.7314 168.069 98.7314C168.327 98.7314 168.542 98.6939 168.714 98.6188C168.886 98.5432 169.01 98.434 169.085 98.2906C169.16 98.1478 169.212 98.0223 169.241 97.9147C169.269 97.8072 169.291 97.6744 169.305 97.517C169.327 97.2661 169.513 97.1406 169.864 97.1406C170.072 97.1406 170.221 97.1821 170.31 97.2644C170.399 97.3468 170.444 97.5025 170.444 97.7321C170.444 98.327 170.219 98.8104 169.768 99.1829C169.316 99.5554 168.725 99.7419 167.994 99.7419C167.285 99.7419 166.711 99.5481 166.275 99.161C165.837 98.7745 165.619 98.169 165.619 97.3451Z" fill="url(#paint22_linear_32_171)"/>
<path d="M171.508 99.3011V92.1856C171.508 92.0641 171.563 91.9728 171.674 91.9117C171.785 91.8512 171.92 91.8204 172.077 91.8204C172.235 91.8204 172.369 91.8507 172.48 91.9117C172.591 91.9728 172.647 92.0641 172.647 92.1856V95.1521H175.323V92.1856C175.323 92.0641 175.379 91.9728 175.49 91.9117C175.601 91.8512 175.735 91.8204 175.893 91.8204C176.051 91.8204 176.185 91.8507 176.296 91.9117C176.407 91.9728 176.462 92.0641 176.462 92.1856V99.3011C176.462 99.4159 176.407 99.5072 176.296 99.575C176.185 99.6433 176.051 99.6775 175.893 99.6775C175.742 99.6775 175.61 99.6433 175.495 99.575C175.381 99.5072 175.323 99.4159 175.323 99.3011V96.0551H172.647V99.3011C172.647 99.4159 172.591 99.5072 172.48 99.575C172.369 99.6433 172.235 99.6775 172.077 99.6775C171.927 99.6775 171.794 99.6433 171.68 99.575C171.565 99.5072 171.508 99.4159 171.508 99.3011Z" fill="url(#paint23_linear_32_171)"/>
<path d="M177.882 99.3011V92.1963C177.882 92.082 177.933 91.9907 178.033 91.9224C178.133 91.854 178.251 91.8204 178.388 91.8204H182.214C182.336 91.8204 182.429 91.8703 182.493 91.9706C182.558 92.0708 182.59 92.1856 182.59 92.3145C182.59 92.4579 182.556 92.58 182.488 92.6802C182.42 92.7805 182.329 92.8304 182.214 92.8304H179.022V95.2922H180.677C180.792 95.2922 180.883 95.337 180.951 95.426C181.019 95.5162 181.053 95.6249 181.053 95.7543C181.053 95.8686 181.021 95.9711 180.956 96.0607C180.892 96.1503 180.799 96.1946 180.677 96.1946H179.022V98.667H182.214C182.329 98.667 182.42 98.7169 182.488 98.8171C182.556 98.9179 182.59 99.0395 182.59 99.1829C182.59 99.3117 182.558 99.4265 182.493 99.5268C182.429 99.6271 182.336 99.6769 182.214 99.6769H178.388C178.251 99.6769 178.133 99.6433 178.033 99.575C177.933 99.5072 177.882 99.4159 177.882 99.3011Z" fill="url(#paint24_linear_32_171)"/>
<path d="M183.504 99.3011V92.1856C183.504 92.0854 183.539 91.9997 183.611 91.928C183.683 91.8563 183.773 91.8204 183.88 91.8204H185.922C187.57 91.8204 188.394 92.5514 188.394 94.0128C188.394 94.6194 188.258 95.0956 187.986 95.4417C187.713 95.7879 187.344 96.0181 186.879 96.1324L188.383 98.9656C188.412 99.016 188.426 99.0697 188.426 99.1274C188.426 99.2708 188.353 99.4036 188.206 99.5263C188.059 99.6484 187.903 99.7094 187.739 99.7094C187.552 99.7094 187.402 99.598 187.287 99.3756L185.718 96.2915H184.632V99.3C184.632 99.4148 184.577 99.5066 184.466 99.575C184.355 99.6433 184.22 99.6775 184.062 99.6775C183.912 99.6775 183.781 99.6433 183.67 99.575C183.559 99.5072 183.504 99.4159 183.504 99.3011ZM184.633 95.3885H185.922C186.81 95.3885 187.255 94.9628 187.255 94.1097C187.255 93.2572 186.81 92.8304 185.922 92.8304H184.633V95.3885Z" fill="url(#paint25_linear_32_171)"/>
<path d="M305.158 22.0776C305.458 22.0776 305.701 21.835 305.701 21.5354L305.701 19.006C305.701 18.4924 305.285 18.0759 304.771 18.0759L280.946 18.0741C280.432 18.0741 280.016 18.4906 280.016 19.0042V21.5334C280.016 21.833 280.259 22.0759 280.558 22.0761C280.858 22.0761 281.101 22.319 281.101 22.6185L281.1 27.6032C281.1 27.9028 280.857 28.1457 280.558 28.1457C280.258 28.1457 280.015 28.3885 280.015 28.6881L280.015 31.2175C280.015 31.7311 280.432 32.1474 280.945 32.1476L304.77 32.1492C305.284 32.1492 305.7 31.7329 305.7 31.2193L305.7 28.6899C305.7 28.3903 305.457 28.1474 305.158 28.1474C304.858 28.1474 304.615 27.9045 304.615 27.6048L304.616 22.6201C304.616 22.3205 304.859 22.0776 305.158 22.0776Z" fill="url(#paint26_linear_32_171)"/>
<path d="M280.015 28.865L280.015 31.2176C280.015 31.7313 280.431 32.1476 280.945 32.1478L304.77 32.1493C305.284 32.1493 305.7 31.733 305.7 31.2194L305.7 28.8652H280.015V28.865Z" fill="url(#paint27_linear_32_171)"/>
<path d="M281.061 25.2695L282.768 26.9773V25.2695H281.061Z" fill="url(#paint28_linear_32_171)"/>
<path d="M288 18.1261L289.849 19.9751H288V18.1261Z" fill="url(#paint29_linear_32_171)"/>
<path d="M303.085 30.4287H282.862C282.525 30.4287 282.252 30.1558 282.252 29.8187V20.4052C282.252 20.0681 282.525 19.795 282.862 19.795H303.085C303.422 19.795 303.695 20.0681 303.695 20.4052V29.8187C303.695 30.1556 303.422 30.4287 303.085 30.4287Z" fill="url(#paint30_linear_32_171)"/>
<path d="M290.687 21.4316C290.339 21.0406 289.76 20.8895 289.243 21.1202C288.738 21.3462 288.252 21.6415 287.808 21.8883C287.54 22.0376 287.319 22.1882 287.123 22.3383C286.911 22.24 286.674 22.1849 286.425 22.1849C286.163 22.1849 285.915 22.2453 285.695 22.3528C285.501 22.2082 285.283 22.0635 285.02 21.9202C284.573 21.6776 284.085 21.3868 283.578 21.1657C282.87 20.8569 282.05 21.2613 281.866 22.0119C281.734 22.5504 282.333 23.0834 282.327 23.619C282.327 23.619 281.728 24.8299 281.882 25.4359C281.946 25.6864 282.081 25.8971 282.259 26.0552L287.29 31.0872C287.323 31.1237 287.357 31.1578 287.393 31.19C287.494 31.3032 287.613 31.3964 287.745 31.466C287.765 31.4768 287.786 31.4868 287.806 31.4962C287.807 31.4966 287.808 31.497 287.809 31.4972C287.828 31.5064 287.848 31.5151 287.869 31.5231C287.87 31.5237 287.872 31.5243 287.874 31.5249C287.893 31.5325 287.913 31.5398 287.932 31.5465C287.935 31.5473 287.937 31.548 287.94 31.5488C287.959 31.5551 287.978 31.5608 287.997 31.5663C288 31.5671 288.004 31.5681 288.007 31.5688C288.026 31.5739 288.044 31.5784 288.063 31.5826C288.067 31.5835 288.071 31.5843 288.075 31.5853C288.093 31.589 288.111 31.5924 288.129 31.5953C288.134 31.5961 288.139 31.5969 288.144 31.5977C288.162 31.6004 288.179 31.6026 288.197 31.6045C288.202 31.6051 288.208 31.6057 288.214 31.6063C288.23 31.6081 288.247 31.6091 288.264 31.61C288.271 31.6104 288.277 31.6108 288.283 31.611C288.3 31.6118 288.316 31.612 288.332 31.612C288.339 31.612 288.346 31.612 288.353 31.6118C288.369 31.6116 288.385 31.6108 288.401 31.61C288.408 31.6094 288.416 31.6093 288.424 31.6087C288.439 31.6075 288.454 31.6059 288.469 31.6041C288.478 31.6032 288.486 31.6024 288.494 31.6014C288.509 31.5994 288.523 31.5969 288.538 31.5943C288.547 31.593 288.555 31.5918 288.564 31.59C288.578 31.5873 288.593 31.5839 288.607 31.5806C288.616 31.5786 288.625 31.5769 288.633 31.5747C288.648 31.571 288.663 31.5667 288.677 31.5624C288.686 31.56 288.694 31.5578 288.703 31.5551C288.718 31.5502 288.734 31.5445 288.749 31.539C288.757 31.5365 288.764 31.5341 288.771 31.5314C288.794 31.5227 288.817 31.5133 288.839 31.5033C289.155 31.3623 289.463 31.1939 289.758 31.0272C289.817 30.9938 289.876 30.9607 289.934 30.9277C290.05 30.8618 290.163 30.797 290.274 30.7352C290.43 30.6483 290.57 30.561 290.699 30.4737C290.705 30.4694 290.711 30.4651 290.717 30.4608C290.986 30.646 291.311 30.7547 291.662 30.7547C292.024 30.7547 292.359 30.6389 292.632 30.4431C292.762 30.5302 292.904 30.6171 293.062 30.7033C293.118 30.7337 293.175 30.7649 293.232 30.7967C293.574 30.9862 293.939 31.1945 294.315 31.3719C294.378 31.4015 294.441 31.4303 294.504 31.4578C294.527 31.4678 294.55 31.4768 294.573 31.4853C294.58 31.488 294.587 31.4902 294.594 31.4927C294.595 31.4929 294.596 31.4931 294.596 31.4933C294.603 31.4959 294.611 31.4982 294.618 31.5006C294.626 31.5031 294.634 31.5061 294.642 31.5084C294.65 31.511 294.658 31.5131 294.667 31.5155C294.681 31.5194 294.695 31.5235 294.709 31.527C294.711 31.5274 294.712 31.5276 294.713 31.528C294.721 31.5298 294.729 31.5312 294.737 31.5329C294.751 31.5363 294.766 31.5394 294.781 31.5422C294.789 31.5437 294.797 31.5447 294.805 31.5461C294.811 31.5471 294.818 31.5482 294.825 31.5492C294.833 31.5504 294.842 31.5518 294.851 31.5527C294.859 31.5537 294.867 31.5545 294.875 31.5553C294.889 31.5567 294.903 31.5582 294.917 31.5592C294.92 31.5594 294.922 31.5596 294.924 31.5596C294.931 31.56 294.937 31.5602 294.944 31.5604C294.96 31.5612 294.975 31.5618 294.991 31.562C294.998 31.562 295.005 31.562 295.012 31.5618H295.014C295.02 31.5618 295.025 31.5618 295.031 31.5616C295.041 31.5614 295.051 31.561 295.061 31.5606C295.068 31.5602 295.074 31.5598 295.08 31.5594C295.095 31.5584 295.109 31.5575 295.124 31.5561C295.127 31.5557 295.13 31.5553 295.133 31.5549C295.138 31.5545 295.143 31.5539 295.148 31.5531C295.166 31.5512 295.183 31.5488 295.2 31.5459C295.205 31.5451 295.21 31.5443 295.215 31.5435C295.218 31.5429 295.221 31.5425 295.223 31.542C295.226 31.5416 295.229 31.541 295.232 31.5404C295.245 31.5382 295.257 31.5355 295.269 31.5327C295.273 31.532 295.277 31.531 295.281 31.53C295.296 31.5267 295.311 31.5231 295.325 31.5192C295.329 31.5182 295.332 31.5172 295.336 31.5163C295.336 31.5161 295.337 31.5159 295.337 31.5159C295.341 31.5149 295.344 31.5139 295.347 31.5131C295.366 31.5076 295.385 31.5015 295.404 31.4951C295.407 31.4943 295.409 31.4935 295.411 31.4927C295.431 31.4858 295.451 31.4784 295.47 31.4705C295.472 31.47 295.474 31.4694 295.475 31.4686C295.49 31.4627 295.504 31.4566 295.518 31.4501C295.52 31.449 295.523 31.448 295.525 31.447C295.528 31.4454 295.532 31.4439 295.535 31.4423C295.536 31.4419 295.537 31.4417 295.537 31.4413C295.593 31.415 295.646 31.3848 295.697 31.3507C295.699 31.3499 295.7 31.3491 295.701 31.3483C295.757 31.311 295.809 31.2691 295.859 31.2232C295.859 31.2228 295.859 31.2224 295.86 31.222C296.029 31.0637 296.156 30.8563 296.216 30.6118C296.365 30.0047 295.754 28.7993 295.754 28.7993C295.743 28.2637 296.337 27.7252 296.2 27.188C296.136 26.9363 296 26.7248 295.822 26.5663L290.687 21.4316Z" fill="url(#paint31_linear_32_171)"/>
<path d="M280 24.7676V22.6188C280 22.3416 280.225 22.1169 280.502 22.1169H305.212C305.49 22.1169 305.714 22.3416 305.714 22.6188V24.7676C305.714 25.0448 305.49 25.2696 305.212 25.2696H280.502C280.225 25.2696 280 25.0448 280 24.7676V24.7676Z" fill="url(#paint32_linear_32_171)"/>
<path d="M289.065 25.2696H294.11L290.957 22.1169H289.065V25.2696Z" fill="url(#paint33_linear_32_171)"/>
<path d="M287.498 32.5998H285.349C285.072 32.5998 284.847 32.375 284.847 32.0978V18.1261C284.847 17.8489 285.072 17.624 285.349 17.624H287.498C287.775 17.624 288 17.8487 288 18.1261V32.0978C288 32.375 287.775 32.5998 287.498 32.5998Z" fill="url(#paint34_linear_32_171)"/>
<path d="M284.847 25.5886L288 28.7415V24.2186H284.847V25.5886Z" fill="url(#paint35_linear_32_171)"/>
<path d="M286.018 22.6083C285.742 22.3799 285.439 22.1478 285.02 21.9203C284.573 21.6774 284.085 21.3866 283.578 21.1655C282.869 20.8569 282.05 21.2613 281.866 22.0119C281.734 22.5504 282.333 23.0834 282.327 23.619C282.327 23.619 281.728 24.8299 281.882 25.4357C282.073 26.1845 282.896 26.5812 283.602 26.266C284.107 26.0401 284.593 25.7449 285.037 25.4979C285.453 25.2662 285.755 25.0314 286.029 24.8005C286.71 24.2268 286.705 23.1754 286.018 22.6083Z" fill="url(#paint36_linear_32_171)"/>
<path d="M290.517 23.5619C290.506 23.0263 291.1 22.4876 290.963 21.9505C290.772 21.2016 289.949 20.8049 289.243 21.1202C288.738 21.346 288.253 21.6413 287.808 21.8883C287.392 22.12 287.091 22.3548 286.816 22.5855C286.135 23.1594 286.14 24.2107 286.827 24.7779C287.103 25.0061 287.406 25.2381 287.825 25.4659C288.272 25.7088 288.76 25.9993 289.267 26.2204C289.976 26.5292 290.795 26.1249 290.979 25.3743C291.128 24.7671 290.517 23.5619 290.517 23.5619Z" fill="url(#paint37_linear_32_171)"/>
<path d="M286.027 24.8007C286.244 24.6178 286.391 24.3865 286.469 24.1379C285.209 24.2568 283.242 24.6931 282.506 26.2287C282.832 26.4009 283.232 26.4306 283.6 26.266C284.106 26.0402 284.591 25.7449 285.035 25.4981C285.452 25.2664 285.753 25.0314 286.027 24.8007Z" fill="url(#paint38_linear_32_171)"/>
<path d="M282.847 23.62C282.85 24.1241 282.916 25.511 284.307 25.9086C284.559 25.7697 284.803 25.6273 285.035 25.498C285.452 25.2665 285.753 25.0315 286.027 24.8008C286.409 24.4792 286.575 24.0076 286.527 23.5552C286.527 23.5552 285.797 23.1654 285.473 23.0104C283.722 22.1723 282.844 22.9105 282.847 23.62Z" fill="url(#paint39_linear_32_171)"/>
<path d="M286.825 24.7782C286.606 24.5973 286.457 24.3676 286.377 24.1196C287.638 24.2267 289.609 24.6446 290.359 26.1733C290.035 26.3485 289.635 26.3818 289.266 26.2208C288.758 25.9997 288.27 25.7089 287.824 25.4662C287.405 25.2385 287.101 25.0064 286.825 24.7782Z" fill="url(#paint40_linear_32_171)"/>
<path d="M289.995 23.5674C289.998 24.0716 289.944 25.459 288.557 25.8696C288.304 25.7331 288.059 25.593 287.825 25.4659C287.406 25.2383 287.103 25.0062 286.827 24.7779C286.442 24.46 286.271 23.99 286.315 23.537C286.315 23.537 287.042 23.1405 287.364 22.9824C289.108 22.128 289.992 22.8582 289.995 23.5674Z" fill="url(#paint41_linear_32_171)"/>
<path d="M290.76 25.8319L287.642 22.714C287.496 22.5574 287.32 22.4295 287.123 22.3383C287.015 22.421 286.914 22.5036 286.816 22.5856C286.135 23.1593 286.14 24.2106 286.827 24.778C287.103 25.0062 287.406 25.2383 287.825 25.466C288.272 25.7087 288.76 25.9995 289.267 26.2206C289.813 26.4583 290.424 26.2728 290.76 25.8319Z" fill="url(#paint42_linear_32_171)"/>
<path d="M288.089 23.8513C288.089 24.7714 287.343 25.5175 286.423 25.5175C285.503 25.5175 284.757 24.7714 284.757 23.8513C284.757 22.931 285.503 22.1851 286.423 22.1851C287.343 22.1851 288.089 22.931 288.089 23.8513Z" fill="url(#paint43_linear_32_171)"/>
<path d="M288.564 26.9647C288.564 26.9195 288.591 26.8807 288.644 26.8479C288.696 26.8154 288.753 26.7991 288.813 26.7991C288.888 26.7991 288.935 26.8267 288.952 26.8819L289.573 29.0275L290.191 26.8819C290.208 26.8267 290.253 26.7991 290.325 26.7991C290.385 26.7991 290.442 26.8154 290.496 26.8479C290.549 26.8803 290.576 26.9191 290.576 26.9641C290.576 26.9715 290.574 26.9829 290.569 26.9978L289.824 29.4374C289.811 29.4801 289.781 29.5137 289.734 29.5376C289.687 29.5616 289.633 29.5735 289.573 29.5735C289.435 29.5735 289.351 29.5282 289.321 29.438L288.568 26.9986C288.566 26.9909 288.564 26.9798 288.564 26.9647Z" fill="url(#paint44_linear_32_171)"/>
<path d="M290.851 28.734V27.6385C290.851 27.35 290.927 27.1379 291.08 27.0023C291.233 26.8668 291.438 26.7991 291.694 26.7991C291.95 26.7991 292.155 26.8668 292.309 27.0023C292.464 27.1379 292.541 27.35 292.541 27.6385V28.734C292.541 29.0226 292.464 29.2347 292.309 29.3701C292.155 29.5056 291.95 29.5735 291.694 29.5735C291.438 29.5735 291.233 29.5056 291.08 29.3701C290.927 29.2347 290.851 29.0226 290.851 28.734ZM291.249 28.734C291.249 29.0578 291.398 29.2196 291.694 29.2196C291.837 29.2196 291.947 29.1794 292.025 29.0991C292.103 29.0189 292.142 28.8971 292.142 28.734V27.6385C292.142 27.4753 292.103 27.3537 292.025 27.2734C291.947 27.193 291.837 27.153 291.694 27.153C291.398 27.153 291.249 27.3148 291.249 27.6385V28.734Z" fill="url(#paint45_linear_32_171)"/>
<path d="M292.996 28.7341V26.9271C292.996 26.8845 293.016 26.8523 293.054 26.8311C293.093 26.8097 293.14 26.7991 293.196 26.7991C293.251 26.7991 293.298 26.8097 293.337 26.8311C293.376 26.8523 293.395 26.8845 293.395 26.9271V28.7341C293.395 28.8972 293.435 29.019 293.516 29.0992C293.596 29.1795 293.709 29.2197 293.854 29.2197C294.163 29.2197 294.317 29.0578 294.317 28.7339V26.9271C294.317 26.8843 294.337 26.8523 294.376 26.8309C294.415 26.8097 294.462 26.799 294.517 26.799C294.572 26.799 294.619 26.8097 294.658 26.8309C294.697 26.8523 294.716 26.8843 294.716 26.9271V28.7339C294.716 29.0227 294.638 29.2346 294.481 29.3702C294.324 29.5057 294.115 29.5734 293.854 29.5734C293.596 29.5734 293.388 29.5057 293.231 29.3702C293.074 29.2348 292.996 29.0227 292.996 28.7341Z" fill="url(#paint46_linear_32_171)"/>
<path d="M295.175 28.734V27.6385C295.175 27.35 295.252 27.1379 295.407 27.0023C295.561 26.8668 295.762 26.7991 296.011 26.7991C296.267 26.7991 296.473 26.8624 296.63 26.989C296.787 27.1159 296.865 27.2795 296.865 27.4802C296.865 27.5607 296.851 27.6152 296.82 27.644C296.79 27.6729 296.739 27.6874 296.666 27.6874C296.535 27.6874 296.469 27.6435 296.466 27.5556C296.451 27.2872 296.305 27.1528 296.026 27.1528C295.725 27.1528 295.574 27.3146 295.574 27.6385V28.734C295.574 29.0578 295.727 29.2196 296.034 29.2196C296.124 29.2196 296.199 29.2065 296.259 29.1802C296.32 29.1537 296.363 29.1154 296.389 29.0652C296.416 29.0152 296.434 28.9712 296.444 28.9336C296.454 28.8959 296.461 28.8494 296.466 28.7943C296.474 28.7064 296.539 28.6624 296.662 28.6624C296.735 28.6624 296.787 28.677 296.819 28.7058C296.85 28.7346 296.865 28.7892 296.865 28.8696C296.865 29.078 296.786 29.2473 296.628 29.3777C296.47 29.5082 296.263 29.5735 296.007 29.5735C295.759 29.5735 295.558 29.5056 295.405 29.3701C295.252 29.2347 295.175 29.0226 295.175 28.734Z" fill="url(#paint47_linear_32_171)"/>
<path d="M297.239 29.4191V26.927C297.239 26.8844 297.258 26.8524 297.297 26.8311C297.336 26.8099 297.383 26.7991 297.438 26.7991C297.493 26.7991 297.541 26.8097 297.579 26.8311C297.618 26.8524 297.638 26.8844 297.638 26.927V27.966H298.575V26.927C298.575 26.8844 298.595 26.8524 298.633 26.8311C298.672 26.8099 298.719 26.7991 298.775 26.7991C298.83 26.7991 298.877 26.8097 298.916 26.8311C298.955 26.8524 298.974 26.8844 298.974 26.927V29.4191C298.974 29.4593 298.955 29.4913 298.916 29.5151C298.877 29.539 298.83 29.551 298.775 29.551C298.722 29.551 298.675 29.539 298.635 29.5151C298.595 29.4913 298.575 29.4593 298.575 29.4191V28.2822H297.638V29.4191C297.638 29.4593 297.618 29.4913 297.579 29.5151C297.541 29.539 297.493 29.551 297.438 29.551C297.386 29.551 297.339 29.539 297.299 29.5151C297.259 29.4913 297.239 29.4593 297.239 29.4191Z" fill="url(#paint48_linear_32_171)"/>
<path d="M299.471 29.4191V26.9307C299.471 26.8907 299.489 26.8587 299.524 26.8348C299.559 26.8108 299.6 26.7991 299.648 26.7991H300.988C301.031 26.7991 301.064 26.8165 301.086 26.8516C301.109 26.8868 301.12 26.927 301.12 26.9721C301.12 27.0223 301.108 27.0651 301.084 27.1002C301.06 27.1353 301.029 27.1528 300.988 27.1528H299.87V28.015H300.45C300.49 28.015 300.522 28.0307 300.546 28.0619C300.57 28.0935 300.582 28.1316 300.582 28.1769C300.582 28.2169 300.57 28.2528 300.548 28.2842C300.525 28.3156 300.493 28.3311 300.45 28.3311H299.87V29.197H300.988C301.029 29.197 301.06 29.2145 301.084 29.2496C301.108 29.2849 301.12 29.3275 301.12 29.3777C301.12 29.4229 301.109 29.4631 301.086 29.4982C301.064 29.5333 301.031 29.5508 300.988 29.5508H299.648C299.6 29.5508 299.559 29.539 299.524 29.5151C299.489 29.4913 299.471 29.4593 299.471 29.4191Z" fill="url(#paint49_linear_32_171)"/>
<path d="M301.44 29.4191V26.927C301.44 26.8919 301.452 26.8619 301.478 26.8367C301.503 26.8116 301.534 26.7991 301.572 26.7991H302.287C302.864 26.7991 303.153 27.0551 303.153 27.5669C303.153 27.7794 303.105 27.9462 303.01 28.0674C302.914 28.1887 302.785 28.2693 302.622 28.3093L303.149 29.3016C303.159 29.3193 303.164 29.3381 303.164 29.3583C303.164 29.4085 303.138 29.455 303.087 29.498C303.035 29.5408 302.981 29.5621 302.923 29.5621C302.858 29.5621 302.805 29.5231 302.765 29.4452L302.215 28.365H301.835V29.4187C301.835 29.459 301.816 29.4911 301.777 29.5151C301.738 29.539 301.691 29.551 301.636 29.551C301.583 29.551 301.537 29.539 301.498 29.5151C301.459 29.4913 301.44 29.4593 301.44 29.4191ZM301.835 28.0488H302.287C302.598 28.0488 302.754 27.8997 302.754 27.6009C302.754 27.3023 302.598 27.1528 302.287 27.1528H301.835V28.0488Z" fill="url(#paint50_linear_32_171)"/>
<defs>
<linearGradient id="paint0_linear_32_171" x1="175.45" y1="-31.4216" x2="182.502" y2="322.418" gradientUnits="userSpaceOnUse">
<stop stop-color="#FD749B"/>
<stop offset="1" stop-color="#281AC8"/>
</linearGradient>
<linearGradient id="paint1_linear_32_171" x1="139.981" y1="67.9838" x2="189.616" y2="117.619" gradientUnits="userSpaceOnUse">
<stop stop-color="#FFD459"/>
<stop offset="0.2296" stop-color="#FFD355"/>
<stop offset="0.4362" stop-color="#FFCF4A"/>
<stop offset="0.634" stop-color="#FFC838"/>
<stop offset="0.825" stop-color="#FFBF1F"/>
<stop offset="1" stop-color="#FFB400"/>
</linearGradient>
<linearGradient id="paint2_linear_32_171" x1="158.999" y1="101.864" x2="158.999" y2="109.233" gradientUnits="userSpaceOnUse">
<stop stop-color="#E58200" stop-opacity="0"/>
<stop offset="0.0396" stop-color="#E27F04" stop-opacity="0.039216"/>
<stop offset="0.4671" stop-color="#C15D2F" stop-opacity="0.466667"/>
<stop offset="0.8016" stop-color="#AD4949" stop-opacity="0.8"/>
<stop offset="1" stop-color="#A64153"/>
</linearGradient>
<linearGradient id="paint3_linear_32_171" x1="129.117" y1="90.5698" x2="127.177" y2="86.1343" gradientUnits="userSpaceOnUse">
<stop stop-color="#E58200" stop-opacity="0"/>
<stop offset="0.0396" stop-color="#E27F04" stop-opacity="0.039216"/>
<stop offset="0.4671" stop-color="#C15D2F" stop-opacity="0.466667"/>
<stop offset="0.8016" stop-color="#AD4949" stop-opacity="0.8"/>
<stop offset="1" stop-color="#A64153"/>
</linearGradient>
<linearGradient id="paint4_linear_32_171" x1="148.803" y1="72.2933" x2="137.55" y2="64.3414" gradientUnits="userSpaceOnUse">
<stop stop-color="#E58200" stop-opacity="0"/>
<stop offset="0.0396" stop-color="#E27F04" stop-opacity="0.039216"/>
<stop offset="0.4671" stop-color="#C15D2F" stop-opacity="0.466667"/>
<stop offset="0.8016" stop-color="#AD4949" stop-opacity="0.8"/>
<stop offset="1" stop-color="#A64153"/>
</linearGradient>
<linearGradient id="paint5_linear_32_171" x1="143.908" y1="71.5772" x2="184.16" y2="111.835" gradientUnits="userSpaceOnUse">
<stop stop-color="#FFFCF8"/>
<stop offset="0.1875" stop-color="#FAF8F6"/>
<stop offset="0.4041" stop-color="#ECEEF2"/>
<stop offset="0.6353" stop-color="#D5DCEA"/>
<stop offset="0.875" stop-color="#B5C4DF"/>
<stop offset="1" stop-color="#A1B5D8"/>
</linearGradient>
<linearGradient id="paint6_linear_32_171" x1="151.142" y1="97.3796" x2="138.539" y2="68.5728" gradientUnits="userSpaceOnUse">
<stop stop-color="#A1B5D8" stop-opacity="0"/>
<stop offset="0.0343" stop-color="#9FB3D5" stop-opacity="0.035294"/>
<stop offset="0.4515" stop-color="#8898AF" stop-opacity="0.45098"/>
<stop offset="0.788" stop-color="#798898" stop-opacity="0.788235"/>
<stop offset="1" stop-color="#748290"/>
</linearGradient>
<linearGradient id="paint7_linear_32_171" x1="158.998" y1="81.1518" x2="158.998" y2="90.9041" gradientUnits="userSpaceOnUse">
<stop stop-color="#FF6E3A"/>
<stop offset="0.1596" stop-color="#FF6440"/>
<stop offset="0.4266" stop-color="#FF4B52"/>
<stop offset="0.7662" stop-color="#FF216E"/>
<stop offset="1" stop-color="#FF0084"/>
</linearGradient>
<linearGradient id="paint8_linear_32_171" x1="156.875" y1="88.9537" x2="146.322" y2="78.4011" gradientUnits="userSpaceOnUse">
<stop stop-color="#E58200" stop-opacity="0"/>
<stop offset="0.4384" stop-color="#C4602C" stop-opacity="0.439216"/>
<stop offset="0.7953" stop-color="#AE4948" stop-opacity="0.796078"/>
<stop offset="1" stop-color="#A64153"/>
</linearGradient>
<linearGradient id="paint9_linear_32_171" x1="140.631" y1="84.5219" x2="140.631" y2="118.124" gradientUnits="userSpaceOnUse">
<stop stop-color="#FF6E3A"/>
<stop offset="0.1596" stop-color="#FF6440"/>
<stop offset="0.4266" stop-color="#FF4B52"/>
<stop offset="0.7662" stop-color="#FF216E"/>
<stop offset="1" stop-color="#FF0084"/>
</linearGradient>
<linearGradient id="paint10_linear_32_171" x1="146.394" y1="92.1706" x2="136.513" y2="82.2898" gradientUnits="userSpaceOnUse">
<stop stop-color="#E58200" stop-opacity="0"/>
<stop offset="0.4384" stop-color="#C4602C" stop-opacity="0.439216"/>
<stop offset="0.7953" stop-color="#AE4948" stop-opacity="0.796078"/>
<stop offset="1" stop-color="#A64153"/>
</linearGradient>
<linearGradient id="paint11_linear_32_171" x1="136.018" y1="91.6717" x2="132.006" y2="76.5043" gradientUnits="userSpaceOnUse">
<stop stop-color="#FF0084"/>
<stop offset="0.2338" stop-color="#FF216E"/>
<stop offset="0.5734" stop-color="#FF4B52"/>
<stop offset="0.8404" stop-color="#FF6440"/>
<stop offset="1" stop-color="#FF6E3A"/>
</linearGradient>
<linearGradient id="paint12_linear_32_171" x1="146.456" y1="92.3914" x2="147.826" y2="73.7991" gradientUnits="userSpaceOnUse">
<stop stop-color="#FF0084"/>
<stop offset="0.2338" stop-color="#FF216E"/>
<stop offset="0.5734" stop-color="#FF4B52"/>
<stop offset="0.8404" stop-color="#FF6440"/>
<stop offset="1" stop-color="#FF6E3A"/>
</linearGradient>
<linearGradient id="paint13_linear_32_171" x1="135.178" y1="88.9781" x2="134.896" y2="83.224" gradientUnits="userSpaceOnUse">
<stop stop-color="#E58200" stop-opacity="0"/>
<stop offset="0.4384" stop-color="#C4602C" stop-opacity="0.439216"/>
<stop offset="0.7953" stop-color="#AE4948" stop-opacity="0.796078"/>
<stop offset="1" stop-color="#A64153"/>
</linearGradient>
<linearGradient id="paint14_linear_32_171" x1="133.829" y1="84.7079" x2="143.457" y2="76.9312" gradientUnits="userSpaceOnUse">
<stop stop-color="#E58200" stop-opacity="0"/>
<stop offset="0.4384" stop-color="#C4602C" stop-opacity="0.439216"/>
<stop offset="0.7953" stop-color="#AE4948" stop-opacity="0.796078"/>
<stop offset="1" stop-color="#A64153"/>
</linearGradient>
<linearGradient id="paint15_linear_32_171" x1="146.097" y1="88.8726" x2="146.326" y2="83.115" gradientUnits="userSpaceOnUse">
<stop stop-color="#E58200" stop-opacity="0"/>
<stop offset="0.4384" stop-color="#C4602C" stop-opacity="0.439216"/>
<stop offset="0.7953" stop-color="#AE4948" stop-opacity="0.796078"/>
<stop offset="1" stop-color="#A64153"/>
</linearGradient>
<linearGradient id="paint16_linear_32_171" x1="147.408" y1="84.589" x2="137.707" y2="76.903" gradientUnits="userSpaceOnUse">
<stop stop-color="#E58200" stop-opacity="0"/>
<stop offset="0.4384" stop-color="#C4602C" stop-opacity="0.439216"/>
<stop offset="0.7953" stop-color="#AE4948" stop-opacity="0.796078"/>
<stop offset="1" stop-color="#A64153"/>
</linearGradient>
<linearGradient id="paint17_linear_32_171" x1="148.358" y1="88.5289" x2="140.946" y2="81.1175" gradientUnits="userSpaceOnUse">
<stop stop-color="#E58200" stop-opacity="0"/>
<stop offset="0.4384" stop-color="#C4602C" stop-opacity="0.439216"/>
<stop offset="0.7953" stop-color="#AE4948" stop-opacity="0.796078"/>
<stop offset="1" stop-color="#A64153"/>
</linearGradient>
<linearGradient id="paint18_linear_32_171" x1="137.877" y1="80.6526" x2="144.691" y2="87.4667" gradientUnits="userSpaceOnUse">
<stop stop-color="#FF6E3A"/>
<stop offset="0.1596" stop-color="#FF6440"/>
<stop offset="0.4266" stop-color="#FF4B52"/>
<stop offset="0.7662" stop-color="#FF216E"/>
<stop offset="1" stop-color="#FF0084"/>
</linearGradient>
<linearGradient id="paint19_linear_32_171" x1="149.615" y1="94.17" x2="149.615" y2="101.491" gradientUnits="userSpaceOnUse">
<stop stop-color="#45425A"/>
<stop offset="1" stop-color="#2D3251"/>
</linearGradient>
<linearGradient id="paint20_linear_32_171" x1="155.682" y1="94.17" x2="155.682" y2="101.491" gradientUnits="userSpaceOnUse">
<stop stop-color="#45425A"/>
<stop offset="1" stop-color="#2D3251"/>
</linearGradient>
<linearGradient id="paint21_linear_32_171" x1="161.852" y1="94.1701" x2="161.852" y2="101.491" gradientUnits="userSpaceOnUse">
<stop stop-color="#45425A"/>
<stop offset="1" stop-color="#2D3251"/>
</linearGradient>
<linearGradient id="paint22_linear_32_171" x1="168.032" y1="94.17" x2="168.032" y2="101.491" gradientUnits="userSpaceOnUse">
<stop stop-color="#45425A"/>
<stop offset="1" stop-color="#2D3251"/>
</linearGradient>
<linearGradient id="paint23_linear_32_171" x1="173.985" y1="94.17" x2="173.985" y2="101.491" gradientUnits="userSpaceOnUse">
<stop stop-color="#45425A"/>
<stop offset="1" stop-color="#2D3251"/>
</linearGradient>
<linearGradient id="paint24_linear_32_171" x1="180.236" y1="94.17" x2="180.236" y2="101.491" gradientUnits="userSpaceOnUse">
<stop stop-color="#45425A"/>
<stop offset="1" stop-color="#2D3251"/>
</linearGradient>
<linearGradient id="paint25_linear_32_171" x1="185.965" y1="94.17" x2="185.965" y2="101.491" gradientUnits="userSpaceOnUse">
<stop stop-color="#45425A"/>
<stop offset="1" stop-color="#2D3251"/>
</linearGradient>
<linearGradient id="paint26_linear_32_171" x1="286.197" y1="18.4504" x2="303.581" y2="35.8348" gradientUnits="userSpaceOnUse">
<stop stop-color="#FFD459"/>
<stop offset="0.2296" stop-color="#FFD355"/>
<stop offset="0.4362" stop-color="#FFCF4A"/>
<stop offset="0.634" stop-color="#FFC838"/>
<stop offset="0.825" stop-color="#FFBF1F"/>
<stop offset="1" stop-color="#FFB400"/>
</linearGradient>
<linearGradient id="paint27_linear_32_171" x1="292.858" y1="30.3166" x2="292.858" y2="32.8976" gradientUnits="userSpaceOnUse">
<stop stop-color="#E58200" stop-opacity="0"/>
<stop offset="0.0396" stop-color="#E27F04" stop-opacity="0.039216"/>
<stop offset="0.4671" stop-color="#C15D2F" stop-opacity="0.466667"/>
<stop offset="0.8016" stop-color="#AD4949" stop-opacity="0.8"/>
<stop offset="1" stop-color="#A64153"/>
</linearGradient>
<linearGradient id="paint28_linear_32_171" x1="282.392" y1="26.3611" x2="281.712" y2="24.8076" gradientUnits="userSpaceOnUse">
<stop stop-color="#E58200" stop-opacity="0"/>
<stop offset="0.0396" stop-color="#E27F04" stop-opacity="0.039216"/>
<stop offset="0.4671" stop-color="#C15D2F" stop-opacity="0.466667"/>
<stop offset="0.8016" stop-color="#AD4949" stop-opacity="0.8"/>
<stop offset="1" stop-color="#A64153"/>
</linearGradient>
<linearGradient id="paint29_linear_32_171" x1="289.286" y1="19.9599" x2="285.345" y2="17.1748" gradientUnits="userSpaceOnUse">
<stop stop-color="#E58200" stop-opacity="0"/>
<stop offset="0.0396" stop-color="#E27F04" stop-opacity="0.039216"/>
<stop offset="0.4671" stop-color="#C15D2F" stop-opacity="0.466667"/>
<stop offset="0.8016" stop-color="#AD4949" stop-opacity="0.8"/>
<stop offset="1" stop-color="#A64153"/>
</linearGradient>
<linearGradient id="paint30_linear_32_171" x1="287.572" y1="19.7091" x2="301.67" y2="33.8092" gradientUnits="userSpaceOnUse">
<stop stop-color="#FFFCF8"/>
<stop offset="0.1875" stop-color="#FAF8F6"/>
<stop offset="0.4041" stop-color="#ECEEF2"/>
<stop offset="0.6353" stop-color="#D5DCEA"/>
<stop offset="0.875" stop-color="#B5C4DF"/>
<stop offset="1" stop-color="#A1B5D8"/>
</linearGradient>
<linearGradient id="paint31_linear_32_171" x1="290.106" y1="28.7463" x2="285.692" y2="18.6568" gradientUnits="userSpaceOnUse">
<stop stop-color="#A1B5D8" stop-opacity="0"/>
<stop offset="0.0343" stop-color="#9FB3D5" stop-opacity="0.035294"/>
<stop offset="0.4515" stop-color="#8898AF" stop-opacity="0.45098"/>
<stop offset="0.788" stop-color="#798898" stop-opacity="0.788235"/>
<stop offset="1" stop-color="#748290"/>
</linearGradient>
<linearGradient id="paint32_linear_32_171" x1="292.857" y1="23.0626" x2="292.857" y2="26.4783" gradientUnits="userSpaceOnUse">
<stop stop-color="#FF6E3A"/>
<stop offset="0.1596" stop-color="#FF6440"/>
<stop offset="0.4266" stop-color="#FF4B52"/>
<stop offset="0.7662" stop-color="#FF216E"/>
<stop offset="1" stop-color="#FF0084"/>
</linearGradient>
<linearGradient id="paint33_linear_32_171" x1="292.113" y1="25.7951" x2="288.417" y2="22.0991" gradientUnits="userSpaceOnUse">
<stop stop-color="#E58200" stop-opacity="0"/>
<stop offset="0.4384" stop-color="#C4602C" stop-opacity="0.439216"/>
<stop offset="0.7953" stop-color="#AE4948" stop-opacity="0.796078"/>
<stop offset="1" stop-color="#A64153"/>
</linearGradient>
<linearGradient id="paint34_linear_32_171" x1="286.423" y1="24.2429" x2="286.423" y2="36.0117" gradientUnits="userSpaceOnUse">
<stop stop-color="#FF6E3A"/>
<stop offset="0.1596" stop-color="#FF6440"/>
<stop offset="0.4266" stop-color="#FF4B52"/>
<stop offset="0.7662" stop-color="#FF216E"/>
<stop offset="1" stop-color="#FF0084"/>
</linearGradient>
<linearGradient id="paint35_linear_32_171" x1="288.442" y1="26.9219" x2="284.981" y2="23.4612" gradientUnits="userSpaceOnUse">
<stop stop-color="#E58200" stop-opacity="0"/>
<stop offset="0.4384" stop-color="#C4602C" stop-opacity="0.439216"/>
<stop offset="0.7953" stop-color="#AE4948" stop-opacity="0.796078"/>
<stop offset="1" stop-color="#A64153"/>
</linearGradient>
<linearGradient id="paint36_linear_32_171" x1="284.809" y1="26.747" x2="283.404" y2="21.4347" gradientUnits="userSpaceOnUse">
<stop stop-color="#FF0084"/>
<stop offset="0.2338" stop-color="#FF216E"/>
<stop offset="0.5734" stop-color="#FF4B52"/>
<stop offset="0.8404" stop-color="#FF6440"/>
<stop offset="1" stop-color="#FF6E3A"/>
</linearGradient>
<linearGradient id="paint37_linear_32_171" x1="288.465" y1="26.9992" x2="288.945" y2="20.4873" gradientUnits="userSpaceOnUse">
<stop stop-color="#FF0084"/>
<stop offset="0.2338" stop-color="#FF216E"/>
<stop offset="0.5734" stop-color="#FF4B52"/>
<stop offset="0.8404" stop-color="#FF6440"/>
<stop offset="1" stop-color="#FF6E3A"/>
</linearGradient>
<linearGradient id="paint38_linear_32_171" x1="284.514" y1="25.8037" x2="284.415" y2="23.7883" gradientUnits="userSpaceOnUse">
<stop stop-color="#E58200" stop-opacity="0"/>
<stop offset="0.4384" stop-color="#C4602C" stop-opacity="0.439216"/>
<stop offset="0.7953" stop-color="#AE4948" stop-opacity="0.796078"/>
<stop offset="1" stop-color="#A64153"/>
</linearGradient>
<linearGradient id="paint39_linear_32_171" x1="284.042" y1="24.3081" x2="287.414" y2="21.5844" gradientUnits="userSpaceOnUse">
<stop stop-color="#E58200" stop-opacity="0"/>
<stop offset="0.4384" stop-color="#C4602C" stop-opacity="0.439216"/>
<stop offset="0.7953" stop-color="#AE4948" stop-opacity="0.796078"/>
<stop offset="1" stop-color="#A64153"/>
</linearGradient>
<linearGradient id="paint40_linear_32_171" x1="288.338" y1="25.7668" x2="288.418" y2="23.7502" gradientUnits="userSpaceOnUse">
<stop stop-color="#E58200" stop-opacity="0"/>
<stop offset="0.4384" stop-color="#C4602C" stop-opacity="0.439216"/>
<stop offset="0.7953" stop-color="#AE4948" stop-opacity="0.796078"/>
<stop offset="1" stop-color="#A64153"/>
</linearGradient>
<linearGradient id="paint41_linear_32_171" x1="288.798" y1="24.2664" x2="285.401" y2="21.5744" gradientUnits="userSpaceOnUse">
<stop stop-color="#E58200" stop-opacity="0"/>
<stop offset="0.4384" stop-color="#C4602C" stop-opacity="0.439216"/>
<stop offset="0.7953" stop-color="#AE4948" stop-opacity="0.796078"/>
<stop offset="1" stop-color="#A64153"/>
</linearGradient>
<linearGradient id="paint42_linear_32_171" x1="289.131" y1="25.6463" x2="286.535" y2="23.0505" gradientUnits="userSpaceOnUse">
<stop stop-color="#E58200" stop-opacity="0"/>
<stop offset="0.4384" stop-color="#C4602C" stop-opacity="0.439216"/>
<stop offset="0.7953" stop-color="#AE4948" stop-opacity="0.796078"/>
<stop offset="1" stop-color="#A64153"/>
</linearGradient>
<linearGradient id="paint43_linear_32_171" x1="285.46" y1="22.8878" x2="287.846" y2="25.2744" gradientUnits="userSpaceOnUse">
<stop stop-color="#FF6E3A"/>
<stop offset="0.1596" stop-color="#FF6440"/>
<stop offset="0.4266" stop-color="#FF4B52"/>
<stop offset="0.7662" stop-color="#FF216E"/>
<stop offset="1" stop-color="#FF0084"/>
</linearGradient>
<linearGradient id="paint44_linear_32_171" x1="289.57" y1="27.622" x2="289.57" y2="30.1862" gradientUnits="userSpaceOnUse">
<stop stop-color="#45425A"/>
<stop offset="1" stop-color="#2D3251"/>
</linearGradient>
<linearGradient id="paint45_linear_32_171" x1="291.696" y1="27.622" x2="291.696" y2="30.1862" gradientUnits="userSpaceOnUse">
<stop stop-color="#45425A"/>
<stop offset="1" stop-color="#2D3251"/>
</linearGradient>
<linearGradient id="paint46_linear_32_171" x1="293.856" y1="27.6221" x2="293.856" y2="30.1863" gradientUnits="userSpaceOnUse">
<stop stop-color="#45425A"/>
<stop offset="1" stop-color="#2D3251"/>
</linearGradient>
<linearGradient id="paint47_linear_32_171" x1="296.02" y1="27.622" x2="296.02" y2="30.1862" gradientUnits="userSpaceOnUse">
<stop stop-color="#45425A"/>
<stop offset="1" stop-color="#2D3251"/>
</linearGradient>
<linearGradient id="paint48_linear_32_171" x1="298.106" y1="27.622" x2="298.106" y2="30.1862" gradientUnits="userSpaceOnUse">
<stop stop-color="#45425A"/>
<stop offset="1" stop-color="#2D3251"/>
</linearGradient>
<linearGradient id="paint49_linear_32_171" x1="300.296" y1="27.622" x2="300.296" y2="30.1862" gradientUnits="userSpaceOnUse">
<stop stop-color="#45425A"/>
<stop offset="1" stop-color="#2D3251"/>
</linearGradient>
<linearGradient id="paint50_linear_32_171" x1="302.302" y1="27.622" x2="302.302" y2="30.1862" gradientUnits="userSpaceOnUse">
<stop stop-color="#45425A"/>
<stop offset="1" stop-color="#2D3251"/>
</linearGradient>
</defs>
</svg>
