<svg width="319" height="200" viewBox="0 0 319 200" fill="none" xmlns="http://www.w3.org/2000/svg">
<rect width="319" height="199.62" rx="10" fill="black"/>
<path fill-rule="evenodd" clip-rule="evenodd" d="M159.5 100.455C173.031 100.455 184 89.4861 184 75.9551C184 62.4241 173.031 51.4551 159.5 51.4551C145.969 51.4551 135 62.4241 135 75.9551C135 77.6084 135.164 79.2235 135.476 80.7849L149.756 81.2009C150.686 79.4312 152.28 78.0124 154.322 77.3378L154.474 70.4419C154.459 70.401 154.444 70.3605 154.428 70.3201C154.397 70.2393 154.367 70.1587 154.341 70.075C152.893 65.3421 155.572 60.3266 160.324 58.873C165.076 57.4196 170.103 60.0777 171.551 64.8107C172.698 68.5604 171.25 72.4793 168.241 74.6725L163.965 81.3688C164.148 81.743 164.313 82.1297 164.438 82.5396C165.721 86.7342 163.348 91.1796 159.139 92.4673C155.507 93.5782 151.7 91.975 149.896 88.8238L138.445 88.4905C142.721 95.6559 150.55 100.455 159.5 100.455ZM164.387 72.2639C167.023 71.4573 168.51 68.6727 167.706 66.0456C166.903 63.4185 164.113 61.9426 161.476 62.7492C158.838 63.5563 157.352 66.3401 158.155 68.9672C158.959 71.5943 161.747 73.0713 164.387 72.2639ZM164.96 74.1287C161.27 75.2576 157.366 73.1925 156.242 69.5162C155.117 65.8382 157.197 61.9428 160.887 60.8138C164.577 59.685 168.483 61.7494 169.608 65.4275C170.733 69.1038 168.651 72.9997 164.96 74.1287ZM154.279 80.8168C157.089 79.9574 160.061 81.5305 160.917 84.329C161.773 87.1275 160.19 90.0942 157.38 90.953C155.092 91.6528 152.697 90.7409 151.424 88.8674L154.805 88.9662C156.901 89.3764 158.941 88.0159 159.356 85.9218C159.773 83.8313 158.412 81.8024 156.314 81.3908L153.177 81.2996C153.519 81.1033 153.885 80.9375 154.279 80.8168Z" fill="white"/>
<path d="M116.756 140.168C115.524 140.168 114.42 139.968 113.444 139.568C112.468 139.168 111.684 138.576 111.092 137.792C110.516 137.008 110.212 136.064 110.18 134.96H114.548C114.612 135.584 114.828 136.064 115.196 136.4C115.564 136.72 116.044 136.88 116.636 136.88C117.244 136.88 117.724 136.744 118.076 136.472C118.428 136.184 118.604 135.792 118.604 135.296C118.604 134.88 118.46 134.536 118.172 134.264C117.9 133.992 117.556 133.768 117.14 133.592C116.74 133.416 116.164 133.216 115.412 132.992C114.324 132.656 113.436 132.32 112.748 131.984C112.06 131.648 111.468 131.152 110.972 130.496C110.476 129.84 110.228 128.984 110.228 127.928C110.228 126.36 110.796 125.136 111.932 124.256C113.068 123.36 114.548 122.912 116.372 122.912C118.228 122.912 119.724 123.36 120.86 124.256C121.996 125.136 122.604 126.368 122.684 127.952H118.244C118.212 127.408 118.012 126.984 117.644 126.68C117.276 126.36 116.804 126.2 116.228 126.2C115.732 126.2 115.332 126.336 115.028 126.608C114.724 126.864 114.572 127.24 114.572 127.736C114.572 128.28 114.828 128.704 115.34 129.008C115.852 129.312 116.652 129.64 117.74 129.992C118.828 130.36 119.708 130.712 120.38 131.048C121.068 131.384 121.66 131.872 122.156 132.512C122.652 133.152 122.9 133.976 122.9 134.984C122.9 135.944 122.652 136.816 122.156 137.6C121.676 138.384 120.972 139.008 120.044 139.472C119.116 139.936 118.02 140.168 116.756 140.168Z" fill="white"/>
<path d="M141.545 123.152V126.44H137.081V140H132.977V126.44H128.513V123.152H141.545Z" fill="white"/>
<path d="M151.709 126.44V129.848H157.205V133.016H151.709V136.712H157.925V140H147.605V123.152H157.925V126.44H151.709Z" fill="white"/>
<path d="M175.077 137.024H168.789L167.781 140H163.485L169.581 123.152H174.333L180.429 140H176.085L175.077 137.024ZM174.021 133.856L171.933 127.688L169.869 133.856H174.021Z" fill="white"/>
<path d="M205.365 123.152V140H201.261V129.896L197.493 140H194.181L190.389 129.872V140H186.285V123.152H191.133L195.861 134.816L200.541 123.152H205.365Z" fill="white"/>
<path fill-rule="evenodd" clip-rule="evenodd" d="M295.203 33.3296C300.679 33.3296 305.117 28.8909 305.117 23.4155C305.117 17.9401 300.679 13.5015 295.203 13.5015C289.728 13.5015 285.289 17.9401 285.289 23.4155C285.289 24.0846 285.355 24.7383 285.482 25.3702L291.259 25.5385C291.635 24.8224 292.28 24.2482 293.106 23.9752L293.168 21.1848C293.162 21.1682 293.156 21.1518 293.149 21.1355C293.137 21.1028 293.124 21.0702 293.114 21.0363C292.528 19.1211 293.612 17.0916 295.535 16.5034C297.458 15.9152 299.492 16.9908 300.078 18.9061C300.542 20.4234 299.956 22.0092 298.739 22.8967L297.009 25.6064C297.083 25.7578 297.149 25.9143 297.2 26.0802C297.719 27.7776 296.759 29.5764 295.055 30.0975C293.586 30.547 292.046 29.8983 291.316 28.6231L286.683 28.4883C288.413 31.3877 291.582 33.3296 295.203 33.3296ZM297.179 21.922C298.246 21.5957 298.848 20.4689 298.522 19.4058C298.197 18.3427 297.068 17.7455 296.001 18.0719C294.934 18.3985 294.332 19.525 294.658 20.588C294.983 21.6511 296.111 22.2488 297.179 21.922ZM297.411 22.6766C295.918 23.1335 294.338 22.2978 293.883 20.8102C293.428 19.3219 294.27 17.7456 295.763 17.2887C297.256 16.8319 298.837 17.6673 299.292 19.1557C299.747 20.6433 298.905 22.2198 297.411 22.6766ZM293.089 25.383C294.226 25.0353 295.429 25.6718 295.775 26.8043C296.122 27.9367 295.481 29.1372 294.344 29.4847C293.418 29.7679 292.449 29.3989 291.934 28.6407L293.302 28.6807C294.15 28.8467 294.975 28.2962 295.144 27.4488C295.312 26.6029 294.761 25.7819 293.913 25.6153L292.643 25.5784C292.782 25.499 292.93 25.4319 293.089 25.383Z" fill="white"/>
<circle cx="214.271" cy="119.271" r="3.62051" stroke="white" stroke-width="0.7"/>
<path d="M214.285 119.638H213.381V121.196H212.87V117.345H214.145C214.579 117.345 214.912 117.443 215.145 117.641C215.379 117.838 215.497 118.126 215.497 118.503C215.497 118.743 215.431 118.952 215.301 119.13C215.172 119.308 214.992 119.441 214.761 119.53L215.666 121.164V121.196H215.121L214.285 119.638ZM213.381 119.223H214.161C214.413 119.223 214.613 119.157 214.761 119.027C214.911 118.896 214.986 118.722 214.986 118.503C214.986 118.265 214.915 118.083 214.772 117.956C214.631 117.829 214.426 117.764 214.158 117.763H213.381V119.223Z" fill="white"/>
</svg>
