<svg width="21" height="21" viewBox="0 0 21 21" fill="none" xmlns="http://www.w3.org/2000/svg">
<path d="M11.7471 11.4301C11.8322 11.6269 11.8489 11.8504 11.8038 12.1038C11.7471 12.404 11.6154 12.6375 11.4103 12.8242C11.2018 13.006 10.9734 13.1077 10.7232 13.1311C10.4714 13.1544 10.1629 13.1311 9.79938 13.066L9.1757 12.946C8.96725 12.911 8.84384 12.8709 8.79715 12.8426C8.75546 12.8126 8.72878 12.7676 8.71877 12.7058C8.71377 12.6642 8.73378 12.5007 8.77547 12.2439L9.12066 10.3946L10.2296 10.5997C10.7166 10.6914 11.0668 10.7998 11.2869 10.9332C11.507 11.0633 11.6604 11.2317 11.7471 11.4301ZM11.8055 7.52962C11.6087 7.42623 11.2352 7.31784 10.6849 7.21611L9.74768 7.04102L9.35746 9.12552L10.2963 9.30228C10.7849 9.39233 11.1585 9.41568 11.4086 9.37732C11.6588 9.34397 11.8555 9.25225 12.0073 9.10884C12.154 8.96876 12.2507 8.78866 12.2908 8.56854C12.3341 8.34341 12.3141 8.14163 12.2291 7.9632C12.149 7.78477 12.0089 7.64469 11.8055 7.52962ZM20.1168 10.1277C20.1168 15.6025 15.6777 20.0416 10.2013 20.0416C4.72654 20.0416 0.289062 15.6025 0.289062 10.1277C0.289062 4.65135 4.72654 0.213868 10.2013 0.213868C15.6777 0.2122 20.1168 4.64968 20.1168 10.1277ZM14.2819 7.50794C14.1118 7.14107 13.83 6.83423 13.4414 6.57576C13.2913 6.47236 13.1029 6.38899 12.8961 6.30727L13.1796 4.80143L11.7321 4.53128L11.4686 5.9404L10.5365 5.7653L10.8016 4.35952L9.35246 4.08603L9.08731 5.49849L6.87608 5.07825L6.65595 6.26058L6.99448 6.32895C7.2196 6.36397 7.36969 6.41733 7.43973 6.4757C7.5131 6.5274 7.55646 6.59243 7.57647 6.66914C7.59648 6.74585 7.58314 6.91261 7.53645 7.16275L6.64428 11.9338C6.59926 12.1806 6.55256 12.3373 6.50587 12.4023C6.45918 12.4674 6.39414 12.5124 6.30576 12.5358C6.21738 12.5658 6.06396 12.5524 5.8405 12.5091L5.50031 12.4474L5.28019 13.6297L7.48809 14.0433L7.22794 15.4541L8.67542 15.7242L8.93723 14.3167L9.76102 14.4702C9.79771 14.4768 9.83106 14.4768 9.86775 14.4868L9.60594 15.8976L11.0517 16.1678L11.3402 14.6403C11.5887 14.6369 11.8138 14.6169 12.0123 14.5819C12.5476 14.4785 12.9912 14.2567 13.3364 13.9215C13.6799 13.5963 13.8967 13.2045 13.9817 12.7492C14.0534 12.3673 14.0267 12.0071 13.905 11.6686C13.7833 11.3234 13.5832 11.0399 13.3097 10.8081C13.1212 10.6447 12.8344 10.4763 12.4542 10.2995C12.8494 10.2411 13.1813 10.1361 13.4447 9.98599C13.7082 9.83591 13.9267 9.6408 14.0934 9.41234C14.2619 9.17554 14.3736 8.91873 14.4253 8.63858C14.4953 8.2567 14.452 7.87482 14.2819 7.50794Z" fill="#FFFBF7"/>
</svg>
