<svg width="159" height="159" viewBox="0 0 159 159" fill="none" xmlns="http://www.w3.org/2000/svg">
<path opacity="0.5" d="M57.3203 21.5114C56.8145 20.2067 55.3444 19.5545 54.0605 20.111C43.5652 24.6596 34.4461 31.9133 27.6475 41.1496C20.3476 51.0671 16.0253 62.8596 15.1871 75.1455C14.349 87.4314 17.0296 99.7017 22.915 110.519C28.8004 121.336 37.6467 130.251 48.4175 136.221C59.1882 142.191 71.4373 144.967 83.7293 144.225C96.0213 143.482 107.847 139.252 117.821 132.03C127.795 124.807 135.505 114.892 140.046 103.445C144.275 92.7849 145.593 81.2076 143.887 69.8968C143.679 68.5131 142.346 67.6122 140.972 67.8747C139.598 68.1373 138.702 69.4639 138.906 70.8482C140.433 81.212 139.209 91.8117 135.335 101.577C131.15 112.128 124.043 121.268 114.849 127.925C105.655 134.583 94.7545 138.482 83.4239 139.166C72.0932 139.851 60.8023 137.292 50.8739 131.789C40.9456 126.286 32.7912 118.068 27.3661 108.097C21.9411 98.1259 19.4701 86.8154 20.2427 75.4904C21.0153 64.1655 24.9995 53.2953 31.7285 44.1535C37.9561 35.6929 46.2959 29.0371 55.8938 24.8395C57.1759 24.2788 57.8261 22.8161 57.3203 21.5114Z" fill="#FFFBF7"/>
<path d="M86.4203 141.841C86.5712 143.232 87.8224 144.243 89.2065 144.037C100.521 142.36 111.207 137.714 120.165 130.552C129.783 122.862 137.01 112.59 140.999 100.939C144.989 89.2889 145.575 76.7429 142.69 64.7712C139.805 52.7996 133.567 41.8981 124.709 33.3442C115.85 24.7904 104.737 18.9384 92.6716 16.474C80.6063 14.0095 68.0885 15.0348 56.585 19.4295C45.0814 23.8243 35.0687 31.4065 27.7199 41.2879C20.8757 50.4905 16.6063 61.3323 15.3261 72.6991C15.1695 74.0896 16.2231 75.3046 17.6187 75.4067C19.0142 75.5089 20.2228 74.4593 20.384 73.0693C21.591 62.6633 25.5167 52.7416 31.7859 44.3118C38.56 35.2034 47.7896 28.2142 58.3934 24.1631C68.9972 20.1121 80.5359 19.1671 91.6575 21.4387C102.779 23.7104 113.023 29.1047 121.189 36.9895C129.355 44.8744 135.104 54.9231 137.764 65.9585C140.423 76.9938 139.883 88.5585 136.205 99.2976C132.528 110.037 125.866 119.505 117 126.594C108.795 133.154 99.0168 137.425 88.6595 138.995C87.276 139.205 86.2693 140.45 86.4203 141.841Z" fill="#FFFBF7"/>
<circle cx="79.7918" cy="79.9505" r="38.6345" fill="#C4C4C4"/>
<path d="M79.5 76.5999C76.766 76.5999 74.55 78.884 74.55 81.6999C74.55 84.5168 76.766 86.7999 79.5 86.7999C82.2334 86.7999 84.45 84.5168 84.45 81.6999C84.45 78.884 82.2334 76.5999 79.5 76.5999ZM92.7 71.4999H88.74C88.1955 71.4999 87.6088 71.0647 87.4368 70.5323L86.4132 67.3672C86.2406 66.8351 85.6545 66.3999 85.11 66.3999H73.89C73.3455 66.3999 72.7588 66.8351 72.5868 67.3675L71.5632 70.5326C71.3906 71.0647 70.8045 71.4999 70.26 71.4999H66.3C64.485 71.4999 63 73.0299 63 74.8999V90.1999C63 92.0699 64.485 93.5999 66.3 93.5999H92.7C94.515 93.5999 96 92.0699 96 90.1999V74.8999C96 73.0299 94.515 71.4999 92.7 71.4999ZM79.5 90.1999C74.9437 90.1999 71.25 86.3943 71.25 81.6999C71.25 77.0059 74.9437 73.1999 79.5 73.1999C84.0557 73.1999 87.75 77.0059 87.75 81.6999C87.75 86.3943 84.0557 90.1999 79.5 90.1999ZM91.545 77.2775C90.9074 77.2775 90.39 76.7451 90.39 76.0875C90.39 75.4306 90.9074 74.8975 91.545 74.8975C92.1832 74.8975 92.7 75.4306 92.7 76.0875C92.7 76.7451 92.1829 77.2775 91.545 77.2775Z" fill="white"/>
</svg>
