<svg width="41" height="31" viewBox="0 0 41 31" fill="none" xmlns="http://www.w3.org/2000/svg">
<path d="M3.99609 1.05469H30.9961C32.6461 1.05469 33.9961 2.40469 33.9961 4.05469V20.5547C33.9961 22.2047 32.6461 23.5547 30.9961 23.5547H3.99609C2.34609 23.5547 0.996094 22.2047 0.996094 20.5547V4.05469C0.996094 2.40469 2.34609 1.05469 3.99609 1.05469Z" stroke="#FFFBF7" stroke-width="2" stroke-linecap="round" stroke-linejoin="round"/>
<path d="M33.9961 8.55469H36.9961C38.6461 8.55469 39.9961 9.90469 39.9961 11.5547V26.5547C39.9961 28.2047 38.6461 29.5547 36.9961 29.5547H9.99609C8.34609 29.5547 6.99609 28.2047 6.99609 26.5547V23.5547" stroke="#FFFBF7" stroke-width="2" stroke-linecap="round" stroke-linejoin="round"/>
<path d="M0.996094 7.05469H33.9961" stroke="#FFFBF7" stroke-width="2" stroke-linecap="round" stroke-linejoin="round"/>
<path d="M6.99609 17.5547H11.4961" stroke="#FFFBF7" stroke-width="2" stroke-linecap="round" stroke-linejoin="round"/>
<path d="M23.4961 17.5547V19.0547" stroke="#FFFBF7" stroke-width="2" stroke-linecap="round" stroke-linejoin="round"/>
<path d="M27.9961 17.5547V19.0547" stroke="#FFFBF7" stroke-width="2" stroke-linecap="round" stroke-linejoin="round"/>
</svg>
