<svg width="46" height="46" viewBox="0 0 46 46" fill="none" xmlns="http://www.w3.org/2000/svg">
<path d="M46 23C46 10.2977 35.7022 0 23 0C10.2977 0 0 10.2977 0 23C0 35.7022 10.2977 46 23 46C35.7022 46 46 35.7022 46 23ZM2.0909 23C2.0909 11.4519 11.4519 2.0909 23 2.0909C34.5481 2.0909 43.9091 11.4519 43.9091 23C43.9091 34.5481 34.5481 43.9091 23 43.9091C11.4519 43.9091 2.0909 34.5481 2.0909 23Z" fill="#3C5A99"/>
<path d="M23.8829 36.2751V23H28.2633L28.9554 18.6007H23.8829V16.3948C23.8829 15.2469 24.2592 14.1513 25.9069 14.1513H29.2V9.76038H24.5248C20.5939 9.76038 19.5212 12.3489 19.5212 15.9369V18.5987H16.824V23H19.5212V36.2751H23.8829Z" fill="#3C5A99"/>
</svg>
