<svg width="24" height="18" viewBox="0 0 24 18" fill="none" xmlns="http://www.w3.org/2000/svg">
<path d="M2.14286 1.19629H21.8571C22.7607 1.19629 23.5 1.93557 23.5 2.83915V15.1606C23.5 16.0641 22.7607 16.8034 21.8571 16.8034H2.14286C1.23929 16.8034 0.5 16.0641 0.5 15.1606V2.83915C0.5 1.93557 1.23929 1.19629 2.14286 1.19629Z" stroke="#FFFBF7" stroke-width="0.8" stroke-linecap="round" stroke-linejoin="round"/>
<path d="M0.5 5.30347H23.5" stroke="#FFFBF7" stroke-width="0.8" stroke-linecap="round" stroke-linejoin="round"/>
<path d="M14.4641 13.5179C15.3715 13.5179 16.107 12.7824 16.107 11.875C16.107 10.9677 15.3715 10.2322 14.4641 10.2322C13.5568 10.2322 12.8213 10.9677 12.8213 11.875C12.8213 12.7824 13.5568 13.5179 14.4641 13.5179Z" stroke="#FFFBF7" stroke-width="0.8" stroke-linecap="round" stroke-linejoin="round"/>
<path d="M18.5716 13.5179C19.4789 13.5179 20.2144 12.7824 20.2144 11.875C20.2144 10.9677 19.4789 10.2322 18.5716 10.2322C17.6642 10.2322 16.9287 10.9677 16.9287 11.875C16.9287 12.7824 17.6642 13.5179 18.5716 13.5179Z" stroke="#FFFBF7" stroke-width="0.8" stroke-linecap="round" stroke-linejoin="round"/>
</svg>
