<svg width="46" height="46" viewBox="0 0 46 46" fill="none" xmlns="http://www.w3.org/2000/svg">
<circle cx="23" cy="23" r="21.5" stroke="#DD4B39" stroke-width="3"/>
<path d="M32.75 21.375V18.125H31.125V21.375H27.875V23H31.125V26.25H32.75V23H36V21.375H32.75Z" fill="#DD4B39"/>
<path d="M18.125 21.375V24.625H22.7221C22.051 26.5165 20.244 27.875 18.125 27.875C15.4373 27.875 13.25 25.6877 13.25 23C13.25 20.3123 15.4373 18.125 18.125 18.125C19.2901 18.125 20.4114 18.5426 21.2824 19.3015L23.4176 16.851C21.9551 15.577 20.0766 14.875 18.125 14.875C13.6449 14.875 10 18.5199 10 23C10 27.4801 13.6449 31.125 18.125 31.125C22.6051 31.125 26.25 27.4801 26.25 23V21.375H18.125Z" fill="#DD4B39"/>
</svg>
