<svg width="26" height="20" viewBox="0 0 26 20" fill="none" xmlns="http://www.w3.org/2000/svg">
<path d="M2.32933 1.27783H19.637C20.6947 1.27783 21.5601 2.14322 21.5601 3.20091V13.7778C21.5601 14.8355 20.6947 15.7009 19.637 15.7009H2.32933C1.27163 15.7009 0.40625 14.8355 0.40625 13.7778V3.20091C0.40625 2.14322 1.27163 1.27783 2.32933 1.27783Z" stroke="#333333" stroke-width="0.8" stroke-linecap="round" stroke-linejoin="round"/>
<path d="M21.5596 6.08569H23.4827C24.5404 6.08569 25.4058 6.95108 25.4058 8.00877V17.6242C25.4058 18.6818 24.5404 19.5472 23.4827 19.5472H6.17503C5.11734 19.5472 4.25195 18.6818 4.25195 17.6242V15.7011" stroke="#333333" stroke-width="0.8" stroke-linecap="round" stroke-linejoin="round"/>
<path d="M0.40625 5.12402H21.5601" stroke="#333333" stroke-width="0.8" stroke-linecap="round" stroke-linejoin="round"/>
<path d="M4.25195 11.855H7.13657" stroke="#333333" stroke-width="0.8" stroke-linecap="round" stroke-linejoin="round"/>
<path d="M14.8291 11.855V12.8165" stroke="#333333" stroke-width="0.8" stroke-linecap="round" stroke-linejoin="round"/>
<path d="M17.7139 11.855V12.8165" stroke="#333333" stroke-width="0.8" stroke-linecap="round" stroke-linejoin="round"/>
</svg>
