<svg width="23" height="6" viewBox="0 0 23 6" fill="none" xmlns="http://www.w3.org/2000/svg">
<path d="M19.438 5.43449C20.8993 5.43449 22.0839 4.24986 22.0839 2.78854C22.0839 1.32721 20.8993 0.142578 19.438 0.142578C17.9766 0.142578 16.792 1.32721 16.792 2.78854C16.792 4.24986 17.9766 5.43449 19.438 5.43449Z" fill="#FFFBF7"/>
<path d="M10.1775 4.11202C10.9081 4.11202 11.5005 3.51971 11.5005 2.78904C11.5005 2.05838 10.9081 1.46606 10.1775 1.46606C9.44681 1.46606 8.85449 2.05838 8.85449 2.78904C8.85449 3.51971 9.44681 4.11202 10.1775 4.11202Z" fill="#FFFBF7"/>
<path d="M2.24095 4.11202C2.97161 4.11202 3.56393 3.51971 3.56393 2.78904C3.56393 2.05838 2.97161 1.46606 2.24095 1.46606C1.51029 1.46606 0.917969 2.05838 0.917969 2.78904C0.917969 3.51971 1.51029 4.11202 2.24095 4.11202Z" fill="#FFFBF7"/>
</svg>
