<svg width="15" height="19" viewBox="0 0 15 19" fill="none" xmlns="http://www.w3.org/2000/svg">
<path d="M3.28365 6.1084H11.4237C12.916 6.1084 14.137 7.3294 14.137 8.82174V16.9618C14.137 17.7758 13.5944 18.3184 12.7803 18.3184H1.92698C1.11298 18.3184 0.570312 17.7758 0.570312 16.9618V8.82174C0.570312 7.3294 1.79132 6.1084 3.28365 6.1084Z" stroke="url(#paint0_linear_32_1861)" stroke-linecap="round" stroke-linejoin="round"/>
<path d="M3.28516 4.75165C3.28516 2.44531 5.04883 0.681641 7.35517 0.681641C9.66151 0.681641 11.4252 2.44531 11.4252 4.75165" stroke="url(#paint1_linear_32_1861)" stroke-linecap="round" stroke-linejoin="round"/>
<path d="M8.70943 10.1777L5.99609 12.8911" stroke="url(#paint2_linear_32_1861)" stroke-linecap="round" stroke-linejoin="round"/>
<path d="M5.99609 10.1777L8.70943 12.8911" stroke="url(#paint3_linear_32_1861)" stroke-linecap="round" stroke-linejoin="round"/>
<defs>
<linearGradient id="paint0_linear_32_1861" x1="8.032" y1="4.18645" x2="8.6521" y2="25.8204" gradientUnits="userSpaceOnUse">
<stop stop-color="#FD749B"/>
<stop offset="1" stop-color="#281AC8"/>
</linearGradient>
<linearGradient id="paint1_linear_32_1861" x1="7.76217" y1="0.0409905" x2="7.87707" y2="7.25641" gradientUnits="userSpaceOnUse">
<stop stop-color="#FD749B"/>
<stop offset="1" stop-color="#281AC8"/>
</linearGradient>
<linearGradient id="paint2_linear_32_1861" x1="7.48843" y1="9.75063" x2="7.64151" y2="14.5573" gradientUnits="userSpaceOnUse">
<stop stop-color="#FD749B"/>
<stop offset="1" stop-color="#281AC8"/>
</linearGradient>
<linearGradient id="paint3_linear_32_1861" x1="7.48843" y1="9.75063" x2="7.64151" y2="14.5573" gradientUnits="userSpaceOnUse">
<stop stop-color="#FD749B"/>
<stop offset="1" stop-color="#281AC8"/>
</linearGradient>
</defs>
</svg>
