<svg width="95" height="95" viewBox="0 0 95 95" fill="none" xmlns="http://www.w3.org/2000/svg">
<g clip-path="url(#clip0_32_1900)">
<path opacity="0.1" d="M47.1101 94.3081C73.0673 94.3081 94.1098 73.2656 94.1098 47.3083C94.1098 21.3511 73.0673 0.308594 47.1101 0.308594C21.1529 0.308594 0.110352 21.3511 0.110352 47.3083C0.110352 73.2656 21.1529 94.3081 47.1101 94.3081Z" fill="url(#paint0_linear_32_1900)"/>
<path d="M74.3348 99.044V99.049H19.8455V99.044C19.8455 91.488 22.9165 84.6509 27.8841 79.7198C28.1154 79.4885 28.3467 79.2677 28.5875 79.0469C29.302 78.3844 30.0519 77.7629 30.8322 77.1823C31.3458 76.7971 31.8804 76.4374 32.4195 76.0887C32.9591 75.7395 33.5136 75.4107 34.0837 75.102C34.0942 75.0915 34.1047 75.0915 34.1047 75.0915C34.325 74.9681 34.5408 74.8452 34.7571 74.7113C35.4041 74.3311 36.0156 73.8999 36.6007 73.4323C39.0817 71.4599 41.0032 68.809 42.0968 65.7684V65.7629C42.7493 63.9498 43.104 61.9929 43.104 59.948L51.1581 59.984C51.1581 62.0024 51.5019 63.9443 52.1394 65.7419C53.223 68.798 55.134 71.4539 57.615 73.4363C57.7844 73.5747 57.9587 73.7086 58.1336 73.837C58.3749 74.0168 58.6217 74.1917 58.868 74.3561C59.0529 74.479 59.2432 74.6024 59.4336 74.7158C59.6439 74.8442 59.8597 74.9726 60.0756 75.0905C60.0961 75.096 60.111 75.101 60.127 75.111C60.142 75.121 60.158 75.1315 60.1735 75.1415C60.8055 75.4907 61.4215 75.8604 62.017 76.2511C62.2174 76.38 62.4177 76.5129 62.6126 76.6523C62.8699 76.8371 63.1316 77.022 63.3834 77.2173H63.3939C70.0352 82.1804 74.3348 90.1011 74.3348 99.044Z" fill="#F89D8F"/>
<path d="M74.3348 99.0441H19.8455C19.8455 91.4881 22.9165 84.651 27.8841 79.7199C28.1154 79.4886 28.3467 79.2678 28.5875 79.0469C29.302 78.3845 30.0519 77.7574 30.8322 77.1774C31.3458 76.7967 31.8804 76.4325 32.4195 76.0883C32.9591 75.7391 33.5136 75.4103 34.0837 75.1016C34.0942 75.0911 34.1047 75.0911 34.1047 75.0911C34.325 74.9677 34.5408 74.8448 34.7571 74.7109C35.4041 74.3307 36.0156 73.8995 36.6007 73.4319C39.2721 76.1642 42.9906 77.8544 47.1153 77.8544C51.2251 77.8544 54.9436 76.1592 57.615 73.4369C57.7844 73.5753 57.9587 73.7092 58.1336 73.8376C58.3749 74.0174 58.6217 74.1923 58.868 74.3566C59.0529 74.4796 59.2432 74.603 59.4336 74.7164C59.6439 74.8498 59.8597 74.9732 60.0756 75.0911C60.0961 75.0966 60.111 75.1016 60.127 75.1116C60.142 75.117 60.158 75.127 60.1735 75.1375C60.8055 75.4868 61.4215 75.8565 62.017 76.2516C62.2174 76.3805 62.4177 76.5134 62.6126 76.6528C62.8699 76.8377 63.1316 77.0225 63.3834 77.2179H63.3939C70.0352 82.1804 74.3348 90.1012 74.3348 99.0441Z" fill="#9347B2"/>
<path d="M26.1782 23.6941V40.7391C26.1782 55.2161 38.8867 66.9513 47.0901 66.9513C55.2941 66.9513 68.0026 55.2161 68.0026 40.7391V23.6941H26.1782Z" fill="#F89D8F"/>
<path d="M26.1782 38.6887C27.2089 38.6887 28.0437 37.8538 28.0437 36.8237V24.9661H26.1782V38.6887Z" fill="#141720"/>
<path d="M68.0015 38.6887V24.9661H66.1365V36.8237C66.136 37.8538 66.9708 38.6887 68.0015 38.6887Z" fill="#141720"/>
<path d="M68.0017 24.4534C68.0017 26.8935 67.8379 27.4815 66.1362 27.3516C66.0678 26.1691 57.5725 25.2053 47.0958 25.2053C36.6116 25.2053 28.1163 26.1691 28.0479 27.3516C26.3462 27.4815 26.1824 26.8935 26.1824 24.4534C26.1824 24.2141 26.1894 23.9618 26.1959 23.6945C26.4557 17.6733 29.852 6.41724 47.0958 6.41724C64.3321 6.41724 67.7289 17.6733 67.9882 23.6945C67.9947 23.9618 68.0017 24.2146 68.0017 24.4534Z" fill="#141720"/>
<path d="M57.6183 73.3091C55.8612 78.7178 52.322 84.0701 47.1087 88.4466C41.8948 84.0701 38.3611 78.7178 36.6045 73.3091C36.6305 73.3191 36.6609 73.3296 36.6869 73.3396C39.4502 75.8151 43.1078 77.3259 47.1087 77.3259C51.11 77.3259 54.7621 75.8206 57.5259 73.345C57.5564 73.3346 57.5874 73.3196 57.6183 73.3091Z" fill="white"/>
</g>
<defs>
<linearGradient id="paint0_linear_32_1900" x1="51.8101" y1="-14.4876" x2="57.1134" y2="152.03" gradientUnits="userSpaceOnUse">
<stop stop-color="#FD749B"/>
<stop offset="1" stop-color="#281AC8"/>
</linearGradient>
<clipPath id="clip0_32_1900">
<rect width="94" height="94" fill="white" transform="translate(0.109375 0.307617)"/>
</clipPath>
</defs>
</svg>
