<svg width="52" height="52" viewBox="0 0 52 52" fill="none" xmlns="http://www.w3.org/2000/svg">
<path opacity="0.1" d="M18.6858 7.03944C18.5212 6.61477 18.0427 6.40248 17.6248 6.5836C14.2085 8.06418 11.2403 10.4253 9.02736 13.4317C6.65122 16.6598 5.24432 20.4983 4.9715 24.4973C4.69867 28.4964 5.57122 32.4904 7.48692 36.0113C9.40261 39.5323 12.2821 42.4343 15.788 44.3774C19.2939 46.3205 23.2809 47.2242 27.282 46.9826C31.283 46.741 35.1324 45.364 38.3789 43.0132C41.6255 40.6623 44.1349 37.4348 45.6129 33.709C46.9895 30.239 47.4185 26.4705 46.8634 22.7889C46.7955 22.3385 46.3618 22.0452 45.9145 22.1307C45.4671 22.2162 45.1755 22.648 45.2419 23.0986C45.7391 26.472 45.3407 29.9222 44.0798 33.1007C42.7173 36.5352 40.4042 39.5102 37.4116 41.6772C34.4189 43.8442 30.8707 45.1135 27.1826 45.3362C23.4944 45.5589 19.8192 44.7259 16.5876 42.9348C13.3559 41.1436 10.7016 38.4686 8.93575 35.223C7.16989 31.9775 6.36559 28.2959 6.61707 24.6096C6.86855 20.9233 8.16542 17.3851 10.3557 14.4094C12.3828 11.6555 15.0974 9.48906 18.2215 8.12273C18.6388 7.94023 18.8505 7.46411 18.6858 7.03944Z" fill="url(#paint0_linear_32_1287)"/>
<path d="M28.1578 46.2062C28.207 46.659 28.6142 46.9879 29.0648 46.9212C32.7478 46.3752 36.226 44.8628 39.1417 42.5316C42.2723 40.0284 44.6248 36.6849 45.9233 32.8927C47.2219 29.1005 47.4128 25.0168 46.4737 21.12C45.5345 17.2232 43.5043 13.6748 40.6207 10.8905C37.7372 8.10626 34.1199 6.20143 30.1927 5.39927C26.2654 4.5971 22.1909 4.93081 18.4465 6.36131C14.7021 7.7918 11.4429 10.2598 9.05086 13.4762C6.82311 16.4717 5.4334 20.0007 5.01669 23.7005C4.96571 24.1531 5.30868 24.5486 5.76293 24.5819C6.21719 24.6151 6.61058 24.2735 6.66305 23.8211C7.05593 20.4339 8.33373 17.2044 10.3744 14.4605C12.5793 11.4957 15.5836 9.22071 19.0351 7.9021C22.4866 6.58349 26.2425 6.27587 29.8626 7.0153C33.4827 7.75473 36.8171 9.51057 39.475 12.0771C42.133 14.6436 44.0045 17.9145 44.8702 21.5065C45.7358 25.0985 45.5599 28.8628 44.3629 32.3584C43.1659 35.8539 40.9974 38.936 38.1116 41.2433C35.4409 43.3788 32.258 44.7688 28.8867 45.28C28.4364 45.3483 28.1087 45.7534 28.1578 46.2062Z" fill="url(#paint1_linear_32_1287)"/>
<circle cx="26.0013" cy="26.0609" r="12.5755" fill="#C4C4C4"/>
<defs>
<linearGradient id="paint0_linear_32_1287" x1="31.1207" y1="53.2487" x2="9.55133" y2="-18.0968" gradientUnits="userSpaceOnUse">
<stop stop-color="#FD749B"/>
<stop offset="1" stop-color="#281AC8"/>
</linearGradient>
<linearGradient id="paint1_linear_32_1287" x1="28.1065" y1="-1.64687" x2="30.4754" y2="72.8501" gradientUnits="userSpaceOnUse">
<stop stop-color="#FD749B"/>
<stop offset="1" stop-color="#281AC8"/>
</linearGradient>
</defs>
</svg>
