<svg width="121" height="121" viewBox="0 0 121 121" fill="none" xmlns="http://www.w3.org/2000/svg">
<path opacity="0.5" d="M43.1368 15.8778C42.7524 14.8864 41.6352 14.3907 40.6596 14.8136C32.6839 18.2702 25.7542 23.7824 20.5878 30.8013C15.0404 38.3378 11.7558 47.2993 11.1188 56.6356C10.4819 65.9719 12.519 75.2964 16.9914 83.5165C21.4638 91.7365 28.1864 98.5117 36.3713 103.048C44.5563 107.585 53.8646 109.694 63.2056 109.13C72.5466 108.566 81.5333 105.352 89.1129 99.8632C96.6924 94.3748 102.551 86.8399 106.002 78.1413C109.215 70.0402 110.217 61.2423 108.921 52.6469C108.762 51.5955 107.75 50.9108 106.706 51.1103C105.661 51.3098 104.98 52.318 105.135 53.37C106.296 61.2457 105.366 69.3006 102.422 76.7213C99.2413 84.7395 93.8412 91.6851 86.8544 96.7443C79.8677 101.803 71.5838 104.767 62.9734 105.287C54.363 105.807 45.7828 103.862 38.238 99.6801C30.6933 95.4985 24.4965 89.2532 20.3739 81.6761C16.2513 74.0989 14.3735 65.5038 14.9606 56.8977C15.5478 48.2916 18.5755 40.0311 23.689 33.084C28.4214 26.6547 34.759 21.5968 42.0528 18.4069C43.027 17.9808 43.5211 16.8693 43.1368 15.8778Z" fill="#FFFBF7"/>
<path d="M65.2529 107.32C65.3676 108.377 66.3184 109.145 67.3703 108.989C75.9688 107.714 84.0891 104.183 90.8961 98.7407C98.2051 92.8968 103.697 85.0908 106.729 76.2375C109.76 67.3841 110.206 57.8501 108.014 48.7526C105.821 39.6551 101.081 31.3708 94.3492 24.8705C87.6173 18.3702 79.1722 13.9232 70.0035 12.0504C60.8348 10.1777 51.3222 10.9568 42.5804 14.2964C33.8386 17.6361 26.2297 23.398 20.6452 30.9071C15.4442 37.9004 12.1997 46.1393 11.2269 54.7771C11.1079 55.8338 11.9085 56.7572 12.9691 56.8348C14.0296 56.9124 14.948 56.1148 15.0705 55.0585C15.9877 47.1508 18.9709 39.611 23.7351 33.205C28.8828 26.2833 35.8966 20.9721 43.9547 17.8936C52.0128 14.8151 60.7813 14.097 69.2329 15.8233C77.6845 17.5496 85.469 21.6488 91.6744 27.6407C97.8798 33.6325 102.249 41.2688 104.27 49.6548C106.291 58.0408 105.88 66.8291 103.086 74.99C100.291 83.1508 95.2287 90.3463 88.4914 95.7331C82.2561 100.719 74.8254 103.964 66.9546 105.157C65.9033 105.317 65.1383 106.262 65.2529 107.32Z" fill="#FFFBF7"/>
<circle cx="60.2138" cy="60.2885" r="29.3593" fill="#C4C4C4"/>
</svg>
