<svg width="178" height="131" viewBox="0 0 178 131" fill="none" xmlns="http://www.w3.org/2000/svg">
<g clip-path="url(#clip0_32_2039)">
<g opacity="0.1">
<path opacity="0.1" d="M141.835 92.2946C141.835 92.2946 129.199 90.666 138.623 110.965C138.623 110.965 147.21 107.312 147.552 99.0731C147.622 97.4697 147.097 95.8967 146.076 94.6521C145.055 93.4075 143.61 92.5778 142.014 92.3202L141.835 92.2946Z" fill="#FF8000"/>
<path opacity="0.1" d="M142.019 92.2642C142.019 92.2642 144.88 103.583 138.631 110.966" stroke="#535461" stroke-miterlimit="10"/>
<path opacity="0.1" d="M138.461 112.012C138.461 112.012 143.011 100.883 151.506 96.7544C155.084 95.0454 158.006 92.2301 159.833 88.7316C160.687 87.0653 161.385 85.3248 161.919 83.532" stroke="#535461" stroke-width="2" stroke-miterlimit="10"/>
<path opacity="0.1" d="M167.257 80.9009C166.371 82.0059 161.788 83.6232 161.788 83.6232C161.788 83.6232 162.339 78.8192 163.225 77.7222C163.427 77.4359 163.686 77.1936 163.986 77.0103C164.286 76.827 164.62 76.7066 164.969 76.6564C165.318 76.6062 165.673 76.6274 166.013 76.7186C166.353 76.8098 166.67 76.9691 166.946 77.1866C167.222 77.4042 167.45 77.6755 167.616 77.9838C167.782 78.2921 167.883 78.6308 167.912 78.9792C167.941 79.3276 167.898 79.6782 167.786 80.0095C167.674 80.3409 167.494 80.6459 167.258 80.9057L167.257 80.9009Z" fill="#FF8000"/>
<path opacity="0.1" d="M165.685 89.6522C164.336 90.1022 159.606 88.9829 159.606 88.9829C159.606 88.9829 162.695 85.2549 164.044 84.8049C164.371 84.672 164.722 84.607 165.075 84.614C165.428 84.621 165.775 84.6998 166.097 84.8455C166.418 84.9913 166.705 85.2008 166.941 85.4613C167.178 85.7217 167.358 86.0275 167.47 86.3597C167.583 86.6919 167.625 87.0435 167.595 87.3927C167.565 87.7419 167.464 88.0812 167.296 88.3899C167.129 88.6985 166.9 88.9697 166.622 89.1868C166.345 89.404 166.026 89.5624 165.685 89.6522Z" fill="#FF8000"/>
<path opacity="0.1" d="M157.157 99.9985C155.765 99.7119 152.249 96.3747 152.249 96.3747C152.249 96.3747 156.812 94.7044 158.206 94.9911C158.836 95.1656 159.377 95.5715 159.717 96.1266C160.058 96.6817 160.173 97.3445 160.04 97.9808C159.906 98.6171 159.535 99.1794 158.999 99.5537C158.464 99.928 157.805 100.086 157.157 99.9969V99.9985Z" fill="#FF8000"/>
<path opacity="0.1" d="M148.929 106.385C147.507 106.335 143.474 103.637 143.474 103.637C143.474 103.637 147.688 101.222 149.11 101.274C149.761 101.339 150.363 101.649 150.794 102.139C151.224 102.629 151.451 103.263 151.428 103.912C151.405 104.562 151.134 105.179 150.67 105.638C150.206 106.097 149.584 106.363 148.929 106.383V106.385Z" fill="#FF8000"/>
<path opacity="0.1" d="M155.2 85.8492C155.382 87.2504 158.462 90.9847 158.462 90.9847C158.462 90.9847 160.49 86.597 160.309 85.1958C160.287 84.846 160.193 84.5043 160.032 84.1921C159.872 83.8798 159.649 83.6036 159.376 83.3804C159.104 83.1573 158.788 82.992 158.449 82.8949C158.109 82.7977 157.754 82.7706 157.403 82.8154C157.053 82.8602 156.716 82.9759 156.412 83.1553C156.109 83.3347 155.846 83.5739 155.639 83.8583C155.433 84.1427 155.287 84.4661 155.212 84.8085C155.136 85.151 155.132 85.5052 155.2 85.8492Z" fill="#FF8000"/>
<path opacity="0.1" d="M145.673 93.4459C146.269 94.727 150.334 97.3772 150.334 97.3772C150.334 97.3772 150.947 92.5876 150.352 91.3065C150.225 90.9795 150.032 90.6819 149.785 90.4319C149.538 90.1819 149.241 89.985 148.914 89.8532C148.587 89.7214 148.236 89.6576 147.883 89.6657C147.53 89.6739 147.183 89.7537 146.862 89.9004C146.542 90.0471 146.255 90.2575 146.02 90.5186C145.784 90.7797 145.605 91.0859 145.494 91.4183C145.382 91.7508 145.341 92.1024 145.372 92.4514C145.403 92.8004 145.505 93.1394 145.673 93.4475V93.4459Z" fill="#FF8000"/>
<path opacity="0.1" d="M137.432 102.084C137.8 103.448 141.357 106.74 141.357 106.74C141.357 106.74 142.777 102.124 142.407 100.759C142.339 100.415 142.2 100.089 141.999 99.8004C141.798 99.5118 141.539 99.2673 141.239 99.082C140.939 98.8967 140.604 98.7745 140.254 98.7231C139.905 98.6716 139.548 98.6919 139.207 98.7827C138.865 98.8736 138.546 99.0331 138.27 99.2512C137.993 99.4694 137.764 99.7417 137.598 100.051C137.432 100.361 137.331 100.701 137.302 101.05C137.274 101.4 137.318 101.752 137.432 102.084Z" fill="#FF8000"/>
<path opacity="0.25" d="M167.257 80.9009C166.371 82.0059 161.788 83.6232 161.788 83.6232C161.788 83.6232 162.339 78.8192 163.225 77.7222C163.427 77.4359 163.686 77.1936 163.986 77.0103C164.286 76.827 164.62 76.7066 164.969 76.6564C165.318 76.6062 165.673 76.6274 166.013 76.7186C166.353 76.8098 166.67 76.9691 166.946 77.1866C167.222 77.4042 167.45 77.6755 167.616 77.9838C167.782 78.2921 167.883 78.6308 167.912 78.9792C167.941 79.3276 167.898 79.6782 167.786 80.0095C167.674 80.3409 167.494 80.6459 167.258 80.9057L167.257 80.9009Z" fill="black"/>
<path opacity="0.25" d="M165.685 89.6522C164.336 90.1022 159.606 88.9829 159.606 88.9829C159.606 88.9829 162.695 85.2549 164.044 84.8049C164.371 84.672 164.722 84.607 165.075 84.614C165.428 84.621 165.775 84.6998 166.097 84.8455C166.418 84.9913 166.705 85.2008 166.941 85.4613C167.178 85.7217 167.358 86.0275 167.47 86.3597C167.583 86.6919 167.625 87.0435 167.595 87.3927C167.565 87.7419 167.464 88.0812 167.296 88.3899C167.129 88.6985 166.9 88.9697 166.622 89.1868C166.345 89.404 166.026 89.5624 165.685 89.6522Z" fill="black"/>
<path opacity="0.25" d="M157.157 99.9985C155.765 99.7119 152.249 96.3747 152.249 96.3747C152.249 96.3747 156.812 94.7044 158.206 94.9911C158.836 95.1656 159.377 95.5715 159.717 96.1266C160.058 96.6817 160.173 97.3445 160.04 97.9808C159.906 98.6171 159.535 99.1794 158.999 99.5537C158.464 99.928 157.805 100.086 157.157 99.9969V99.9985Z" fill="black"/>
<path opacity="0.25" d="M148.929 106.385C147.507 106.335 143.474 103.637 143.474 103.637C143.474 103.637 147.688 101.222 149.11 101.274C149.761 101.339 150.363 101.649 150.794 102.139C151.224 102.629 151.451 103.263 151.428 103.912C151.405 104.562 151.134 105.179 150.67 105.638C150.206 106.097 149.584 106.363 148.929 106.383V106.385Z" fill="black"/>
<path opacity="0.25" d="M155.2 85.8492C155.382 87.2504 158.462 90.9847 158.462 90.9847C158.462 90.9847 160.49 86.597 160.309 85.1958C160.287 84.846 160.193 84.5043 160.032 84.1921C159.872 83.8798 159.649 83.6036 159.376 83.3804C159.104 83.1573 158.788 82.992 158.449 82.8949C158.109 82.7977 157.754 82.7706 157.403 82.8154C157.053 82.8602 156.716 82.9759 156.412 83.1553C156.109 83.3347 155.846 83.5739 155.639 83.8583C155.433 84.1427 155.287 84.4661 155.212 84.8085C155.136 85.151 155.132 85.5052 155.2 85.8492Z" fill="black"/>
<path opacity="0.25" d="M145.673 93.4459C146.269 94.727 150.334 97.3772 150.334 97.3772C150.334 97.3772 150.947 92.5876 150.352 91.3065C150.225 90.9795 150.032 90.6819 149.785 90.4319C149.538 90.1819 149.241 89.985 148.914 89.8532C148.587 89.7214 148.236 89.6576 147.883 89.6657C147.53 89.6739 147.183 89.7537 146.862 89.9004C146.542 90.0471 146.255 90.2575 146.02 90.5186C145.784 90.7797 145.605 91.0859 145.494 91.4183C145.382 91.7508 145.341 92.1024 145.372 92.4514C145.403 92.8004 145.505 93.1394 145.673 93.4475V93.4459Z" fill="black"/>
<path opacity="0.25" d="M137.432 102.084C137.8 103.448 141.357 106.74 141.357 106.74C141.357 106.74 142.777 102.124 142.407 100.759C142.339 100.415 142.2 100.089 141.999 99.8004C141.798 99.5118 141.539 99.2673 141.239 99.082C140.939 98.8967 140.604 98.7745 140.254 98.7231C139.905 98.6716 139.548 98.6919 139.207 98.7827C138.865 98.8736 138.546 99.0331 138.27 99.2512C137.993 99.4694 137.764 99.7417 137.598 100.051C137.432 100.361 137.331 100.701 137.302 101.05C137.274 101.4 137.318 101.752 137.432 102.084Z" fill="black"/>
<path opacity="0.1" d="M144.521 117.076C144.521 117.076 149.071 105.946 157.567 101.818C161.143 100.108 164.063 97.2919 165.889 93.7936C166.742 92.1273 167.441 90.3868 167.975 88.594" stroke="#535461" stroke-width="2" stroke-miterlimit="10"/>
<path opacity="0.1" d="M173.31 85.9613C172.424 87.0662 167.84 88.6836 167.84 88.6836C167.84 88.6836 168.392 83.8795 169.278 82.7826C169.718 82.2975 170.327 81.9972 170.982 81.9429C171.638 81.8887 172.289 82.0847 172.803 82.4908C173.318 82.897 173.657 83.4827 173.751 84.1286C173.846 84.7744 173.688 85.4316 173.311 85.9661L173.31 85.9613Z" fill="#FF8000"/>
<path opacity="0.1" d="M171.74 94.7125C170.391 95.1625 165.661 94.0431 165.661 94.0431C165.661 94.0431 168.75 90.3152 170.099 89.8652C170.733 89.6983 171.407 89.7771 171.984 90.0855C172.561 90.3939 172.999 90.9088 173.208 91.5257C173.417 92.1426 173.381 92.8153 173.108 93.4071C172.836 93.999 172.346 94.4657 171.74 94.7125Z" fill="#FF8000"/>
<path opacity="0.1" d="M163.212 105.065C161.82 104.779 158.304 101.442 158.304 101.442C158.304 101.442 162.867 99.7713 164.261 100.058C164.891 100.232 165.432 100.638 165.772 101.193C166.113 101.749 166.228 102.411 166.095 103.048C165.962 103.684 165.59 104.246 165.054 104.621C164.519 104.995 163.861 105.153 163.212 105.064V105.065Z" fill="#FF8000"/>
<path opacity="0.1" d="M154.981 111.444C153.56 111.394 149.526 108.696 149.526 108.696C149.526 108.696 153.74 106.284 155.162 106.334C155.813 106.4 156.415 106.709 156.846 107.199C157.276 107.689 157.503 108.323 157.48 108.973C157.457 109.622 157.186 110.239 156.722 110.698C156.258 111.157 155.636 111.423 154.981 111.444Z" fill="#FF8000"/>
<path opacity="0.1" d="M161.255 90.9158C161.437 92.317 164.517 96.0514 164.517 96.0514C164.517 96.0514 166.545 91.6637 166.364 90.2625C166.342 89.9126 166.248 89.571 166.087 89.2587C165.927 88.9465 165.703 88.6702 165.431 88.4471C165.158 88.224 164.843 88.0587 164.504 87.9615C164.164 87.8643 163.808 87.8373 163.458 87.8821C163.108 87.9269 162.77 88.0425 162.467 88.2219C162.164 88.4013 161.9 88.6406 161.694 88.925C161.487 89.2093 161.342 89.5327 161.266 89.8752C161.191 90.2176 161.187 90.5718 161.255 90.9158Z" fill="#FF8000"/>
<path opacity="0.1" d="M151.727 98.4999C152.322 99.7809 156.388 102.431 156.388 102.431C156.388 102.431 157.001 97.6415 156.405 96.3604C156.093 95.788 155.573 95.3551 154.951 95.1496C154.328 94.9441 153.65 94.9814 153.055 95.2539C152.459 95.5265 151.99 96.0138 151.744 96.617C151.497 97.2202 151.491 97.894 151.727 98.5015V98.4999Z" fill="#FF8000"/>
<path opacity="0.1" d="M143.487 107.147C143.855 108.512 147.412 111.804 147.412 111.804C147.412 111.804 148.832 107.187 148.462 105.823C148.251 105.208 147.812 104.695 147.234 104.389C146.656 104.083 145.983 104.006 145.35 104.175C144.718 104.343 144.173 104.744 143.827 105.296C143.481 105.848 143.359 106.51 143.487 107.147Z" fill="#FF8000"/>
</g>
<path opacity="0.1" d="M2.021 69.0459C4.82176 80.928 10.7508 91.1991 20.1211 96.1777C39.5942 106.524 83.511 101.188 116.288 95.0568C132.849 91.9699 147.881 83.4414 158.965 70.8442L2.021 69.0459Z" fill="url(#paint0_linear_32_2039)"/>
<path opacity="0.1" d="M173.899 13.1169H155.915C155.503 13.1169 155.108 12.9544 154.816 12.665C154.525 12.3757 154.361 11.9832 154.361 11.574C154.361 11.1648 154.525 10.7724 154.816 10.483C155.108 10.1937 155.503 10.0311 155.915 10.0311H159.024C158.612 10.0311 158.217 9.86856 157.925 9.57921C157.634 9.28986 157.47 8.89741 157.47 8.4882C157.47 8.079 157.634 7.68655 157.925 7.3972C158.217 7.10785 158.612 6.94529 159.024 6.94529H156.804C156.392 6.94529 155.997 6.78274 155.705 6.49339C155.414 6.20403 155.25 5.81159 155.25 5.40238C155.25 4.99318 155.414 4.60073 155.705 4.31138C155.997 4.02203 156.392 3.85947 156.804 3.85947H166.191C164.108 2.89866 161.674 2.21488 158.87 1.85617C133.275 -1.4074 124.137 0.751234 120.914 2.97712C116.937 5.71545 112.5 7.72996 107.759 8.70039C91.9657 11.9303 62.4335 15.8216 35.6665 7.45132C22.3628 3.28779 12.4746 10.321 6.54883 22.0685H177.021C176.799 18.6544 176.132 15.503 174.909 12.7422C174.629 12.9834 174.27 13.1164 173.899 13.1169Z" fill="url(#paint1_linear_32_2039)"/>
<path opacity="0.1" d="M0.494597 44.2456C-0.195831 51.1563 0.0390711 58.1273 1.19318 64.9768L159.088 70.7081C163.483 65.6896 167.174 60.1035 170.059 54.102L0.494597 44.2456ZM62.9439 59.0342H59.835C60.2473 59.0342 60.6427 59.1967 60.9342 59.4861C61.2257 59.7754 61.3895 60.1679 61.3895 60.5771C61.3895 60.9863 61.2257 61.3787 60.9342 61.6681C60.6427 61.9574 60.2473 62.12 59.835 62.12H41.8511C41.4388 62.12 41.0434 61.9574 40.7519 61.6681C40.4604 61.3787 40.2966 60.9863 40.2966 60.5771C40.2966 60.1679 40.4604 59.7754 40.7519 59.4861C41.0434 59.1967 41.4388 59.0342 41.8511 59.0342H44.96C44.5477 59.0342 44.1523 58.8716 43.8608 58.5823C43.5693 58.2929 43.4055 57.9005 43.4055 57.4913C43.4055 57.082 43.5693 56.6896 43.8608 56.4002C44.1523 56.1109 44.5477 55.9483 44.96 55.9483H42.74C42.3277 55.9483 41.9324 55.7858 41.6408 55.4964C41.3493 55.2071 41.1856 54.8146 41.1856 54.4054C41.1856 53.9962 41.3493 53.6038 41.6408 53.3144C41.9324 53.0251 42.3277 52.8625 42.74 52.8625H60.724C61.1362 52.8625 61.5316 53.0251 61.8231 53.3144C62.1146 53.6038 62.2784 53.9962 62.2784 54.4054C62.2784 54.8146 62.1146 55.2071 61.8231 55.4964C61.5316 55.7858 61.1362 55.9483 60.724 55.9483H62.9439C63.3562 55.9483 63.7516 56.1109 64.0431 56.4002C64.3346 56.6896 64.4984 57.082 64.4984 57.4913C64.4984 57.9005 64.3346 58.2929 64.0431 58.5823C63.7516 58.8716 63.3562 59.0342 62.9439 59.0342Z" fill="url(#paint2_linear_32_2039)"/>
<path opacity="0.1" d="M177.029 22.176L4.64519 26.3396C2.54946 31.6897 1.16682 37.738 0.521484 44.0074H174.009C175.142 40.3246 175.98 36.5588 176.515 32.745C177.031 29.0603 177.238 25.4956 177.029 22.176ZM35.5182 35.8148H32.4092C32.8215 35.8148 33.2169 35.9774 33.5084 36.2667C33.7999 36.5561 33.9637 36.9485 33.9637 37.3577C33.9637 37.7669 33.7999 38.1594 33.5084 38.4487C33.2169 38.7381 32.8215 38.9006 32.4092 38.9006H14.4253C14.013 38.9006 13.6176 38.7381 13.3261 38.4487C13.0346 38.1594 12.8708 37.7669 12.8708 37.3577C12.8708 36.9485 13.0346 36.5561 13.3261 36.2667C13.6176 35.9774 14.013 35.8148 14.4253 35.8148H17.5342C17.1219 35.8148 16.7265 35.6522 16.435 35.3629C16.1435 35.0735 15.9797 34.6811 15.9797 34.2719C15.9797 33.8627 16.1435 33.4702 16.435 33.1809C16.7265 32.8915 17.1219 32.729 17.5342 32.729H15.3142C14.902 32.729 14.5066 32.5664 14.2151 32.2771C13.9236 31.9877 13.7598 31.5953 13.7598 31.1861C13.7598 30.7769 13.9236 30.3844 14.2151 30.0951C14.5066 29.8057 14.902 29.6432 15.3142 29.6432H33.2982C33.7105 29.6432 34.1058 29.8057 34.3974 30.0951C34.6889 30.3844 34.8526 30.7769 34.8526 31.1861C34.8526 31.5953 34.6889 31.9877 34.3974 32.2771C34.1058 32.5664 33.7105 32.729 33.2982 32.729H35.5182C35.9304 32.729 36.3258 32.8915 36.6173 33.1809C36.9088 33.4702 37.0726 33.8627 37.0726 34.2719C37.0726 34.6811 36.9088 35.0735 36.6173 35.3629C36.3258 35.6522 35.9304 35.8148 35.5182 35.8148Z" fill="url(#paint3_linear_32_2039)"/>
<path d="M151.552 130.111C151.552 130.111 144.363 90.9736 130.655 84.6226C119.039 79.2372 106.477 75.6069 102.905 74.6221C102.372 73.7693 101.755 72.9707 101.064 72.2377C96.1823 67.179 93.2492 67.2734 92.7749 67.3359C92.5498 66.3327 92.3881 65.3165 92.2909 64.2933C92.2764 64.1332 92.2619 63.9843 92.249 63.8257L92.2909 63.8049C92.2619 63.5022 92.2361 63.19 92.2135 62.8681C94.2064 61.8124 96.0412 60.486 97.665 58.9272C97.6859 58.996 97.7037 59.0649 97.7263 59.1353C101.244 56.1835 104.69 53.1516 108.063 50.0396C109.031 49.1412 110.047 48.166 110.377 46.8993C110.482 46.4634 110.523 46.0146 110.498 45.567C110.541 44.6062 110.312 43.6246 110.273 42.6509C110.273 42.4908 110.291 42.3419 110.312 42.1897C110.538 40.5964 111.654 39.2881 112.571 37.9509C114.86 34.5719 116.055 30.5793 115.996 26.5076C116.021 24.5566 115.749 22.6131 115.189 20.7427C114.474 18.3695 112.987 15.8762 110.51 15.3574C109.552 15.1572 108.557 15.2821 107.579 15.2196C103.531 14.9634 100.501 11.6966 97.2729 9.30261C93.3328 6.39488 88.6733 4.59981 83.7886 4.1078C82.264 3.94766 80.6893 3.93645 79.2389 4.41686C75.9816 5.49297 74.0037 8.8158 70.8657 10.1818C68.5457 11.197 65.8643 11.0321 63.4443 11.7943C59.8417 12.9313 56.7844 16.5984 56.7038 20.3664C56.7038 20.5057 56.7038 20.645 56.7038 20.7844C56.7038 20.8084 56.7038 20.8324 56.7038 20.8548C56.6634 22.7588 57.3491 24.6981 57.404 26.6469C57.404 26.8231 57.4066 26.9998 57.412 27.177C57.3943 29.2812 57.141 31.3918 56.3682 33.3695C55.9519 34.4344 55.4163 35.6674 55.5034 36.7323C55.455 37.3841 55.5825 37.9958 56.0391 38.4938L56.8183 37.8116C56.557 39.2156 56.4257 40.6403 56.4263 42.068C56.4263 49.2646 59.7239 55.7084 64.9254 60.0449C64.9555 60.5242 64.9845 61.0378 65.0125 61.5854C65.1351 63.9586 65.2319 66.9356 65.2045 70.1799L57.5959 77.1218L38.0358 85.9293C38.0358 85.9293 20.147 89.6797 23.9997 114.624L25.8389 130.112H42.1708L42.1336 130.194H66.3741L66.3887 130.112H124.063L124.051 130.194H126.31V130.112L151.552 130.111ZM92.9185 67.733C93.4129 68.7481 93.8021 69.8105 94.0801 70.9037C93.5093 69.8517 93.0875 68.7266 92.8265 67.5601L92.8507 67.6033L92.9185 67.733ZM65.198 70.9358C65.198 71.2411 65.1926 71.5491 65.1819 71.8597L65.1432 71.9142C65.1406 71.5846 65.1589 71.2551 65.198 70.9277V70.9358Z" fill="#9347B2"/>
<path d="M99.2986 74.8639L96.0719 105.45L78.8091 110.895C78.8091 110.895 56.3836 106.731 62.1916 94.7208C66.3234 86.1776 66.2088 70.9102 65.7991 62.8073C65.6377 59.5181 65.4183 57.4091 65.4183 57.4091C65.4183 57.4091 94.7812 31.9475 92.3612 54.8469C91.8933 59.2811 91.8659 62.7481 92.1256 65.4576C93.2146 76.7375 99.2986 74.8639 99.2986 74.8639Z" fill="#DE958A"/>
<path opacity="0.1" d="M92.3594 54.3662C91.8915 58.8004 91.8641 62.2673 92.1238 64.9768C87.9786 67.2231 83.2456 68.1721 78.547 67.6991C73.8483 67.2261 69.4037 65.3532 65.7973 62.3266C65.6359 59.0374 65.4165 56.9284 65.4165 56.9284C65.4165 56.9284 94.7794 31.4668 92.3594 54.3662Z" fill="black"/>
<path d="M80.4916 66.8584C93.4115 66.8584 103.885 56.4626 103.885 43.6387C103.885 30.8148 93.4115 20.4189 80.4916 20.4189C67.5718 20.4189 57.0981 30.8148 57.0981 43.6387C57.0981 56.4626 67.5718 66.8584 80.4916 66.8584Z" fill="#A87A66"/>
<path d="M80.2958 66.8584C93.2157 66.8584 103.689 56.4626 103.689 43.6387C103.689 30.8148 93.2157 20.4189 80.2958 20.4189C67.376 20.4189 56.9023 30.8148 56.9023 43.6387C56.9023 56.4626 67.376 66.8584 80.2958 66.8584Z" fill="#F89D8F"/>
<path opacity="0.1" d="M42.3457 105.77C42.3457 105.77 49.9284 121.143 50.3318 130.191L42.3457 105.77Z" fill="black"/>
<path opacity="0.1" d="M124.95 114.579L122.772 130.192H124.95V114.579Z" fill="black"/>
<path opacity="0.1" d="M44.04 130.191L56.0595 103.048C56.0595 103.048 59.4475 96.6422 60.2541 90.2368C61.0608 83.8313 65.4168 73.7427 65.4168 73.7427C65.4168 73.7427 76.2263 60.1312 81.2276 62.0528C86.229 63.9744 76.8716 71.1806 76.8716 71.1806C76.8716 71.1806 90.585 76.4651 81.2276 92.1584C71.8702 107.852 71.7089 104.969 71.7089 104.969L67.1109 130.191H44.04Z" fill="black"/>
<path d="M43.7168 130.191L55.7362 103.048C55.7362 103.048 59.1242 96.6421 59.9309 90.2367C60.4439 86.1644 62.3913 80.6029 63.7416 77.0911C64.6231 74.7952 65.92 72.6787 67.5685 70.8458C71.063 66.9641 77.4099 60.7044 80.9044 62.0496C85.9057 63.9712 76.5483 71.1773 76.5483 71.1773C76.5483 71.1773 90.2618 76.4618 80.9044 92.1551C71.547 107.848 71.3856 104.966 71.3856 104.966L66.7876 130.187L43.7168 130.191Z" fill="#F89D8F"/>
<path opacity="0.15" d="M88.0841 31.0682C88.3514 31.0682 88.5681 30.8532 88.5681 30.5878C88.5681 30.3225 88.3514 30.1074 88.0841 30.1074C87.8168 30.1074 87.6001 30.3225 87.6001 30.5878C87.6001 30.8532 87.8168 31.0682 88.0841 31.0682Z" fill="white"/>
<path opacity="0.15" d="M85.8268 32.0292C86.0941 32.0292 86.3108 31.8141 86.3108 31.5488C86.3108 31.2834 86.0941 31.0684 85.8268 31.0684C85.5595 31.0684 85.3428 31.2834 85.3428 31.5488C85.3428 31.8141 85.5595 32.0292 85.8268 32.0292Z" fill="white"/>
<path opacity="0.1" d="M64.2859 14.3773C66.6204 13.6278 69.2114 13.7896 71.4508 12.7935C74.479 11.4452 76.3876 8.18162 79.5304 7.12472C80.9308 6.65392 82.4505 6.67154 83.9203 6.82207C88.6466 7.31029 93.1475 9.07546 96.9335 11.9256C100.049 14.278 102.972 17.4855 106.878 17.7369C107.822 17.7978 108.782 17.6745 109.706 17.8714C112.101 18.3807 113.535 20.8292 114.224 23.1559C115.021 25.9134 115.208 28.8094 114.771 31.6453C114.335 34.4812 113.287 37.1899 111.697 39.5859C110.813 40.899 109.735 42.1849 109.518 43.7494C109.305 45.2835 109.963 46.8737 109.579 48.3758C109.256 49.62 108.288 50.5776 107.346 51.46C104.092 54.5143 100.767 57.4902 97.3707 60.3876C95.6057 54.8212 98.1952 48.8273 97.7918 43.0064C97.6305 40.7389 96.8238 38.2632 94.8088 37.1935C92.9228 36.1942 90.5124 36.7131 88.6038 35.7522C86.4742 34.6873 85.5998 32.1652 83.9897 30.4197C81.247 27.4412 76.486 27.0568 72.6511 28.402C68.8162 29.7471 65.6814 32.5143 62.6483 35.2126L57.1356 40.1207C56.0595 38.9165 56.8758 37.0686 57.4582 35.5633C58.3262 33.307 58.5166 30.8745 58.4585 28.4789C58.4117 26.5572 57.7438 24.6596 57.7825 22.7892C57.8599 19.0997 60.8091 15.4934 64.2859 14.3773Z" fill="black"/>
<path d="M64.2859 13.8968C66.6204 13.1474 69.2114 13.3091 71.4508 12.3131C74.479 10.9647 76.3876 7.70115 79.5304 6.64425C80.9308 6.17345 82.4505 6.19107 83.9203 6.3416C88.6466 6.82982 93.1475 8.595 96.9335 11.4451C100.049 13.7975 102.972 17.0051 106.878 17.2565C107.822 17.3173 108.782 17.194 109.706 17.391C112.101 17.9002 113.535 20.3487 114.224 22.6755C115.021 25.433 115.208 28.3289 114.771 31.1648C114.335 34.0007 113.287 36.7095 111.697 39.1054C110.813 40.4185 109.735 41.7044 109.518 43.269C109.305 44.8031 109.963 46.3932 109.579 47.8953C109.256 49.1395 108.288 50.0972 107.346 50.9795C104.092 54.0338 100.767 57.0097 97.3707 59.9071C95.6057 54.3408 98.1952 48.3469 97.7918 42.5259C97.6305 40.2584 96.8238 37.7827 94.8088 36.713C92.9228 35.7137 90.5124 36.2326 88.6038 35.2718C86.4742 34.2069 85.5998 31.6847 83.9897 29.9392C81.247 26.9607 76.486 26.5764 72.6511 27.9215C68.8162 29.2667 65.6814 32.0338 62.6483 34.7321L57.1356 39.6403C56.0595 38.4361 56.8758 36.5881 57.4582 35.0828C58.3262 32.8265 58.5166 30.394 58.4585 27.9984C58.4117 26.0768 57.7438 24.1791 57.7825 22.3088C57.8599 18.6192 60.8091 15.013 64.2859 13.8968Z" fill="#141720"/>
</g>
<defs>
<linearGradient id="paint0_linear_32_2039" x1="88.3405" y1="63.8553" x2="88.7317" y2="122.327" gradientUnits="userSpaceOnUse">
<stop stop-color="#FD749B"/>
<stop offset="1" stop-color="#281AC8"/>
</linearGradient>
<linearGradient id="paint1_linear_32_2039" x1="100.309" y1="-3.25476" x2="100.467" y2="35.5427" gradientUnits="userSpaceOnUse">
<stop stop-color="#FD749B"/>
<stop offset="1" stop-color="#281AC8"/>
</linearGradient>
<linearGradient id="paint2_linear_32_2039" x1="93.5808" y1="40.0802" x2="93.8135" y2="87.0043" gradientUnits="userSpaceOnUse">
<stop stop-color="#FD749B"/>
<stop offset="1" stop-color="#281AC8"/>
</linearGradient>
<linearGradient id="paint3_linear_32_2039" x1="97.6449" y1="18.7396" x2="97.7973" y2="57.452" gradientUnits="userSpaceOnUse">
<stop stop-color="#FD749B"/>
<stop offset="1" stop-color="#281AC8"/>
</linearGradient>
<clipPath id="clip0_32_2039">
<rect width="177" height="130" fill="white" transform="translate(0.109375 0.192383)"/>
</clipPath>
</defs>
</svg>
