<svg width="24" height="23" viewBox="0 0 24 23" fill="none" xmlns="http://www.w3.org/2000/svg">
<g clip-path="url(#clip0_32_81)">
<path d="M22.605 8.73451H20.4532C20.1074 8.73451 19.8224 8.5524 19.69 8.24684C19.5575 7.94129 19.6248 7.61944 19.8688 7.38558L21.3902 5.93073C21.6139 5.71684 21.737 5.43207 21.737 5.12977C21.737 4.82707 21.6139 4.5427 21.3902 4.3284L19.451 2.47347C19.0038 2.0457 18.2239 2.04488 17.7758 2.47347L16.2549 3.92833C16.0104 4.16177 15.673 4.22695 15.3545 4.09984C15.035 3.97314 14.8446 3.70058 14.8446 3.36977V1.31155C14.8446 0.686992 14.3135 0.178955 13.6605 0.178955H10.9176C10.2646 0.178955 9.73351 0.686992 9.73351 1.31155V3.36977C9.73351 3.70058 9.54312 3.97314 9.22367 4.09984C8.90508 4.22736 8.56775 4.16177 8.32327 3.92833L6.80228 2.47347C6.35421 2.04488 5.57434 2.0457 5.12712 2.47347L3.18788 4.3284C2.96427 4.54229 2.84117 4.82707 2.84117 5.12977C2.84117 5.43207 2.96427 5.71644 3.18788 5.93073L4.70929 7.38558C4.95334 7.61944 5.02021 7.94129 4.88817 8.24684C4.75614 8.5524 4.47077 8.73451 4.12491 8.73451H1.97314C1.32019 8.73451 0.789062 9.24255 0.789062 9.8671V12.4904C0.789062 13.1154 1.32019 13.6234 1.97314 13.6234H4.12491C4.47077 13.6234 4.75571 13.8055 4.88817 14.1111C5.02064 14.4166 4.95334 14.7385 4.70929 14.9723L3.18788 16.4272C2.96427 16.6411 2.84117 16.9258 2.84117 17.2281C2.84117 17.5308 2.96427 17.8152 3.18788 18.0295L5.12712 19.8844C5.57477 20.3126 6.35421 20.3134 6.80228 19.8844L8.32327 18.4292C8.56775 18.1957 8.9038 18.1314 9.22367 18.2581C9.54312 18.3848 9.73351 18.6573 9.73351 18.9881V21.0464C9.73351 21.6709 10.2646 22.179 10.9176 22.179H13.6601C14.3131 22.179 14.8442 21.6709 14.8442 21.0464V18.9881C14.8442 18.6573 15.0346 18.3848 15.354 18.2581C15.6739 18.131 16.01 18.1957 16.2544 18.4292L17.7754 19.8844C18.2235 20.313 19.0034 20.3122 19.4506 19.8844L21.3898 18.0295C21.6134 17.8156 21.7365 17.5308 21.7365 17.2281C21.7365 16.9258 21.6134 16.6415 21.3898 16.4272L19.8684 14.9723C19.6244 14.7385 19.5575 14.4166 19.6895 14.1111C19.8216 13.8055 20.1074 13.6234 20.4532 13.6234H22.605C23.2579 13.6234 23.7891 13.1154 23.7891 12.4908V9.8671C23.7891 9.24255 23.2579 8.73451 22.605 8.73451ZM22.9372 12.4908C22.9372 12.666 22.7881 12.8086 22.605 12.8086H20.4532C19.7615 12.8086 19.1673 13.1883 18.9028 13.7994C18.6379 14.4105 18.7772 15.0811 19.2666 15.5488L20.788 17.0037C20.9179 17.1279 20.9179 17.3296 20.788 17.4534L18.8487 19.3084C18.7193 19.4322 18.5084 19.433 18.3785 19.3084L16.8575 17.8531C16.3682 17.385 15.6675 17.2526 15.0286 17.5052C14.3897 17.7582 13.9928 18.3265 13.9928 18.9881V21.0464C13.9928 21.2215 13.8437 21.3641 13.6605 21.3641H10.9176C10.7344 21.3641 10.5854 21.2215 10.5854 21.0464V18.9881C10.5854 18.3265 10.1884 17.7582 9.54951 17.5052C9.33527 17.42 9.11464 17.3785 8.89656 17.3785C8.46467 17.3785 8.04599 17.5414 7.72058 17.8527L6.1996 19.308C6.06927 19.4326 5.85843 19.4318 5.72938 19.308L3.79014 17.453C3.66023 17.3288 3.66023 17.1271 3.79014 17.0033L5.31154 15.5484C5.80051 15.0807 5.94021 14.4101 5.67528 13.799C5.41078 13.1883 4.81662 12.8086 4.12491 12.8086H1.97314C1.78999 12.8086 1.64091 12.666 1.64091 12.4908V9.8671C1.64091 9.69192 1.78999 9.54932 1.97314 9.54932H4.12491C4.81662 9.54932 5.41078 9.16962 5.67528 8.55851C5.94021 7.9474 5.80093 7.27681 5.31154 6.8091L3.79014 5.35425C3.66023 5.22999 3.66023 5.02833 3.79014 4.90447L5.72938 3.04955C5.85886 2.92529 6.06969 2.92529 6.1996 3.04955L7.72058 4.5044C8.20912 4.9717 8.90977 5.10573 9.54951 4.85233C10.1884 4.59973 10.5854 4.0314 10.5854 3.36977V1.31155C10.5854 1.13636 10.7344 0.99377 10.9176 0.99377H13.6601C13.8437 0.99377 13.9928 1.13636 13.9928 1.31155V3.36977C13.9928 4.0314 14.3897 4.59973 15.0286 4.85273C15.6684 5.10614 16.3686 4.97251 16.8575 4.50481L18.3785 3.04996C18.5089 2.9257 18.7197 2.9257 18.8487 3.04996L20.788 4.90488C20.9179 5.02914 20.9179 5.23081 20.788 5.35466L19.2666 6.80951C18.7776 7.27721 18.6379 7.94781 18.9028 8.55892C19.1673 9.17003 19.7615 9.54973 20.4532 9.54973H22.605C22.7881 9.54932 22.9372 9.69192 22.9372 9.8671V12.4908Z" fill="#606060"/>
<path d="M12.2894 7.51221C10.1755 7.51221 8.45605 9.15691 8.45605 11.1789C8.45605 13.2008 10.1755 14.8455 12.2894 14.8455C14.4033 14.8455 16.1227 13.2008 16.1227 11.1789C16.1227 9.15691 14.4033 7.51221 12.2894 7.51221ZM12.2894 14.0307C10.6457 14.0307 9.30791 12.7511 9.30791 11.1789C9.30791 9.60669 10.6457 8.32702 12.2894 8.32702C13.933 8.32702 15.2709 9.60669 15.2709 11.1789C15.2709 12.7511 13.933 14.0307 12.2894 14.0307Z" fill="#606060"/>
</g>
<defs>
<clipPath id="clip0_32_81">
<rect width="23" height="22" fill="white" transform="translate(0.789062 0.178955)"/>
</clipPath>
</defs>
</svg>
