<svg width="46" height="46" viewBox="0 0 46 46" fill="none" xmlns="http://www.w3.org/2000/svg">
<circle cx="23" cy="23" r="21.5" stroke="#00AACE" stroke-width="3"/>
<path d="M35 15.3677C34.0703 15.7692 33.0797 16.0354 32.0469 16.1646C33.1094 15.54 33.9203 14.5585 34.3016 13.3754C33.3109 13.9569 32.2172 14.3677 31.0516 14.5969C30.1109 13.6108 28.7703 13 27.3078 13C24.4703 13 22.1859 15.2677 22.1859 18.0477C22.1859 18.4477 22.2203 18.8323 22.3047 19.1985C18.0437 18.9938 14.2734 16.9831 11.7406 13.92C11.2984 14.6754 11.0391 15.54 11.0391 16.4708C11.0391 18.2185 11.9531 19.7677 13.3156 20.6646C12.4922 20.6492 11.6844 20.4138 11 20.0431C11 20.0585 11 20.0785 11 20.0985C11 22.5508 12.7766 24.5877 15.1062 25.0569C14.6891 25.1692 14.2344 25.2231 13.7625 25.2231C13.4344 25.2231 13.1031 25.2046 12.7922 25.1369C13.4562 27.1354 15.3406 28.6046 17.5813 28.6523C15.8375 29.9954 13.6234 30.8046 11.2266 30.8046C10.8063 30.8046 10.4031 30.7862 10 30.7354C12.2703 32.1769 14.9609 33 17.8625 33C27.2937 33 32.45 25.3077 32.45 18.64C32.45 18.4169 32.4422 18.2015 32.4312 17.9877C33.4484 17.2769 34.3031 16.3892 35 15.3677Z" fill="#00AACE"/>
</svg>
