<svg width="20" height="18" viewBox="0 0 20 18" fill="none" xmlns="http://www.w3.org/2000/svg">
<g clip-path="url(#clip0_32_128)">
<mask id="path-1-outside-1_32_128" maskUnits="userSpaceOnUse" x="-0.21875" y="-1" width="20" height="20" fill="black">
<rect fill="white" x="-0.21875" y="-1" width="20" height="20"/>
<path d="M18.5782 10.5431H18.2939V8.11683C18.2939 7.73271 18.0921 7.39261 17.7839 7.18596V6.8556C17.7839 6.37638 17.3724 5.98654 16.8666 5.98654H16.6543L17.4666 4.85732C17.7388 4.47883 17.6353 3.96101 17.2358 3.70303L11.7239 0.144518C11.5304 0.0195379 11.2971 -0.0265871 11.0669 0.0147918C10.8367 0.0561004 10.6374 0.179815 10.5055 0.36319L5.74801 6.97689H4.42413L4.74353 3.91373C4.74713 3.8792 4.7708 3.84928 4.80383 3.83751C5.21534 3.69052 5.57196 3.41602 5.80797 3.0646C5.82657 3.03693 5.86164 3.02111 5.89793 3.02459L7.97438 3.21893C8.12327 3.23261 8.25571 3.12988 8.2704 2.9889C8.2851 2.84793 8.17641 2.72239 8.0276 2.70846L5.95114 2.51412C5.71012 2.49176 5.48026 2.59698 5.35112 2.78922C5.1776 3.04762 4.91538 3.24941 4.61283 3.35748C4.38509 3.43883 4.22871 3.63262 4.20466 3.86328L3.88003 6.97685H3.5348L4.03994 2.13218C4.05812 1.95781 4.2224 1.8297 4.40669 1.84717L8.60279 2.23987C8.7516 2.25347 8.88412 2.15082 8.89882 2.00984C8.91351 1.86886 8.80482 1.74332 8.65601 1.7294L4.4599 1.3367C3.97882 1.29174 3.54861 1.6259 3.50107 2.08173L3.09391 5.98654H2.40052C1.89472 5.98654 1.48317 6.37638 1.48317 6.8556V7.08095C1.06937 7.26144 0.78125 7.65772 0.78125 8.11683V16.86C0.78125 17.4886 1.32104 18 1.9846 18H17.0906C17.7541 18 18.2939 17.4886 18.2939 16.86V14.4337H18.5782C18.9139 14.4337 19.1869 14.1751 19.1869 13.8572V11.1197C19.1869 10.8018 18.9139 10.5431 18.5782 10.5431ZM16.8666 6.49954C17.0739 6.4995 17.2424 6.65925 17.2424 6.85563V6.98631C17.1926 6.98033 17.1421 6.97692 17.0906 6.97692H15.9419L16.2852 6.49954H16.8666ZM10.9529 0.652034C11.0034 0.581897 11.0796 0.534577 11.1676 0.518757C11.1887 0.514995 11.2098 0.513096 11.2308 0.513096C11.2975 0.513096 11.3626 0.532011 11.4189 0.568362L16.9308 4.12688C17.0837 4.22556 17.1233 4.42363 17.0192 4.5684L15.2867 6.97682H14.8709L15.7203 5.79603C15.858 5.60453 15.8694 5.36083 15.7498 5.15998C15.5909 4.89314 15.5265 4.57895 15.5684 4.27524C15.5996 4.04929 15.4947 3.82872 15.2946 3.69955L12.4372 1.85483C12.2371 1.72564 11.982 1.71379 11.7715 1.82393C11.4885 1.97194 11.1563 2.03005 10.836 1.98758C10.5985 1.95601 10.3576 2.05762 10.2219 2.24623L6.81902 6.97685H6.40325L10.9529 0.652034ZM11.0721 5.00758C9.89312 5.00758 8.92531 5.8785 8.84645 6.97685H7.47419L10.6693 2.53511C10.6693 2.53511 10.6693 2.53511 10.6693 2.53511C10.6874 2.50983 10.7175 2.49478 10.7485 2.49478C10.7526 2.49478 10.7567 2.49507 10.7608 2.49559C11.1964 2.55332 11.6482 2.47436 12.0331 2.27302C12.0634 2.25713 12.1023 2.25941 12.1323 2.27875L14.9897 4.1235C15.0196 4.14284 15.036 4.17631 15.0315 4.20879C14.9745 4.62184 15.0622 5.04913 15.2782 5.41201C15.2956 5.44116 15.2935 5.47849 15.2729 5.50715L14.2157 6.97682H13.2979C13.219 5.8785 12.2512 5.00758 11.0721 5.00758ZM12.755 6.97689H9.38933C9.46689 6.16165 10.1918 5.52058 11.0721 5.52058C11.9525 5.52054 12.6774 6.16165 12.755 6.97689ZM2.02464 6.8556C2.02464 6.65922 2.19322 6.49947 2.40052 6.49947H3.04043L2.99067 6.97685H2.02464V6.8556ZM1.32271 8.11683C1.32271 7.7711 1.61963 7.48982 1.9846 7.48982H17.0906C17.4556 7.48982 17.7524 7.7711 17.7524 8.11683V8.82853H1.32271V8.11683ZM17.7524 16.86C17.7524 17.2057 17.4556 17.487 17.0906 17.487H1.9846C1.61963 17.487 1.32271 17.2057 1.32271 16.86V16.1483H2.78267C2.93222 16.1483 3.05338 16.0335 3.05338 15.8918C3.05338 15.7502 2.93218 15.6354 2.78267 15.6354H1.32271V9.3415H17.7524V10.5431H15.1783H15.1783C14.3672 10.5431 13.6647 10.991 13.3312 11.6393C13.3301 11.6415 13.3289 11.6436 13.3277 11.6458C13.3249 11.6513 13.3224 11.6571 13.3197 11.6626C13.28 11.7425 13.2455 11.8253 13.2174 11.9106C13.2173 11.9109 13.2172 11.9111 13.2172 11.9113C13.1572 12.0937 13.1249 12.2876 13.1249 12.4884C13.1249 13.5611 14.046 14.4337 15.1782 14.4337H15.1783H17.7524V15.6354H4.5162C4.36665 15.6354 4.24548 15.7502 4.24548 15.8918C4.24548 16.0335 4.36668 16.1483 4.5162 16.1483H17.7524V16.86ZM18.6454 13.8571C18.6454 13.8922 18.6153 13.9208 18.5782 13.9208H15.1784C14.6052 13.9208 14.1055 13.6171 13.8492 13.1706C13.8375 13.1503 13.8264 13.1297 13.8157 13.1089C13.7945 13.0671 13.7753 13.0243 13.7583 12.9804C13.6989 12.8269 13.6664 12.6612 13.6664 12.4884C13.6664 12.3157 13.6989 12.15 13.7583 11.9965C13.7753 11.9526 13.7945 11.9098 13.8157 11.868C13.8264 11.8472 13.8375 11.8266 13.8492 11.8063C14.1055 11.3598 14.6052 11.0561 15.1784 11.0561H18.5782C18.6153 11.0561 18.6454 11.0847 18.6454 11.1197V13.8571Z"/>
</mask>
<path d="M18.5782 10.5431H18.2939V8.11683C18.2939 7.73271 18.0921 7.39261 17.7839 7.18596V6.8556C17.7839 6.37638 17.3724 5.98654 16.8666 5.98654H16.6543L17.4666 4.85732C17.7388 4.47883 17.6353 3.96101 17.2358 3.70303L11.7239 0.144518C11.5304 0.0195379 11.2971 -0.0265871 11.0669 0.0147918C10.8367 0.0561004 10.6374 0.179815 10.5055 0.36319L5.74801 6.97689H4.42413L4.74353 3.91373C4.74713 3.8792 4.7708 3.84928 4.80383 3.83751C5.21534 3.69052 5.57196 3.41602 5.80797 3.0646C5.82657 3.03693 5.86164 3.02111 5.89793 3.02459L7.97438 3.21893C8.12327 3.23261 8.25571 3.12988 8.2704 2.9889C8.2851 2.84793 8.17641 2.72239 8.0276 2.70846L5.95114 2.51412C5.71012 2.49176 5.48026 2.59698 5.35112 2.78922C5.1776 3.04762 4.91538 3.24941 4.61283 3.35748C4.38509 3.43883 4.22871 3.63262 4.20466 3.86328L3.88003 6.97685H3.5348L4.03994 2.13218C4.05812 1.95781 4.2224 1.8297 4.40669 1.84717L8.60279 2.23987C8.7516 2.25347 8.88412 2.15082 8.89882 2.00984C8.91351 1.86886 8.80482 1.74332 8.65601 1.7294L4.4599 1.3367C3.97882 1.29174 3.54861 1.6259 3.50107 2.08173L3.09391 5.98654H2.40052C1.89472 5.98654 1.48317 6.37638 1.48317 6.8556V7.08095C1.06937 7.26144 0.78125 7.65772 0.78125 8.11683V16.86C0.78125 17.4886 1.32104 18 1.9846 18H17.0906C17.7541 18 18.2939 17.4886 18.2939 16.86V14.4337H18.5782C18.9139 14.4337 19.1869 14.1751 19.1869 13.8572V11.1197C19.1869 10.8018 18.9139 10.5431 18.5782 10.5431ZM16.8666 6.49954C17.0739 6.4995 17.2424 6.65925 17.2424 6.85563V6.98631C17.1926 6.98033 17.1421 6.97692 17.0906 6.97692H15.9419L16.2852 6.49954H16.8666ZM10.9529 0.652034C11.0034 0.581897 11.0796 0.534577 11.1676 0.518757C11.1887 0.514995 11.2098 0.513096 11.2308 0.513096C11.2975 0.513096 11.3626 0.532011 11.4189 0.568362L16.9308 4.12688C17.0837 4.22556 17.1233 4.42363 17.0192 4.5684L15.2867 6.97682H14.8709L15.7203 5.79603C15.858 5.60453 15.8694 5.36083 15.7498 5.15998C15.5909 4.89314 15.5265 4.57895 15.5684 4.27524C15.5996 4.04929 15.4947 3.82872 15.2946 3.69955L12.4372 1.85483C12.2371 1.72564 11.982 1.71379 11.7715 1.82393C11.4885 1.97194 11.1563 2.03005 10.836 1.98758C10.5985 1.95601 10.3576 2.05762 10.2219 2.24623L6.81902 6.97685H6.40325L10.9529 0.652034ZM11.0721 5.00758C9.89312 5.00758 8.92531 5.8785 8.84645 6.97685H7.47419L10.6693 2.53511C10.6693 2.53511 10.6693 2.53511 10.6693 2.53511C10.6874 2.50983 10.7175 2.49478 10.7485 2.49478C10.7526 2.49478 10.7567 2.49507 10.7608 2.49559C11.1964 2.55332 11.6482 2.47436 12.0331 2.27302C12.0634 2.25713 12.1023 2.25941 12.1323 2.27875L14.9897 4.1235C15.0196 4.14284 15.036 4.17631 15.0315 4.20879C14.9745 4.62184 15.0622 5.04913 15.2782 5.41201C15.2956 5.44116 15.2935 5.47849 15.2729 5.50715L14.2157 6.97682H13.2979C13.219 5.8785 12.2512 5.00758 11.0721 5.00758ZM12.755 6.97689H9.38933C9.46689 6.16165 10.1918 5.52058 11.0721 5.52058C11.9525 5.52054 12.6774 6.16165 12.755 6.97689ZM2.02464 6.8556C2.02464 6.65922 2.19322 6.49947 2.40052 6.49947H3.04043L2.99067 6.97685H2.02464V6.8556ZM1.32271 8.11683C1.32271 7.7711 1.61963 7.48982 1.9846 7.48982H17.0906C17.4556 7.48982 17.7524 7.7711 17.7524 8.11683V8.82853H1.32271V8.11683ZM17.7524 16.86C17.7524 17.2057 17.4556 17.487 17.0906 17.487H1.9846C1.61963 17.487 1.32271 17.2057 1.32271 16.86V16.1483H2.78267C2.93222 16.1483 3.05338 16.0335 3.05338 15.8918C3.05338 15.7502 2.93218 15.6354 2.78267 15.6354H1.32271V9.3415H17.7524V10.5431H15.1783H15.1783C14.3672 10.5431 13.6647 10.991 13.3312 11.6393C13.3301 11.6415 13.3289 11.6436 13.3277 11.6458C13.3249 11.6513 13.3224 11.6571 13.3197 11.6626C13.28 11.7425 13.2455 11.8253 13.2174 11.9106C13.2173 11.9109 13.2172 11.9111 13.2172 11.9113C13.1572 12.0937 13.1249 12.2876 13.1249 12.4884C13.1249 13.5611 14.046 14.4337 15.1782 14.4337H15.1783H17.7524V15.6354H4.5162C4.36665 15.6354 4.24548 15.7502 4.24548 15.8918C4.24548 16.0335 4.36668 16.1483 4.5162 16.1483H17.7524V16.86ZM18.6454 13.8571C18.6454 13.8922 18.6153 13.9208 18.5782 13.9208H15.1784C14.6052 13.9208 14.1055 13.6171 13.8492 13.1706C13.8375 13.1503 13.8264 13.1297 13.8157 13.1089C13.7945 13.0671 13.7753 13.0243 13.7583 12.9804C13.6989 12.8269 13.6664 12.6612 13.6664 12.4884C13.6664 12.3157 13.6989 12.15 13.7583 11.9965C13.7753 11.9526 13.7945 11.9098 13.8157 11.868C13.8264 11.8472 13.8375 11.8266 13.8492 11.8063C14.1055 11.3598 14.6052 11.0561 15.1784 11.0561H18.5782C18.6153 11.0561 18.6454 11.0847 18.6454 11.1197V13.8571Z" fill="#FFFBF7"/>
<path d="M18.5782 10.5431H18.2939V8.11683C18.2939 7.73271 18.0921 7.39261 17.7839 7.18596V6.8556C17.7839 6.37638 17.3724 5.98654 16.8666 5.98654H16.6543L17.4666 4.85732C17.7388 4.47883 17.6353 3.96101 17.2358 3.70303L11.7239 0.144518C11.5304 0.0195379 11.2971 -0.0265871 11.0669 0.0147918C10.8367 0.0561004 10.6374 0.179815 10.5055 0.36319L5.74801 6.97689H4.42413L4.74353 3.91373C4.74713 3.8792 4.7708 3.84928 4.80383 3.83751C5.21534 3.69052 5.57196 3.41602 5.80797 3.0646C5.82657 3.03693 5.86164 3.02111 5.89793 3.02459L7.97438 3.21893C8.12327 3.23261 8.25571 3.12988 8.2704 2.9889C8.2851 2.84793 8.17641 2.72239 8.0276 2.70846L5.95114 2.51412C5.71012 2.49176 5.48026 2.59698 5.35112 2.78922C5.1776 3.04762 4.91538 3.24941 4.61283 3.35748C4.38509 3.43883 4.22871 3.63262 4.20466 3.86328L3.88003 6.97685H3.5348L4.03994 2.13218C4.05812 1.95781 4.2224 1.8297 4.40669 1.84717L8.60279 2.23987C8.7516 2.25347 8.88412 2.15082 8.89882 2.00984C8.91351 1.86886 8.80482 1.74332 8.65601 1.7294L4.4599 1.3367C3.97882 1.29174 3.54861 1.6259 3.50107 2.08173L3.09391 5.98654H2.40052C1.89472 5.98654 1.48317 6.37638 1.48317 6.8556V7.08095C1.06937 7.26144 0.78125 7.65772 0.78125 8.11683V16.86C0.78125 17.4886 1.32104 18 1.9846 18H17.0906C17.7541 18 18.2939 17.4886 18.2939 16.86V14.4337H18.5782C18.9139 14.4337 19.1869 14.1751 19.1869 13.8572V11.1197C19.1869 10.8018 18.9139 10.5431 18.5782 10.5431ZM16.8666 6.49954C17.0739 6.4995 17.2424 6.65925 17.2424 6.85563V6.98631C17.1926 6.98033 17.1421 6.97692 17.0906 6.97692H15.9419L16.2852 6.49954H16.8666ZM10.9529 0.652034C11.0034 0.581897 11.0796 0.534577 11.1676 0.518757C11.1887 0.514995 11.2098 0.513096 11.2308 0.513096C11.2975 0.513096 11.3626 0.532011 11.4189 0.568362L16.9308 4.12688C17.0837 4.22556 17.1233 4.42363 17.0192 4.5684L15.2867 6.97682H14.8709L15.7203 5.79603C15.858 5.60453 15.8694 5.36083 15.7498 5.15998C15.5909 4.89314 15.5265 4.57895 15.5684 4.27524C15.5996 4.04929 15.4947 3.82872 15.2946 3.69955L12.4372 1.85483C12.2371 1.72564 11.982 1.71379 11.7715 1.82393C11.4885 1.97194 11.1563 2.03005 10.836 1.98758C10.5985 1.95601 10.3576 2.05762 10.2219 2.24623L6.81902 6.97685H6.40325L10.9529 0.652034ZM11.0721 5.00758C9.89312 5.00758 8.92531 5.8785 8.84645 6.97685H7.47419L10.6693 2.53511C10.6693 2.53511 10.6693 2.53511 10.6693 2.53511C10.6874 2.50983 10.7175 2.49478 10.7485 2.49478C10.7526 2.49478 10.7567 2.49507 10.7608 2.49559C11.1964 2.55332 11.6482 2.47436 12.0331 2.27302C12.0634 2.25713 12.1023 2.25941 12.1323 2.27875L14.9897 4.1235C15.0196 4.14284 15.036 4.17631 15.0315 4.20879C14.9745 4.62184 15.0622 5.04913 15.2782 5.41201C15.2956 5.44116 15.2935 5.47849 15.2729 5.50715L14.2157 6.97682H13.2979C13.219 5.8785 12.2512 5.00758 11.0721 5.00758ZM12.755 6.97689H9.38933C9.46689 6.16165 10.1918 5.52058 11.0721 5.52058C11.9525 5.52054 12.6774 6.16165 12.755 6.97689ZM2.02464 6.8556C2.02464 6.65922 2.19322 6.49947 2.40052 6.49947H3.04043L2.99067 6.97685H2.02464V6.8556ZM1.32271 8.11683C1.32271 7.7711 1.61963 7.48982 1.9846 7.48982H17.0906C17.4556 7.48982 17.7524 7.7711 17.7524 8.11683V8.82853H1.32271V8.11683ZM17.7524 16.86C17.7524 17.2057 17.4556 17.487 17.0906 17.487H1.9846C1.61963 17.487 1.32271 17.2057 1.32271 16.86V16.1483H2.78267C2.93222 16.1483 3.05338 16.0335 3.05338 15.8918C3.05338 15.7502 2.93218 15.6354 2.78267 15.6354H1.32271V9.3415H17.7524V10.5431H15.1783H15.1783C14.3672 10.5431 13.6647 10.991 13.3312 11.6393C13.3301 11.6415 13.3289 11.6436 13.3277 11.6458C13.3249 11.6513 13.3224 11.6571 13.3197 11.6626C13.28 11.7425 13.2455 11.8253 13.2174 11.9106C13.2173 11.9109 13.2172 11.9111 13.2172 11.9113C13.1572 12.0937 13.1249 12.2876 13.1249 12.4884C13.1249 13.5611 14.046 14.4337 15.1782 14.4337H15.1783H17.7524V15.6354H4.5162C4.36665 15.6354 4.24548 15.7502 4.24548 15.8918C4.24548 16.0335 4.36668 16.1483 4.5162 16.1483H17.7524V16.86ZM18.6454 13.8571C18.6454 13.8922 18.6153 13.9208 18.5782 13.9208H15.1784C14.6052 13.9208 14.1055 13.6171 13.8492 13.1706C13.8375 13.1503 13.8264 13.1297 13.8157 13.1089C13.7945 13.0671 13.7753 13.0243 13.7583 12.9804C13.6989 12.8269 13.6664 12.6612 13.6664 12.4884C13.6664 12.3157 13.6989 12.15 13.7583 11.9965C13.7753 11.9526 13.7945 11.9098 13.8157 11.868C13.8264 11.8472 13.8375 11.8266 13.8492 11.8063C14.1055 11.3598 14.6052 11.0561 15.1784 11.0561H18.5782C18.6153 11.0561 18.6454 11.0847 18.6454 11.1197V13.8571Z" stroke="url(#paint0_linear_32_128)" stroke-width="0.3" mask="url(#path-1-outside-1_32_128)"/>
<path d="M15.2422 11.3726C15.8854 11.3727 16.415 11.8699 16.415 12.4888C16.4148 13.1075 15.8852 13.6039 15.2422 13.604C14.5991 13.604 14.0686 13.1076 14.0684 12.4888C14.0684 11.8698 14.5989 11.3726 15.2422 11.3726ZM15.2422 12.0356C14.9726 12.0356 14.7598 12.243 14.7598 12.4888C14.76 12.7343 14.9728 12.9409 15.2422 12.9409C15.5115 12.9408 15.7234 12.7343 15.7236 12.4888C15.7236 12.2431 15.5117 12.0357 15.2422 12.0356Z" fill="#FFFBF7" stroke="url(#paint1_linear_32_128)" stroke-width="0.15"/>
</g>
<defs>
<linearGradient id="paint0_linear_32_128" x1="10.9043" y1="-2.83333" x2="11.8975" y2="29.0547" gradientUnits="userSpaceOnUse">
<stop stop-color="#FD749B"/>
<stop offset="1" stop-color="#281AC8"/>
</linearGradient>
<linearGradient id="paint1_linear_32_128" x1="15.3518" y1="11.1202" x2="15.4631" y2="14.8074" gradientUnits="userSpaceOnUse">
<stop stop-color="#FD749B"/>
<stop offset="1" stop-color="#281AC8"/>
</linearGradient>
<clipPath id="clip0_32_128">
<rect width="19" height="18" fill="white" transform="translate(0.484375)"/>
</clipPath>
</defs>
</svg>
